<?xml version="1.0"?><svg version="1.2" baseProfile="tiny-ps" viewBox="0 0 300 300" xmlns="http://www.w3.org/2000/svg" xmlns:xlink="http://www.w3.org/1999/xlink"><title>Bahroun</title><g><g fill="#fffefe" transform="matrix(.1 0 0 -.1 0 300)"><path d="M0 1500V0h3000v3000H0V1500z"/></g><g fill="#e2e2e2" transform="matrix(.1 0 0 -.1 0 300)"><path d="M1020 2125v-15h15c8 0 29-13 47-29l33-29 3-471 3-471-16-30-16-31-34-16c-19-9-35-21-35-25v-9l373 3 372 3 58 24 59 23 51 42 52 42 30 59 30 59v151l-25 48-24 49-35 30c-19 17-57 41-85 54l-50 23-53 7-54 6 49 33c65 44 108 89 132 136l20 38v122l-19 37c-26 50-66 87-122 111l-46 21-69 10-69 10h-575v-15zm591-42 46-21 25-33c62-84 64-197 4-277-13-18-72-72-131-119-125-100-177-151-217-212l-28-45v736l128-4 127-4 46-21zm117-497c36-19 85-72 107-116l18-35 5-71 4-71-17-58-16-58-57-57-57-56-50-18-50-18-154-5-153-6 3 129 4 129 28 57 28 57 48 43c51 46 247 168 269 168 7 0 25-6 40-14z"/></g><g fill="#b9b9b9" transform="matrix(.1 0 0 -.1 0 300)"><path d="M1020 2120c0-5 7-10 16-10h16l34-34 34-34v-954l-34-34-34-34h-16c-9 0-16-4-16-10v-10h686l57 15c32 8 80 26 108 40l50 26 38 39c22 22 49 62 62 88l23 47v140l-21 46-20 46-36 35c-44 45-105 74-187 91l-64 13 52 33c61 39 119 100 138 147l14 33v106l-19 41-18 40-39 33-39 32-64 19-63 20h-658v-10zm548-20 49-11 38-31 38-32 18-40 19-41v-111l-27-55-28-54-107-85c-134-107-181-151-224-215l-34-50v735h209l49-10zm178-523 49-34 33-62 32-63v-165l-31-61-30-61-32-27c-18-15-57-39-87-53l-55-26-159-3-158-4 4 133 4 134 26 51 27 51 53 48c45 41 250 174 269 175 4 0 29-15 55-33z"/></g><g fill="#5b5b5b" transform="matrix(.1 0 0 -.1 0 300)"><path d="M1020 2120v-10h38l30-29 29-30 7-32c3-17 6-224 6-460v-429l-16-39-16-40-23-15c-14-9-31-16-40-16-8 0-15-4-15-10v-10h656l59 11c32 6 82 21 111 34l53 23 47 44 47 43 23 50 24 50v140l-24 51-23 50-43 37-43 37-51 19c-28 10-73 22-100 25l-48 8 66 44 66 45 30 40c16 22 34 56 41 76l11 35-4 48-5 48-27 46-27 45-45 27-46 27-57 13-56 14h-635v-10zm615-45 48-30 24-44 23-44v-128l-15-37c-21-49-40-69-177-179-122-98-168-147-212-223l-26-45v767l143-4 144-3 48-30zm111-497 48-33 28-45 28-46 11-60 11-61-11-58-11-58-25-43c-14-23-44-59-67-78l-42-36-64-20-64-20h-290l4 118 5 117 23 58 22 59 52 51 52 52 114 68c62 37 116 67 120 67s29-15 56-32z"/></g><g fill="#030202" transform="matrix(.1 0 0 -.1 0 300)"><path d="m1053 2110 38-21 19-32 20-32v-920l-20-32-19-32-38-20-38-20h310l310-1 67 10c36 5 92 19 122 31l56 20 48 38 47 38 29 52 28 53 6 63 5 62-17 49-16 50-30 36-31 37-63 31-63 31-59 5-59 6 30-19c17-11 47-38 67-61l37-41 17-57 16-58-4-67-5-67-22-45c-28-59-81-112-141-142l-49-25-68-10c-37-5-117-10-177-10h-108l4 133 5 132 21 47 21 47 41 45 42 45 76 49c43 27 102 63 133 79 168 90 253 173 274 271l7 33-12 51-13 50-41 43-41 42-60 24-60 23-340 3-340 3 38-20zm555-15 42-17 35-40 34-41 12-54 12-54-12-52-12-52-25-37-26-37-101-80c-56-44-125-103-154-133l-52-53-30-55-31-55v788l133-5 132-5 43-18z"/></g></g></svg>
