<svg id="svg" version="1.1" xmlns="http://www.w3.org/2000/svg" xmlns:xlink="http://www.w3.org/1999/xlink" width="400" height="400" viewBox="0, 0, 400,400"><g id="svgg"><path id="path0" d="M192.400 77.654 C 182.072 78.711,177.193 81.119,184.404 81.600 L 187.400 81.800 187.817 84.400 L 188.234 87.000 189.617 86.940 C 190.378 86.906,193.713 86.744,197.029 86.580 C 201.107 86.377,204.521 86.442,207.581 86.780 C 212.721 87.348,212.784 87.321,212.794 84.533 C 212.804 81.731,212.950 81.600,216.055 81.600 C 218.950 81.600,219.831 81.042,218.833 79.840 C 217.358 78.063,201.347 76.739,192.400 77.654 M99.263 140.244 C 94.686 142.524,93.878 144.854,94.062 155.248 L 94.200 163.065 95.414 165.032 C 96.235 166.362,97.337 167.425,98.814 168.310 L 100.998 169.620 106.799 169.510 L 112.600 169.400 112.800 156.000 C 112.910 148.630,112.910 141.880,112.800 141.000 L 112.600 139.400 106.999 139.290 C 101.626 139.184,101.312 139.222,99.263 140.244 M287.467 139.467 C 287.135 139.799,287.121 167.464,287.452 168.700 C 287.809 170.030,297.794 170.077,300.593 168.761 C 305.230 166.581,306.126 164.164,306.135 153.800 C 306.144 144.385,305.212 142.039,300.641 139.963 C 298.979 139.208,288.134 138.800,287.467 139.467 M86.920 153.200 C 86.920 154.410,86.995 154.905,87.087 154.300 C 87.178 153.695,87.178 152.705,87.087 152.100 C 86.995 151.495,86.920 151.990,86.920 153.200 M137.701 155.400 C 137.705 156.280,137.787 156.593,137.883 156.095 C 137.979 155.598,137.975 154.878,137.875 154.495 C 137.775 154.113,137.696 154.520,137.701 155.400 M312.900 158.569 C 312.900 159.280,313.036 159.524,313.291 159.269 C 313.547 159.013,313.547 158.634,313.291 158.178 C 312.961 157.587,312.900 157.648,312.900 158.569 M160.808 189.897 C 155.865 192.392,156.441 199.978,161.726 201.975 C 163.824 202.767,237.368 202.548,239.062 201.744 C 243.250 199.756,244.025 194.120,240.570 190.771 L 239.156 189.400 200.678 189.297 C 164.653 189.201,162.111 189.240,160.808 189.897 M133.505 212.283 C 134.002 212.379,134.722 212.375,135.105 212.275 C 135.487 212.175,135.080 212.096,134.200 212.101 C 133.320 212.105,133.007 212.187,133.505 212.283 M166.298 216.779 C 160.127 220.692,160.753 229.827,167.400 232.854 C 174.586 236.127,182.464 228.271,179.385 220.902 C 177.324 215.971,170.809 213.918,166.298 216.779 M142.901 219.000 C 142.905 219.880,142.987 220.193,143.083 219.695 C 143.179 219.198,143.175 218.478,143.075 218.095 C 142.975 217.713,142.896 218.120,142.901 219.000 M315.600 223.000 C 316.346 223.770,317.047 224.400,317.157 224.400 C 317.267 224.400,316.746 223.770,316.000 223.000 C 315.254 222.230,314.553 221.600,314.443 221.600 C 314.333 221.600,314.854 222.230,315.600 223.000 M78.433 227.700 C 78.525 227.755,79.140 228.250,79.800 228.800 L 81.000 229.800 80.030 228.700 C 79.497 228.095,78.882 227.600,78.664 227.600 C 78.445 227.600,78.342 227.645,78.433 227.700 M70.226 234.700 C 69.362 235.805,69.293 235.990,69.963 235.404 C 70.765 234.704,71.823 233.200,71.514 233.200 C 71.451 233.200,70.872 233.875,70.226 234.700 M67.200 239.758 C 67.200 239.853,68.014 240.387,69.009 240.943 C 70.005 241.499,70.712 241.782,70.582 241.571 C 70.323 241.152,67.200 239.477,67.200 239.758 M207.867 245.467 C 207.246 246.087,207.576 259.119,208.229 259.771 C 208.939 260.482,238.056 260.732,239.155 260.037 C 239.939 259.539,240.348 246.701,239.607 245.808 C 239.078 245.171,208.492 244.842,207.867 245.467 M75.200 259.359 C 75.200 259.651,78.910 261.623,79.101 261.433 C 79.199 261.334,78.362 260.789,77.240 260.220 C 76.118 259.652,75.200 259.264,75.200 259.359 M182.643 275.433 C 181.977 277.167,182.395 281.950,183.300 282.961 C 184.401 284.191,184.934 284.222,202.918 284.092 L 215.636 284.000 216.618 283.018 C 217.959 281.678,218.113 275.902,216.826 275.214 C 215.408 274.455,182.938 274.663,182.643 275.433 M196.173 309.141 C 189.491 310.347,182.873 317.586,182.170 324.459 C 181.781 328.258,180.707 328.052,200.100 327.893 C 219.168 327.738,218.168 327.920,217.901 324.638 C 217.101 314.848,206.490 307.279,196.173 309.141 M198.700 350.289 C 199.415 350.378,200.585 350.378,201.300 350.289 C 202.015 350.201,201.430 350.128,200.000 350.128 C 198.570 350.128,197.985 350.201,198.700 350.289 " stroke="none" fill="#1ca7da" fill-rule="evenodd"></path><path id="path1" d="M171.400 82.809 C 150.866 91.594,135.830 106.744,128.028 126.510 C 126.298 130.892,126.333 131.062,129.000 131.283 C 131.926 131.526,131.813 131.187,131.272 138.108 C 130.700 145.434,130.670 148.800,131.176 148.800 C 131.795 148.800,131.976 148.234,132.416 144.941 C 135.829 119.388,154.642 97.387,179.904 89.406 C 185.108 87.762,184.727 86.213,179.182 86.477 L 176.600 86.600 176.400 84.200 C 176.151 81.217,175.527 81.043,171.400 82.809 M224.394 83.700 C 224.385 86.691,224.146 86.926,221.462 86.590 C 215.246 85.814,215.620 87.821,222.066 89.832 C 246.658 97.505,264.479 119.507,268.613 147.300 C 268.764 148.317,269.043 148.800,269.477 148.800 C 270.038 148.800,270.085 148.337,269.854 145.100 C 269.709 143.065,269.476 139.223,269.337 136.562 L 269.084 131.723 270.392 131.462 C 271.111 131.318,272.127 131.200,272.650 131.200 C 274.203 131.200,274.071 130.024,271.945 124.918 C 264.096 106.057,248.266 90.541,228.807 82.634 C 224.876 81.037,224.401 81.152,224.394 83.700 M198.912 92.695 C 199.964 92.777,201.584 92.776,202.512 92.692 C 203.440 92.608,202.580 92.541,200.600 92.542 C 198.620 92.543,197.860 92.612,198.912 92.695 M191.000 93.220 C 190.211 93.435,190.622 93.470,192.200 93.323 C 193.520 93.200,194.675 93.032,194.767 92.950 C 195.064 92.682,192.234 92.885,191.000 93.220 M206.305 93.083 C 206.802 93.179,207.522 93.175,207.905 93.075 C 208.287 92.975,207.880 92.896,207.000 92.901 C 206.120 92.905,205.807 92.987,206.305 93.083 M212.400 94.000 C 212.950 94.176,213.760 94.320,214.200 94.320 C 214.833 94.320,214.792 94.254,214.000 94.000 C 213.450 93.824,212.640 93.680,212.200 93.680 C 211.567 93.680,211.608 93.746,212.400 94.000 M174.400 98.200 C 173.850 98.514,173.580 98.772,173.800 98.772 C 174.020 98.772,174.650 98.514,175.200 98.200 C 175.750 97.886,176.020 97.628,175.800 97.628 C 175.580 97.628,174.950 97.886,174.400 98.200 M226.433 98.551 C 226.842 98.921,230.000 100.395,230.000 100.216 C 230.000 99.989,226.981 98.400,226.549 98.400 C 226.394 98.400,226.342 98.468,226.433 98.551 M169.400 100.721 C 166.645 102.245,162.689 104.969,161.984 105.827 C 161.663 106.218,162.300 105.853,163.399 105.017 C 164.498 104.180,166.793 102.685,168.499 101.694 C 170.205 100.703,171.600 99.826,171.600 99.746 C 171.600 99.514,171.508 99.555,169.400 100.721 M230.800 100.820 C 232.187 101.761,232.978 102.035,232.000 101.236 C 231.450 100.786,230.820 100.417,230.600 100.415 C 230.380 100.413,230.470 100.596,230.800 100.820 M235.200 103.327 C 235.200 103.424,236.235 104.281,237.500 105.230 C 238.765 106.179,239.583 106.687,239.318 106.359 C 238.775 105.685,235.200 103.054,235.200 103.327 M244.775 111.816 C 250.162 117.450,250.424 117.710,249.389 116.401 C 247.694 114.256,244.164 110.515,242.230 108.816 C 241.114 107.834,242.259 109.184,244.775 111.816 M156.187 110.900 L 153.800 113.400 156.300 111.013 C 158.622 108.795,158.983 108.400,158.687 108.400 C 158.626 108.400,157.501 109.525,156.187 110.900 M252.037 120.696 C 254.204 124.016,254.818 124.801,253.993 123.200 C 253.298 121.849,250.414 117.600,250.193 117.600 C 250.096 117.600,250.926 118.993,252.037 120.696 M147.449 121.700 C 145.988 123.989,143.595 128.590,143.608 129.089 C 143.612 129.260,144.498 127.737,145.577 125.705 C 146.656 123.673,147.925 121.468,148.396 120.805 C 148.868 120.142,149.150 119.600,149.022 119.600 C 148.895 119.600,148.187 120.545,147.449 121.700 M255.000 125.600 C 255.341 126.260,255.711 126.800,255.821 126.800 C 255.931 126.800,255.741 126.260,255.400 125.600 C 255.059 124.940,254.689 124.400,254.579 124.400 C 254.469 124.400,254.659 124.940,255.000 125.600 M168.033 124.944 C 168.125 125.023,169.460 125.184,171.000 125.301 C 172.627 125.425,173.381 125.381,172.800 125.197 C 171.811 124.883,167.712 124.666,168.033 124.944 M229.705 125.087 C 230.314 125.179,231.214 125.177,231.705 125.082 C 232.197 124.987,231.700 124.911,230.600 124.914 C 229.500 124.917,229.097 124.995,229.705 125.087 M235.400 126.265 C 236.060 126.613,237.049 127.280,237.597 127.749 L 238.594 128.600 237.798 127.659 C 237.023 126.743,235.163 125.584,234.520 125.616 C 234.344 125.625,234.740 125.917,235.400 126.265 M222.255 128.783 C 221.235 129.873,220.400 130.893,220.400 131.050 C 220.400 131.206,220.457 131.258,220.527 131.167 C 220.597 131.075,221.522 130.055,222.582 128.900 C 223.642 127.745,224.419 126.800,224.309 126.800 C 224.199 126.800,223.275 127.692,222.255 128.783 M178.247 129.000 C 180.149 131.514,180.609 132.015,180.084 131.000 C 179.856 130.560,179.009 129.480,178.202 128.600 L 176.734 127.000 178.247 129.000 M239.599 129.900 C 240.122 130.615,240.613 131.200,240.689 131.200 C 240.993 131.200,240.001 129.700,239.345 129.167 C 238.913 128.816,239.010 129.096,239.599 129.900 M256.828 129.000 C 256.828 129.220,257.086 129.850,257.400 130.400 C 257.714 130.950,257.972 131.220,257.972 131.000 C 257.972 130.780,257.714 130.150,257.400 129.600 C 257.086 129.050,256.828 128.780,256.828 129.000 M167.292 133.021 C 166.805 133.362,166.213 134.037,165.976 134.521 L 165.546 135.400 166.273 134.512 C 166.673 134.023,167.360 133.354,167.800 133.025 C 168.861 132.230,168.425 132.227,167.292 133.021 M172.600 133.424 C 173.260 134.084,174.034 134.979,174.321 135.412 C 174.608 135.845,174.518 135.591,174.121 134.846 C 173.724 134.101,172.950 133.206,172.400 132.857 C 171.532 132.307,171.558 132.381,172.600 133.424 M227.496 133.500 C 226.465 134.576,224.991 137.524,225.319 137.852 C 225.410 137.943,225.793 137.209,226.171 136.220 C 226.549 135.232,227.398 133.968,228.059 133.411 C 228.721 132.855,229.101 132.400,228.906 132.400 C 228.710 132.400,228.076 132.895,227.496 133.500 M232.476 132.819 C 232.848 133.036,233.611 133.795,234.172 134.506 C 234.732 135.218,235.193 135.671,235.196 135.514 C 235.203 135.008,232.733 132.400,232.259 132.412 C 232.006 132.419,232.104 132.602,232.476 132.819 M242.456 135.600 C 242.456 135.930,242.611 136.560,242.800 137.000 C 243.017 137.504,243.144 137.578,243.144 137.200 C 243.144 136.870,242.989 136.240,242.800 135.800 C 242.583 135.296,242.456 135.222,242.456 135.600 M164.846 136.839 C 164.601 137.543,164.412 138.408,164.427 138.760 C 164.441 139.112,164.704 138.597,165.009 137.616 C 165.649 135.562,165.515 134.922,164.846 136.839 M124.782 137.048 C 122.737 142.427,122.238 160.958,123.921 169.000 C 125.323 175.698,127.749 179.070,132.451 180.856 C 134.891 181.783,264.176 182.042,267.354 181.125 C 273.489 179.356,275.914 175.189,277.420 163.825 C 278.734 153.915,277.059 135.641,274.878 136.089 C 274.077 136.254,274.072 137.305,274.825 146.939 C 275.399 154.284,275.532 153.984,271.700 153.994 L 269.200 154.000 269.193 155.500 C 269.162 162.265,265.396 168.491,259.629 171.313 L 257.000 172.600 200.400 172.600 L 143.800 172.600 141.487 171.516 C 135.380 168.654,132.388 164.196,131.665 156.876 L 131.400 154.200 128.800 154.086 C 125.003 153.919,125.203 154.988,126.223 140.300 C 126.534 135.816,125.843 134.256,124.782 137.048 M174.856 136.800 C 174.856 137.130,175.011 137.760,175.200 138.200 C 175.417 138.704,175.544 138.778,175.544 138.400 C 175.544 138.070,175.389 137.440,175.200 137.000 C 174.983 136.496,174.856 136.422,174.856 136.800 M235.668 137.200 C 235.688 138.239,236.318 139.946,236.332 139.000 C 236.338 138.560,236.189 137.840,236.000 137.400 C 235.789 136.910,235.661 136.832,235.668 137.200 M139.829 139.429 C 139.681 140.015,139.638 140.572,139.732 140.666 C 139.827 140.760,140.024 140.358,140.171 139.771 C 140.319 139.185,140.362 138.628,140.268 138.534 C 140.173 138.440,139.976 138.842,139.829 139.429 M243.328 140.800 C 243.328 142.230,243.401 142.815,243.489 142.100 C 243.578 141.385,243.578 140.215,243.489 139.500 C 243.401 138.785,243.328 139.370,243.328 140.800 M217.661 140.824 C 217.620 142.326,217.804 143.299,218.230 143.824 C 218.576 144.251,218.712 144.330,218.531 144.000 C 218.351 143.670,218.095 142.320,217.963 141.000 L 217.722 138.600 217.661 140.824 M224.901 140.200 C 224.905 141.080,224.987 141.393,225.083 140.895 C 225.179 140.398,225.175 139.678,225.075 139.295 C 224.975 138.913,224.896 139.320,224.901 140.200 M156.856 140.846 C 156.794 142.876,157.919 144.820,159.129 144.775 C 159.630 144.756,159.582 144.661,158.941 144.403 C 157.768 143.929,157.456 143.332,157.163 141.000 L 156.913 139.000 156.856 140.846 M175.709 141.200 C 175.709 142.190,175.787 142.595,175.882 142.100 C 175.978 141.605,175.978 140.795,175.882 140.300 C 175.787 139.805,175.709 140.210,175.709 141.200 M164.064 141.126 C 163.982 142.829,163.374 143.947,162.274 144.422 C 161.571 144.726,161.548 144.780,162.158 144.700 C 163.387 144.538,164.484 142.723,164.294 141.164 L 164.128 139.800 164.064 141.126 M262.109 148.400 C 262.109 149.390,262.187 149.795,262.282 149.300 C 262.378 148.805,262.378 147.995,262.282 147.500 C 262.187 147.005,262.109 147.410,262.109 148.400 M312.800 150.200 C 312.800 150.530,312.980 150.800,313.200 150.800 C 313.420 150.800,313.600 150.530,313.600 150.200 C 313.600 149.870,313.420 149.600,313.200 149.600 C 312.980 149.600,312.800 149.870,312.800 150.200 M138.109 151.600 C 138.109 152.590,138.187 152.995,138.282 152.500 C 138.378 152.005,138.378 151.195,138.282 150.700 C 138.187 150.205,138.109 150.610,138.109 151.600 M262.542 154.600 C 262.541 156.580,262.608 157.440,262.692 156.512 C 262.776 155.584,262.777 153.964,262.695 152.912 C 262.612 151.860,262.543 152.620,262.542 154.600 M312.800 153.600 C 312.800 154.920,312.950 156.000,313.133 156.000 C 313.317 156.000,313.467 154.920,313.467 153.600 C 313.467 152.280,313.317 151.200,313.133 151.200 C 312.950 151.200,312.800 152.280,312.800 153.600 M86.493 153.200 C 86.493 153.970,86.575 154.285,86.676 153.900 C 86.776 153.515,86.776 152.885,86.676 152.500 C 86.575 152.115,86.493 152.430,86.493 153.200 M312.942 157.764 C 312.974 158.292,313.135 158.640,313.300 158.538 C 313.715 158.282,313.677 157.295,313.242 157.026 C 313.046 156.905,312.911 157.237,312.942 157.764 M262.046 158.916 C 261.961 160.238,260.436 162.712,258.912 164.003 C 258.080 164.707,257.760 165.100,258.200 164.876 C 260.103 163.908,262.620 160.196,262.271 158.873 C 262.113 158.278,262.087 158.283,262.046 158.916 M140.400 163.395 C 140.400 163.715,144.076 166.001,144.578 165.993 C 144.810 165.990,144.280 165.550,143.400 165.017 C 142.520 164.483,141.485 163.850,141.100 163.609 C 140.715 163.369,140.400 163.272,140.400 163.395 M145.700 166.276 C 146.085 166.376,146.715 166.376,147.100 166.276 C 147.485 166.175,147.170 166.093,146.400 166.093 C 145.630 166.093,145.315 166.175,145.700 166.276 M155.712 166.295 C 156.764 166.377,158.384 166.376,159.312 166.292 C 160.240 166.208,159.380 166.141,157.400 166.142 C 155.420 166.143,154.660 166.212,155.712 166.295 M185.300 166.300 C 196.025 166.359,213.575 166.359,224.300 166.300 C 235.025 166.241,226.250 166.192,204.800 166.192 C 183.350 166.192,174.575 166.241,185.300 166.300 M251.907 166.290 C 252.626 166.379,253.706 166.377,254.307 166.286 C 254.908 166.195,254.320 166.122,253.000 166.124 C 251.680 166.126,251.188 166.201,251.907 166.290 M329.843 167.033 C 329.450 168.055,329.562 168.205,330.133 167.423 C 331.452 165.620,335.000 168.128,333.883 170.074 C 333.508 170.729,333.200 171.473,333.200 171.726 C 333.200 171.980,333.560 171.516,334.000 170.696 C 335.131 168.585,335.022 168.179,333.074 167.236 C 331.009 166.236,330.169 166.183,329.843 167.033 M326.449 173.600 C 325.530 175.360,324.857 176.800,324.953 176.800 C 325.150 176.800,327.717 172.173,328.115 171.100 C 328.672 169.599,328.047 170.538,326.449 173.600 M328.229 180.428 C 326.613 182.870,326.901 183.470,330.600 185.373 C 332.360 186.278,335.385 187.884,337.322 188.942 C 343.411 192.268,345.238 193.185,344.998 192.797 C 344.870 192.590,343.288 191.677,341.483 190.770 C 339.677 189.862,338.020 188.984,337.800 188.819 C 337.580 188.654,335.420 187.481,333.000 186.212 C 327.037 183.084,327.147 183.217,328.500 180.781 C 329.833 178.380,329.699 178.206,328.229 180.428 M355.017 182.441 C 354.429 183.564,354.011 184.544,354.087 184.620 C 354.162 184.695,354.664 183.912,355.202 182.879 C 355.740 181.845,356.365 180.868,356.590 180.706 C 356.859 180.513,356.842 180.410,356.542 180.406 C 356.290 180.403,355.604 181.319,355.017 182.441 M358.000 181.164 C 358.550 181.614,359.180 181.983,359.400 181.985 C 359.828 181.988,359.105 181.434,357.800 180.760 C 357.269 180.485,357.336 180.621,358.000 181.164 M320.606 184.787 C 319.824 186.521,320.099 187.324,321.643 187.814 C 322.068 187.948,323.578 188.765,325.000 189.629 C 327.475 191.133,328.592 191.616,327.780 190.833 C 327.571 190.632,326.590 190.028,325.600 189.492 C 319.655 186.275,320.034 186.668,321.029 184.743 C 321.376 184.073,321.584 183.451,321.492 183.359 C 321.400 183.267,321.002 183.910,320.606 184.787 M358.932 185.724 C 357.987 187.144,356.549 189.940,356.964 189.552 C 357.404 189.141,360.023 184.689,359.898 184.565 C 359.834 184.501,359.400 185.023,358.932 185.724 M352.955 186.212 C 352.590 186.769,352.370 187.304,352.467 187.400 C 352.563 187.497,352.958 187.041,353.344 186.388 C 354.198 184.942,353.881 184.799,352.955 186.212 M350.786 190.224 C 350.087 191.447,349.580 192.513,349.660 192.593 C 349.740 192.674,350.397 191.673,351.119 190.370 C 351.841 189.066,352.348 188.000,352.245 188.000 C 352.143 188.000,351.486 189.001,350.786 190.224 M329.180 191.900 C 330.028 192.519,335.045 195.241,343.800 199.832 C 345.340 200.640,347.078 201.638,347.662 202.050 C 349.130 203.087,349.309 203.029,350.567 201.100 L 351.676 199.400 350.638 200.370 C 350.067 200.903,349.600 201.578,349.600 201.870 C 349.600 202.571,349.482 202.550,347.712 201.521 C 346.880 201.038,345.120 200.063,343.800 199.355 C 342.480 198.647,340.410 197.515,339.200 196.839 C 337.990 196.163,335.380 194.789,333.400 193.784 C 331.420 192.780,329.629 191.788,329.420 191.579 C 329.211 191.371,328.856 191.200,328.631 191.200 C 328.406 191.200,328.653 191.515,329.180 191.900 M319.464 193.895 C 317.793 196.646,317.859 197.576,319.800 198.618 C 320.680 199.090,323.470 200.608,326.000 201.990 C 340.962 210.163,341.233 210.244,342.766 206.984 C 344.161 204.014,344.684 204.517,334.800 199.320 C 332.490 198.105,330.060 196.793,329.400 196.404 C 327.338 195.189,321.136 191.999,320.862 192.013 C 320.718 192.020,320.089 192.867,319.464 193.895 M354.614 193.435 C 354.241 194.004,354.005 194.538,354.089 194.622 C 354.173 194.707,354.558 194.241,354.944 193.588 C 355.806 192.128,355.548 192.009,354.614 193.435 M348.980 193.561 C 348.771 193.760,348.240 194.009,347.800 194.115 C 347.041 194.297,347.044 194.310,347.851 194.354 C 348.319 194.379,348.926 194.130,349.200 193.800 C 349.743 193.146,349.591 192.981,348.980 193.561 M316.527 204.909 C 314.726 206.723,312.525 208.745,311.636 209.403 C 310.747 210.061,310.015 210.748,310.009 210.929 C 309.994 211.469,316.880 205.400,318.520 203.428 C 320.670 200.842,320.265 201.143,316.527 204.909 M321.246 202.317 C 321.771 202.712,324.285 204.357,326.832 205.973 C 333.638 210.290,333.123 209.761,332.012 211.299 L 331.073 212.600 332.137 211.630 C 332.721 211.097,333.200 210.359,333.200 209.990 C 333.200 209.396,329.648 206.800,328.835 206.800 C 328.664 206.800,328.198 206.440,327.800 206.000 C 327.402 205.560,326.899 205.200,326.683 205.200 C 326.467 205.200,325.061 204.390,323.558 203.400 C 320.842 201.611,319.422 200.946,321.246 202.317 M157.255 209.348 C 151.765 211.335,151.219 213.075,151.209 228.654 L 151.200 241.508 163.700 241.782 C 170.575 241.932,179.800 241.998,184.200 241.928 L 192.200 241.800 192.313 236.607 C 192.375 233.751,192.609 231.231,192.832 231.007 C 193.097 230.743,202.998 230.530,221.120 230.400 L 249.000 230.200 249.109 223.115 C 249.254 213.738,247.753 210.539,242.599 209.242 C 239.980 208.582,159.093 208.682,157.255 209.348 M176.487 211.904 C 185.477 215.904,187.662 227.424,180.743 234.343 C 173.886 241.200,161.886 238.961,158.200 230.138 C 153.432 218.728,165.278 206.917,176.487 211.904 M311.200 212.393 C 311.750 212.867,313.370 214.282,314.800 215.537 C 323.010 222.742,321.734 222.442,326.142 218.200 C 328.085 216.330,329.517 214.800,329.326 214.800 C 329.134 214.800,327.812 215.983,326.388 217.430 C 322.522 221.358,322.161 221.479,319.983 219.576 C 313.825 214.195,312.476 213.057,311.400 212.335 L 310.200 211.531 311.200 212.393 M120.254 212.284 C 122.636 212.431,122.714 212.472,122.956 213.682 C 123.093 214.367,123.288 214.845,123.390 214.744 C 124.496 213.638,122.811 212.198,120.373 212.166 L 117.800 212.133 120.254 212.284 M129.507 212.290 C 130.226 212.379,131.306 212.377,131.907 212.286 C 132.508 212.195,131.920 212.122,130.600 212.124 C 129.280 212.126,128.788 212.201,129.507 212.290 M112.800 212.800 L 111.400 213.095 112.800 213.100 C 113.570 213.103,114.740 212.968,115.400 212.800 L 116.600 212.495 115.400 212.500 C 114.740 212.503,113.570 212.638,112.800 212.800 M138.500 213.076 C 138.885 213.176,139.515 213.176,139.900 213.076 C 140.285 212.975,139.970 212.893,139.200 212.893 C 138.430 212.893,138.115 212.975,138.500 213.076 M108.200 213.600 L 107.400 213.944 108.200 213.944 C 108.640 213.944,109.360 213.789,109.800 213.600 L 110.600 213.256 109.800 213.256 C 109.360 213.256,108.640 213.411,108.200 213.600 M142.657 213.635 C 142.908 213.946,143.211 214.560,143.329 215.000 C 143.464 215.503,143.517 215.365,143.472 214.631 C 143.432 213.988,143.130 213.374,142.800 213.266 C 142.328 213.112,142.298 213.191,142.657 213.635 M106.013 214.500 C 106.027 215.065,108.331 219.958,108.373 219.512 C 108.388 219.353,107.942 218.223,107.383 217.001 C 106.824 215.778,106.475 214.603,106.607 214.389 C 106.739 214.175,106.657 214.000,106.424 214.000 C 106.191 214.000,106.006 214.225,106.013 214.500 M308.499 216.765 C 310.094 218.286,312.549 220.632,313.954 221.978 C 315.359 223.324,316.581 224.353,316.670 224.264 C 316.844 224.089,306.173 214.000,305.814 214.000 C 305.695 214.000,306.903 215.244,308.499 216.765 M123.616 215.854 C 123.607 216.104,123.863 216.914,124.184 217.654 C 124.506 218.394,124.776 218.796,124.784 218.546 C 124.793 218.296,124.537 217.486,124.216 216.746 C 123.894 216.006,123.624 215.604,123.616 215.854 M96.483 217.069 C 95.098 217.635,94.038 218.171,94.126 218.259 C 94.214 218.348,95.142 218.054,96.187 217.606 C 99.142 216.339,100.454 216.372,101.119 217.730 C 101.424 218.352,101.760 218.774,101.866 218.667 C 101.972 218.561,101.771 217.918,101.419 217.237 C 100.631 215.713,99.860 215.687,96.483 217.069 M296.000 217.800 C 295.230 218.097,294.870 218.345,295.200 218.352 C 295.530 218.358,296.340 218.117,297.000 217.814 C 298.545 217.107,297.826 217.097,296.000 217.800 M91.900 219.029 C 90.349 219.870,90.525 220.161,92.100 219.359 C 93.608 218.593,93.875 218.394,93.367 218.416 C 93.165 218.425,92.505 218.701,91.900 219.029 M293.283 218.900 C 292.824 219.453,293.797 222.336,294.279 221.854 C 294.426 221.707,294.334 221.374,294.073 221.113 C 293.450 220.490,293.467 218.920,294.100 218.665 C 294.414 218.538,294.432 218.451,294.149 218.432 C 293.901 218.414,293.511 218.625,293.283 218.900 M87.327 221.332 C 85.967 222.034,84.375 223.025,83.790 223.534 L 82.725 224.459 84.263 225.786 C 85.108 226.516,87.330 228.556,89.200 230.320 C 91.070 232.084,92.671 233.458,92.757 233.374 C 92.910 233.223,87.009 227.524,84.762 225.652 C 83.172 224.328,83.737 223.500,87.424 221.750 C 90.125 220.468,90.927 219.952,90.100 220.027 C 89.935 220.043,88.687 220.630,87.327 221.332 M259.066 220.300 C 258.967 220.465,259.901 220.623,261.143 220.650 C 262.888 220.689,263.128 220.632,262.200 220.398 C 260.551 219.981,259.282 219.942,259.066 220.300 M142.200 222.800 C 142.045 223.928,142.002 224.936,142.106 225.039 C 142.209 225.142,142.416 224.300,142.567 223.167 C 142.717 222.034,142.759 221.026,142.661 220.928 C 142.563 220.829,142.355 221.672,142.200 222.800 M265.795 221.097 C 266.672 221.186,267.662 221.471,267.995 221.730 C 268.523 222.140,268.530 222.111,268.051 221.500 C 267.667 221.010,267.007 220.820,265.851 220.867 L 264.200 220.934 265.795 221.097 M276.200 221.171 C 273.575 221.386,273.394 221.463,273.304 222.400 C 273.209 223.385,273.214 223.387,273.591 222.500 C 273.916 221.738,274.298 221.593,276.087 221.557 C 277.249 221.533,279.280 221.379,280.600 221.215 L 283.000 220.918 281.000 220.929 C 279.900 220.936,277.740 221.044,276.200 221.171 M258.233 223.633 C 258.083 224.766,258.041 225.774,258.139 225.872 C 258.237 225.971,258.445 225.128,258.600 224.000 C 258.755 222.872,258.798 221.864,258.694 221.761 C 258.591 221.658,258.384 222.500,258.233 223.633 M103.636 222.200 C 103.636 222.420,104.070 223.410,104.600 224.400 C 105.130 225.390,105.564 226.020,105.564 225.800 C 105.564 225.580,105.130 224.590,104.600 223.600 C 104.070 222.610,103.636 221.980,103.636 222.200 M125.656 222.400 C 125.656 222.730,125.811 223.360,126.000 223.800 C 126.217 224.304,126.344 224.378,126.344 224.000 C 126.344 223.670,126.189 223.040,126.000 222.600 C 125.783 222.096,125.656 222.022,125.656 222.400 M268.456 223.200 C 268.456 223.530,268.611 224.160,268.800 224.600 C 269.017 225.104,269.144 225.178,269.144 224.800 C 269.144 224.470,268.989 223.840,268.800 223.400 C 268.583 222.896,268.456 222.822,268.456 223.200 M110.034 223.689 C 109.954 224.360,111.933 228.249,112.635 228.800 C 113.354 229.364,113.364 229.355,112.800 228.649 C 112.470 228.236,111.720 226.886,111.134 225.649 C 110.548 224.412,110.053 223.530,110.034 223.689 M295.228 224.200 C 295.228 224.420,295.486 225.050,295.800 225.600 C 296.114 226.150,296.372 226.420,296.372 226.200 C 296.372 225.980,296.114 225.350,295.800 224.800 C 295.486 224.250,295.228 223.980,295.228 224.200 M316.102 225.432 C 315.388 225.995,312.688 227.531,310.102 228.845 C 307.516 230.160,305.823 231.120,306.340 230.978 C 307.483 230.665,310.959 229.061,312.600 228.090 C 313.260 227.700,314.655 226.872,315.700 226.252 C 316.745 225.632,317.600 224.961,317.600 224.762 C 317.600 224.263,317.566 224.278,316.102 225.432 M131.606 225.433 C 131.609 225.855,131.795 226.470,132.018 226.800 C 132.315 227.238,132.352 227.076,132.156 226.200 C 131.827 224.729,131.598 224.410,131.606 225.433 M327.600 226.922 L 326.600 228.200 327.878 227.200 C 329.104 226.241,329.535 225.575,328.900 225.622 C 328.735 225.634,328.150 226.219,327.600 226.922 M269.462 227.000 C 270.304 231.093,270.719 232.529,270.735 231.400 C 270.744 230.740,270.406 229.210,269.983 228.000 C 269.561 226.790,269.326 226.340,269.462 227.000 M106.200 227.600 C 106.541 228.260,106.911 228.800,107.021 228.800 C 107.131 228.800,106.941 228.260,106.600 227.600 C 106.259 226.940,105.889 226.400,105.779 226.400 C 105.669 226.400,105.859 226.940,106.200 227.600 M141.654 227.300 C 141.596 228.474,141.470 228.530,139.000 228.478 L 137.400 228.443 139.191 228.816 C 141.279 229.251,142.181 228.694,141.889 227.151 C 141.723 226.272,141.705 226.283,141.654 227.300 M290.812 226.400 C 290.806 226.510,291.168 227.590,291.616 228.800 C 292.065 230.010,292.519 231.251,292.625 231.557 C 292.732 231.864,292.901 232.032,293.002 231.931 C 293.207 231.726,291.968 228.171,291.274 226.975 C 291.027 226.549,290.819 226.290,290.812 226.400 M296.986 227.900 C 297.335 228.615,297.706 229.200,297.810 229.200 C 298.208 229.200,297.952 228.563,297.167 227.600 L 296.352 226.600 296.986 227.900 M76.726 228.700 C 74.673 230.332,72.400 232.533,72.400 232.888 C 72.400 233.060,72.722 232.885,73.116 232.500 C 73.510 232.115,74.875 230.855,76.149 229.700 C 78.659 227.423,78.937 226.943,76.726 228.700 M121.500 227.893 C 122.435 227.977,123.965 227.977,124.900 227.893 C 125.835 227.809,125.070 227.740,123.200 227.740 C 121.330 227.740,120.565 227.809,121.500 227.893 M257.429 230.029 C 257.276 231.379,257.233 232.566,257.333 232.667 C 257.434 232.767,257.644 231.747,257.800 230.400 C 257.956 229.053,257.999 227.866,257.895 227.762 C 257.791 227.658,257.581 228.678,257.429 230.029 M274.868 228.000 C 274.888 229.039,275.518 230.746,275.532 229.800 C 275.538 229.360,275.389 228.640,275.200 228.200 C 274.989 227.710,274.861 227.632,274.868 228.000 M78.953 228.318 C 79.434 229.106,83.208 232.002,83.736 231.988 C 83.991 231.981,83.840 231.773,83.400 231.525 C 82.960 231.277,81.708 230.337,80.618 229.437 C 79.528 228.537,78.779 228.033,78.953 228.318 M117.505 228.283 C 118.002 228.379,118.722 228.375,119.105 228.275 C 119.487 228.175,119.080 228.096,118.200 228.101 C 117.320 228.105,117.007 228.187,117.505 228.283 M134.705 228.283 C 135.202 228.379,135.922 228.375,136.305 228.275 C 136.687 228.175,136.280 228.096,135.400 228.101 C 134.520 228.105,134.207 228.187,134.705 228.283 M114.305 228.683 C 114.802 228.779,115.522 228.775,115.905 228.675 C 116.287 228.575,115.880 228.496,115.000 228.501 C 114.120 228.505,113.807 228.587,114.305 228.683 M102.129 231.730 C 100.084 232.486,100.090 232.857,102.136 232.160 C 103.161 231.811,104.000 231.452,104.000 231.362 C 104.000 231.119,103.537 231.210,102.129 231.730 M298.827 231.424 C 298.772 232.281,299.857 233.286,300.626 233.090 C 301.341 232.908,301.336 232.889,300.561 232.846 C 300.100 232.821,299.527 232.395,299.288 231.900 C 299.049 231.405,298.842 231.191,298.827 231.424 M84.000 232.473 C 87.897 236.009,88.580 236.552,87.000 234.855 C 86.120 233.910,85.040 232.947,84.600 232.714 C 84.160 232.482,83.890 232.373,84.000 232.473 M293.214 232.526 C 293.206 232.706,293.399 233.224,293.641 233.677 C 293.980 234.310,293.957 234.581,293.541 234.845 C 293.121 235.111,293.156 235.189,293.700 235.194 C 294.085 235.197,294.394 234.975,294.386 234.700 C 294.370 234.130,293.236 232.027,293.214 232.526 M270.834 233.400 C 270.822 233.840,270.987 234.470,271.200 234.800 C 271.714 235.595,271.714 234.596,271.200 233.400 L 270.856 232.600 270.834 233.400 M93.762 234.300 C 94.646 235.344,95.530 235.440,96.624 234.612 C 97.327 234.079,97.280 234.068,96.120 234.492 C 95.013 234.897,94.716 234.855,93.920 234.180 L 93.000 233.400 93.762 234.300 M69.187 236.416 C 68.258 237.525,67.566 238.491,67.649 238.563 C 67.732 238.634,68.574 237.727,69.519 236.547 C 71.695 233.829,71.437 233.728,69.187 236.416 M271.600 236.112 C 271.600 236.606,271.105 236.793,269.500 236.905 L 267.400 237.052 269.513 237.126 C 271.521 237.196,272.649 236.516,271.849 235.716 C 271.712 235.579,271.600 235.757,271.600 236.112 M260.905 236.287 C 261.514 236.379,262.414 236.377,262.905 236.282 C 263.397 236.187,262.900 236.111,261.800 236.114 C 260.700 236.117,260.297 236.195,260.905 236.287 M277.266 236.400 C 277.516 237.165,279.511 237.327,282.600 236.832 C 284.880 236.466,284.835 236.458,281.692 236.666 C 279.234 236.829,278.215 236.745,277.727 236.342 C 277.167 235.880,277.099 235.888,277.266 236.400 M285.905 236.283 C 286.402 236.379,287.122 236.375,287.505 236.275 C 287.887 236.175,287.480 236.096,286.600 236.101 C 285.720 236.105,285.407 236.187,285.905 236.283 M89.248 237.000 C 89.604 237.440,89.995 238.070,90.116 238.400 C 90.303 238.909,90.342 238.904,90.368 238.362 C 90.386 238.011,89.995 237.381,89.500 236.962 C 88.608 236.206,88.606 236.207,89.248 237.000 M265.105 236.683 C 265.602 236.779,266.322 236.775,266.705 236.675 C 267.087 236.575,266.680 236.496,265.800 236.501 C 264.920 236.505,264.607 236.587,265.105 236.683 M199.070 237.464 C 198.921 237.612,198.800 239.931,198.800 242.618 C 198.800 246.413,198.670 247.610,198.216 247.987 C 197.768 248.358,192.207 248.440,174.516 248.336 L 151.400 248.200 151.289 254.318 C 151.135 262.859,152.257 265.676,156.600 267.654 C 158.584 268.557,239.894 268.823,242.857 267.936 C 248.401 266.275,249.239 263.751,249.106 249.112 L 249.000 237.400 224.170 237.297 C 210.513 237.240,199.218 237.315,199.070 237.464 M58.897 240.100 C 56.449 243.157,56.498 244.807,59.081 246.208 C 60.137 246.781,61.720 247.657,62.600 248.155 C 63.480 248.653,65.910 249.961,68.000 251.061 C 74.577 254.522,78.181 256.495,78.747 256.943 C 79.772 257.755,82.876 252.877,82.130 251.628 C 81.924 251.283,80.215 250.190,78.333 249.200 C 76.451 248.210,72.411 246.060,69.355 244.422 C 59.959 239.386,59.591 239.234,58.897 240.100 M244.306 252.900 L 244.200 265.000 224.400 265.111 C 213.510 265.172,204.195 265.123,203.700 265.003 L 202.800 264.785 202.800 252.792 L 202.800 240.800 223.606 240.800 L 244.412 240.800 244.306 252.900 M72.400 242.679 C 72.400 243.802,80.065 247.650,81.036 247.014 C 81.566 246.666,82.000 246.286,82.000 246.168 C 82.000 246.051,81.605 246.231,81.123 246.569 C 80.192 247.221,77.106 245.856,73.700 243.286 C 72.985 242.746,72.400 242.473,72.400 242.679 M83.486 244.035 C 82.653 244.920,82.325 245.454,82.758 245.223 C 83.415 244.871,85.524 242.371,85.127 242.414 C 85.057 242.421,84.318 243.151,83.486 244.035 M49.951 247.300 C 49.688 247.795,48.936 249.190,48.280 250.400 C 45.592 255.355,45.273 256.002,45.631 255.781 C 45.837 255.653,46.338 254.886,46.744 254.075 C 48.635 250.296,49.742 248.400,50.057 248.400 C 50.246 248.400,50.400 248.139,50.400 247.820 C 50.400 247.501,50.715 247.056,51.100 246.832 C 51.752 246.452,51.753 246.423,51.114 246.412 C 50.737 246.405,50.213 246.805,49.951 247.300 M52.846 247.550 C 53.838 248.330,56.528 249.817,63.527 253.455 C 67.560 255.551,68.973 256.140,67.389 255.064 C 66.369 254.371,60.977 251.476,57.420 249.712 C 55.892 248.953,54.202 247.988,53.666 247.566 C 53.131 247.145,52.512 246.800,52.292 246.800 C 52.072 246.800,52.321 247.138,52.846 247.550 M51.330 255.173 C 50.518 256.121,45.476 265.609,45.677 265.810 C 45.756 265.890,46.958 263.760,48.348 261.077 C 49.738 258.395,51.319 255.795,51.860 255.300 C 52.402 254.805,52.653 254.400,52.418 254.400 C 52.184 254.400,51.694 254.748,51.330 255.173 M54.800 255.783 C 54.800 256.057,58.412 258.121,58.586 257.947 C 58.668 257.865,57.850 257.303,56.768 256.699 C 55.686 256.095,54.800 255.683,54.800 255.783 M70.000 256.722 C 70.000 256.929,71.261 257.725,72.802 258.492 C 74.342 259.259,75.416 259.661,75.188 259.386 C 74.960 259.111,74.194 258.655,73.487 258.373 C 72.779 258.091,71.705 257.519,71.100 257.103 C 70.495 256.686,70.000 256.515,70.000 256.722 M42.254 261.396 C 39.933 265.305,39.127 267.142,41.120 263.978 C 42.846 261.239,44.879 257.600,44.683 257.600 C 44.586 257.600,43.493 259.308,42.254 261.396 M59.800 258.620 C 60.769 259.400,64.765 261.453,64.200 260.881 C 63.980 260.658,62.720 259.913,61.400 259.226 C 60.080 258.538,59.360 258.266,59.800 258.620 M79.385 262.139 C 79.790 262.436,80.016 262.850,79.887 263.060 C 79.429 263.800,78.014 267.600,78.196 267.600 C 78.374 267.600,79.605 264.982,80.148 263.449 C 80.426 262.664,79.808 261.600,79.075 261.600 C 78.839 261.600,78.979 261.843,79.385 262.139 M44.585 267.629 C 43.960 268.837,43.930 268.847,42.875 268.206 L 41.800 267.553 42.742 268.374 C 43.260 268.826,43.846 269.095,44.045 268.972 C 44.475 268.707,45.709 266.400,45.421 266.400 C 45.311 266.400,44.934 266.953,44.585 267.629 M69.810 272.311 C 69.179 273.570,68.244 275.227,67.732 275.993 C 67.219 276.759,66.800 277.549,66.800 277.749 C 66.800 277.948,67.220 277.492,67.734 276.736 C 68.898 275.020,71.286 270.353,71.096 270.163 C 71.019 270.086,70.440 271.052,69.810 272.311 M71.189 279.837 C 69.960 282.130,69.690 282.401,68.848 282.193 C 66.545 281.625,65.425 280.005,66.500 278.799 C 66.925 278.322,66.896 278.318,66.300 278.768 C 64.865 279.854,66.292 281.956,68.908 282.613 C 69.812 282.840,73.344 278.010,72.726 277.392 C 72.645 277.312,71.953 278.412,71.189 279.837 M190.226 286.532 C 189.305 287.205,189.460 292.213,190.421 292.821 C 190.739 293.023,194.965 293.191,199.811 293.194 C 210.500 293.201,210.400 293.237,210.400 289.396 L 210.400 286.838 208.900 286.421 C 206.588 285.779,191.130 285.871,190.226 286.532 M195.676 295.309 C 195.330 295.726,195.204 296.992,195.283 299.261 L 195.400 302.600 199.968 302.714 C 203.353 302.798,204.620 302.694,204.862 302.314 C 205.294 301.632,205.281 296.348,204.845 295.660 C 204.302 294.802,196.349 294.497,195.676 295.309 M187.600 302.933 C 187.600 303.740,187.775 304.400,187.990 304.400 C 188.214 304.400,188.275 303.847,188.133 303.100 C 187.786 301.277,187.600 301.219,187.600 302.933 M175.879 318.157 C 175.715 318.574,175.675 319.009,175.791 319.124 C 176.155 319.489,176.476 318.891,176.324 318.131 C 176.183 317.435,176.162 317.436,175.879 318.157 M223.788 319.220 C 223.407 319.835,223.928 320.232,224.442 319.718 C 224.729 319.431,224.736 319.207,224.462 319.039 C 224.239 318.900,223.935 318.982,223.788 319.220 M224.800 324.510 C 224.800 325.083,224.943 325.641,225.118 325.749 C 225.521 325.998,225.504 324.170,225.100 323.767 C 224.935 323.602,224.800 323.936,224.800 324.510 M224.943 329.124 C 224.966 330.009,225.123 330.648,225.292 330.543 C 225.703 330.289,225.673 328.735,225.244 328.058 C 225.022 327.708,224.915 328.086,224.943 329.124 M176.016 335.019 C 176.298 335.359,176.635 335.478,176.765 335.282 C 176.894 335.086,177.585 334.973,178.300 335.032 C 179.015 335.090,179.600 334.972,179.600 334.769 C 179.600 334.566,178.678 334.400,177.551 334.400 C 175.747 334.400,175.564 334.474,176.016 335.019 M220.800 334.782 C 220.800 334.992,221.441 335.081,222.224 334.981 C 223.217 334.854,223.563 334.936,223.368 335.251 C 223.201 335.521,223.303 335.632,223.619 335.527 C 224.977 335.074,224.387 334.400,222.633 334.400 C 221.625 334.400,220.800 334.572,220.800 334.782 M213.413 346.293 C 212.980 346.402,212.080 346.906,211.413 347.413 C 210.746 347.919,209.428 348.641,208.483 349.017 C 207.539 349.393,206.842 349.775,206.934 349.867 C 207.220 350.153,211.371 348.165,211.949 347.465 C 212.251 347.099,212.791 346.797,213.149 346.794 C 213.507 346.791,214.070 346.613,214.400 346.400 C 215.030 345.993,214.726 345.959,213.413 346.293 M187.646 347.143 C 188.696 347.962,190.990 349.200,191.457 349.200 C 191.620 349.200,190.707 348.570,189.428 347.800 C 186.860 346.254,186.185 346.005,187.646 347.143 M195.505 350.283 C 196.002 350.379,196.722 350.375,197.105 350.275 C 197.487 350.175,197.080 350.096,196.200 350.101 C 195.320 350.105,195.007 350.187,195.505 350.283 M203.100 350.282 C 203.595 350.378,204.405 350.378,204.900 350.282 C 205.395 350.187,204.990 350.109,204.000 350.109 C 203.010 350.109,202.605 350.187,203.100 350.282 " stroke="none" fill="#e8b73c" fill-rule="evenodd"></path><path id="path2" d="M191.600 93.398 C 161.450 97.802,138.770 123.432,138.286 153.647 C 138.174 160.637,139.279 162.996,143.733 165.268 L 145.373 166.104 200.255 166.071 C 259.893 166.034,256.317 166.171,259.118 163.810 C 262.140 161.262,262.984 156.767,262.021 148.341 C 258.017 113.317,226.038 88.367,191.600 93.398 M175.200 126.239 C 180.656 129.208,185.207 140.664,182.238 143.955 C 180.023 146.411,175.607 144.477,175.594 141.046 C 175.569 134.347,170.676 130.150,167.081 133.745 C 165.643 135.184,164.400 138.672,164.400 141.272 C 164.400 143.647,163.158 144.800,160.600 144.800 C 156.847 144.800,156.047 142.674,157.564 136.740 C 160.072 126.934,167.907 122.269,175.200 126.239 M233.986 125.433 C 239.142 126.964,243.600 134.180,243.600 140.995 C 243.600 146.639,236.850 146.536,236.276 140.883 C 235.138 129.680,226.192 129.575,225.046 140.751 C 224.707 144.058,224.037 144.800,221.391 144.800 C 218.050 144.800,217.420 143.983,217.728 140.045 C 218.556 129.473,225.767 122.992,233.986 125.433 M330.290 167.068 C 330.182 167.250,329.046 169.380,327.765 171.800 C 326.485 174.220,324.933 177.100,324.316 178.200 C 322.929 180.676,320.400 185.938,320.400 186.348 C 320.400 186.515,321.165 187.072,322.100 187.585 C 325.550 189.479,327.038 190.308,328.600 191.207 C 329.480 191.713,331.730 192.911,333.600 193.869 C 335.470 194.827,337.990 196.163,339.200 196.839 C 340.410 197.515,342.480 198.647,343.800 199.355 C 345.120 200.063,346.880 201.038,347.712 201.521 C 349.461 202.537,349.600 202.567,349.600 201.922 C 349.600 201.659,350.027 200.984,350.549 200.422 C 351.072 199.860,352.242 198.005,353.149 196.300 C 354.057 194.595,355.540 191.805,356.445 190.100 C 357.349 188.395,358.506 186.370,359.015 185.600 C 360.212 183.789,360.484 182.000,359.562 182.000 C 359.321 182.000,358.636 181.653,358.040 181.228 C 356.697 180.273,356.486 180.419,354.919 183.400 C 349.261 194.158,348.601 194.980,346.500 193.885 C 344.820 193.010,341.222 191.073,337.322 188.942 C 335.385 187.884,332.360 186.278,330.600 185.373 C 327.053 183.549,326.592 182.777,327.928 180.901 C 328.359 180.295,329.475 178.360,330.409 176.600 C 331.342 174.840,332.352 173.116,332.653 172.769 C 332.954 172.421,333.206 171.881,333.213 171.569 C 333.220 171.256,333.490 170.651,333.813 170.224 C 334.136 169.796,334.400 169.216,334.400 168.933 C 334.400 167.945,330.752 166.289,330.290 167.068 M317.570 204.352 C 316.157 205.839,313.920 207.989,312.600 209.129 L 310.200 211.201 311.309 212.123 C 313.212 213.704,317.896 217.723,319.872 219.470 C 322.203 221.531,322.222 221.523,327.151 216.671 C 331.573 212.316,333.218 210.081,332.381 209.564 C 332.062 209.367,329.460 207.674,326.600 205.802 C 323.740 203.929,321.117 202.229,320.770 202.022 C 320.279 201.730,319.576 202.241,317.570 204.352 M116.344 212.589 C 116.241 212.693,114.726 212.966,112.978 213.195 C 105.660 214.157,105.982 213.938,107.383 217.001 C 107.942 218.223,108.400 219.371,108.400 219.550 C 108.400 219.730,109.094 221.300,109.943 223.039 C 110.792 224.777,111.609 226.589,111.758 227.064 C 112.249 228.619,112.782 228.731,117.000 228.165 C 119.200 227.870,122.305 227.622,123.900 227.614 C 126.186 227.603,126.800 227.475,126.800 227.008 C 126.800 226.389,124.592 218.536,124.001 217.055 C 123.813 216.585,123.427 215.345,123.143 214.300 L 122.625 212.400 119.579 212.400 C 117.904 212.400,116.448 212.485,116.344 212.589 M128.596 212.793 C 128.932 213.338,129.472 215.277,129.988 217.800 C 130.407 219.849,132.425 227.356,132.606 227.538 C 132.866 227.801,140.601 228.690,141.075 228.512 C 141.337 228.414,141.664 227.313,141.801 226.067 C 141.939 224.820,142.202 222.900,142.386 221.800 C 142.570 220.700,142.707 219.440,142.691 219.000 C 142.676 218.560,142.796 217.287,142.959 216.172 C 143.328 213.645,143.040 213.376,139.600 213.044 C 132.836 212.391,128.283 212.287,128.596 212.793 M302.000 215.625 C 300.350 216.467,297.785 217.548,296.300 218.028 C 292.979 219.101,293.042 220.191,296.807 226.900 C 297.309 227.795,297.699 228.554,298.859 230.900 C 299.971 233.149,300.177 233.176,304.045 231.582 C 310.376 228.973,318.569 224.409,316.936 224.402 C 316.681 224.401,315.488 223.455,314.286 222.300 C 307.230 215.522,305.578 214.005,305.304 214.047 C 305.137 214.072,303.650 214.782,302.000 215.625 M97.600 217.042 C 94.442 218.120,84.465 223.156,84.061 223.876 C 83.741 224.448,84.282 225.139,87.121 227.785 C 89.018 229.553,91.466 231.855,92.561 232.900 C 94.937 235.167,94.843 235.158,98.387 233.434 C 99.931 232.682,102.411 231.670,103.897 231.184 C 107.593 229.977,107.548 230.195,105.088 225.338 C 100.101 215.492,100.582 216.025,97.600 217.042 M259.047 220.850 C 258.955 221.152,258.679 222.974,258.433 224.899 C 258.186 226.823,257.784 229.850,257.539 231.626 C 256.982 235.665,256.709 235.451,263.345 236.187 C 271.116 237.048,271.750 237.026,271.468 235.900 C 271.344 235.405,270.897 233.470,270.475 231.600 C 268.001 220.640,268.398 221.391,264.897 221.039 C 263.413 220.889,261.528 220.662,260.707 220.534 C 259.630 220.365,259.167 220.453,259.047 220.850 M285.278 220.685 C 284.772 220.782,281.982 221.078,279.078 221.344 C 273.837 221.823,273.800 221.833,273.860 222.813 C 273.927 223.912,275.574 230.014,276.554 232.800 C 276.903 233.790,277.191 234.893,277.194 235.251 C 277.210 237.008,282.905 237.058,291.140 235.373 C 294.295 234.728,294.207 234.838,293.242 232.744 C 292.800 231.785,291.999 229.830,291.461 228.400 C 288.530 220.599,288.158 220.135,285.278 220.685 M75.497 230.289 C 71.560 233.898,67.600 238.380,67.600 239.226 C 67.600 239.421,68.185 239.877,68.900 240.241 C 69.615 240.605,71.305 241.670,72.656 242.607 C 74.006 243.544,76.296 244.974,77.744 245.783 L 80.376 247.255 83.897 243.704 C 85.833 241.751,87.999 239.810,88.709 239.390 C 90.287 238.458,90.327 237.915,88.900 236.794 C 88.295 236.318,86.892 235.090,85.783 234.065 C 84.674 233.039,83.033 231.697,82.137 231.083 C 81.240 230.468,80.091 229.523,79.584 228.983 C 78.350 227.669,78.357 227.667,75.497 230.289 M50.516 247.600 C 50.401 248.040,50.164 248.400,49.989 248.400 C 49.814 248.400,49.287 249.165,48.816 250.100 C 48.346 251.035,47.441 252.700,46.805 253.800 C 46.169 254.900,45.368 256.406,45.026 257.146 C 44.683 257.886,43.412 260.152,42.201 262.181 C 39.543 266.635,39.554 266.348,41.995 267.694 C 43.821 268.701,44.007 268.733,44.343 268.094 C 44.543 267.712,46.000 264.903,47.581 261.850 C 51.996 253.325,51.358 253.770,55.748 256.153 C 57.537 257.123,60.080 258.501,61.400 259.215 C 62.720 259.929,64.610 260.961,65.600 261.507 C 66.590 262.053,68.563 263.109,69.985 263.852 C 73.124 265.494,73.466 266.004,72.574 267.709 C 72.202 268.419,71.104 270.530,70.134 272.400 C 69.164 274.270,67.852 276.610,67.217 277.600 C 65.803 279.806,65.761 280.408,66.960 281.279 C 69.579 283.181,69.437 283.328,74.838 273.193 C 75.630 271.708,76.648 269.888,77.101 269.147 C 78.345 267.114,80.047 262.683,79.703 262.373 C 79.288 261.998,75.938 260.124,72.824 258.524 C 71.407 257.796,70.147 257.059,70.024 256.886 C 69.901 256.713,67.730 255.539,65.200 254.277 C 59.055 251.211,54.013 248.465,52.846 247.549 C 51.612 246.580,50.778 246.598,50.516 247.600 M187.915 302.400 C 188.012 303.060,188.160 303.600,188.245 303.600 C 188.330 303.600,188.400 303.060,188.400 302.400 C 188.400 301.740,188.251 301.200,188.069 301.200 C 187.887 301.200,187.818 301.740,187.915 302.400 M176.800 335.249 C 176.800 335.442,177.460 335.600,178.267 335.600 C 179.073 335.600,179.622 335.489,179.486 335.353 C 179.087 334.953,176.800 334.865,176.800 335.249 M221.369 335.250 C 221.250 335.443,221.603 335.600,222.153 335.600 C 222.703 335.600,223.250 335.443,223.369 335.250 C 223.488 335.058,223.135 334.900,222.585 334.900 C 222.035 334.900,221.488 335.058,221.369 335.250 M182.641 346.333 C 182.416 346.698,159.469 347.102,153.509 346.846 C 152.688 346.811,150.888 346.959,149.509 347.176 C 148.129 347.392,145.200 347.598,143.000 347.632 C 140.800 347.666,138.703 347.849,138.341 348.039 C 137.978 348.229,136.358 348.410,134.741 348.441 C 130.555 348.520,128.800 349.287,128.800 351.036 C 128.800 352.185,128.963 352.419,129.900 352.617 C 130.505 352.744,131.270 352.989,131.600 353.162 C 131.930 353.335,133.640 353.515,135.400 353.564 C 137.160 353.612,138.771 353.820,138.980 354.026 C 139.189 354.232,141.653 354.400,144.456 354.400 C 147.259 354.400,149.658 354.571,149.787 354.779 C 149.923 355.000,154.413 355.187,160.511 355.227 C 166.280 355.264,171.630 355.361,172.400 355.441 C 179.252 356.155,184.433 356.331,198.800 356.340 C 207.930 356.345,218.010 356.162,221.200 355.932 C 224.390 355.702,232.310 355.359,238.800 355.170 C 253.059 354.754,266.625 353.798,269.724 352.990 C 272.201 352.345,272.398 349.200,269.962 349.200 C 269.569 349.200,269.152 349.045,269.035 348.856 C 268.918 348.668,267.603 348.480,266.111 348.440 C 263.260 348.364,262.579 348.278,261.600 347.872 C 260.641 347.475,252.571 347.198,235.403 346.975 C 226.035 346.853,219.248 346.608,219.023 346.383 C 218.070 345.430,213.267 346.292,211.717 347.694 C 207.490 351.519,193.738 351.338,187.984 347.381 C 186.414 346.302,183.067 345.645,182.641 346.333 " stroke="none" fill="#eeedeb" fill-rule="evenodd"></path><path id="path3" d="M191.506 69.827 C 191.366 69.968,189.846 70.240,188.128 70.433 C 186.411 70.625,184.944 70.967,184.870 71.191 C 184.795 71.416,183.848 71.600,182.767 71.600 C 181.685 71.600,180.800 71.780,180.800 72.000 C 180.800 72.220,180.181 72.400,179.424 72.400 C 178.667 72.400,177.936 72.580,177.800 72.800 C 177.664 73.020,176.933 73.200,176.176 73.200 C 175.419 73.200,174.800 73.360,174.800 73.555 C 174.800 73.750,174.305 74.009,173.700 74.130 C 169.815 74.910,166.800 75.940,166.800 76.488 C 166.800 76.659,166.361 76.800,165.824 76.800 C 165.287 76.800,164.736 76.980,164.600 77.200 C 164.464 77.420,164.003 77.600,163.576 77.600 C 163.149 77.600,162.800 77.780,162.800 78.000 C 162.800 78.220,162.530 78.400,162.200 78.400 C 161.870 78.400,161.600 78.580,161.600 78.800 C 161.600 79.020,161.240 79.200,160.800 79.200 C 160.360 79.200,160.000 79.344,160.000 79.520 C 160.000 79.695,159.415 80.052,158.700 80.312 C 157.985 80.572,156.913 81.238,156.317 81.792 C 155.722 82.346,154.957 82.800,154.617 82.800 C 154.278 82.800,154.000 82.980,154.000 83.200 C 154.000 83.420,153.730 83.600,153.400 83.600 C 153.070 83.600,152.800 83.750,152.800 83.932 C 152.800 84.115,152.305 84.520,151.700 84.832 C 151.095 85.145,150.381 85.580,150.114 85.800 C 149.847 86.020,149.359 86.425,149.031 86.700 C 148.702 86.975,148.312 87.200,148.164 87.200 C 148.015 87.200,147.603 87.524,147.247 87.919 C 146.891 88.314,145.984 89.069,145.231 89.595 C 143.728 90.647,134.800 99.571,134.800 100.023 C 134.800 100.177,134.098 101.027,133.240 101.911 C 132.382 102.795,131.560 103.897,131.413 104.359 C 131.266 104.822,130.978 105.200,130.773 105.200 C 130.568 105.200,130.400 105.470,130.400 105.800 C 130.400 106.130,130.220 106.400,130.000 106.400 C 129.780 106.400,129.600 106.678,129.600 107.017 C 129.600 107.356,129.231 108.029,128.780 108.513 C 127.746 109.624,126.000 112.724,126.000 113.450 C 126.000 113.753,125.864 114.000,125.698 114.000 C 125.531 114.000,125.141 114.585,124.830 115.300 C 124.519 116.015,124.149 116.690,124.008 116.800 C 123.467 117.223,120.800 122.902,120.800 123.632 C 120.800 124.054,120.620 124.400,120.400 124.400 C 120.180 124.400,120.000 124.940,120.000 125.600 C 120.000 126.260,119.820 126.800,119.600 126.800 C 119.380 126.800,119.200 127.162,119.200 127.605 C 119.200 128.048,119.033 128.723,118.829 129.105 C 118.625 129.487,118.361 130.115,118.242 130.500 C 118.044 131.139,117.257 131.200,109.236 131.200 C 103.808 131.200,100.353 131.353,100.200 131.600 C 100.064 131.820,99.423 132.000,98.776 132.000 C 98.129 132.000,97.600 132.180,97.600 132.400 C 97.600 132.620,97.324 132.800,96.986 132.800 C 96.172 132.800,94.569 133.861,92.606 135.700 C 91.725 136.525,90.868 137.200,90.702 137.200 C 90.536 137.200,90.400 137.571,90.400 138.024 C 90.400 138.477,90.220 138.736,90.000 138.600 C 89.780 138.464,89.600 138.734,89.600 139.200 C 89.600 139.666,89.433 139.944,89.228 139.817 C 89.024 139.691,88.631 140.211,88.355 140.972 C 88.080 141.734,87.707 142.266,87.527 142.155 C 87.347 142.044,87.200 142.647,87.200 143.496 C 87.200 144.345,86.992 145.248,86.737 145.503 C 86.386 145.854,86.410 146.132,86.837 146.648 C 87.273 147.176,87.287 147.368,86.900 147.498 C 86.625 147.591,86.400 147.842,86.400 148.057 C 86.400 148.272,86.598 148.325,86.840 148.175 C 87.149 147.984,87.165 148.126,86.894 148.652 C 85.907 150.562,85.904 159.322,86.890 157.934 C 87.148 157.571,87.181 157.721,86.994 158.400 C 86.527 160.097,86.514 162.000,86.968 162.006 C 87.206 162.009,87.132 162.182,86.803 162.389 C 86.328 162.690,86.308 162.868,86.703 163.263 C 86.977 163.537,87.200 164.444,87.200 165.280 C 87.200 166.116,87.335 166.801,87.500 166.803 C 87.865 166.807,88.800 168.749,88.800 169.503 C 88.800 169.802,88.980 169.936,89.200 169.800 C 89.420 169.664,89.600 169.768,89.600 170.030 C 89.600 170.722,94.269 175.200,94.990 175.200 C 95.326 175.200,95.600 175.380,95.600 175.600 C 95.600 175.820,96.035 176.000,96.567 176.000 C 97.098 176.000,97.601 176.203,97.684 176.451 C 97.956 177.269,101.693 177.703,109.952 177.876 C 117.970 178.044,119.199 178.256,119.200 179.471 C 119.201 179.652,119.618 180.284,120.127 180.876 C 120.636 181.468,121.398 182.413,121.821 182.976 C 122.244 183.539,122.729 184.000,122.899 184.000 C 123.068 184.000,123.772 184.540,124.463 185.200 C 125.154 185.860,125.947 186.400,126.226 186.400 C 126.505 186.400,126.793 186.557,126.867 186.749 C 127.154 187.499,131.678 189.200,133.388 189.200 C 134.359 189.200,135.264 189.380,135.400 189.600 C 135.550 189.843,138.537 190.000,143.024 190.000 L 150.400 190.000 150.400 191.176 C 150.400 191.823,150.220 192.464,150.000 192.600 C 149.780 192.736,149.600 194.176,149.600 195.800 C 149.600 197.424,149.780 198.864,150.000 199.000 C 150.220 199.136,150.400 199.681,150.400 200.211 C 150.400 200.742,150.742 201.784,151.160 202.528 C 151.911 203.866,151.911 203.888,151.114 204.441 C 150.670 204.748,149.906 205.306,149.415 205.681 C 148.907 206.069,148.367 206.213,148.161 206.016 C 147.962 205.826,146.720 205.562,145.400 205.430 C 144.080 205.298,141.470 204.996,139.600 204.760 C 134.798 204.153,115.978 203.862,115.453 204.387 C 115.226 204.614,113.827 204.800,112.344 204.800 C 110.861 204.800,109.536 204.980,109.400 205.200 C 109.264 205.420,108.274 205.600,107.200 205.600 C 106.126 205.600,105.136 205.780,105.000 206.000 C 104.864 206.220,104.302 206.400,103.752 206.400 C 102.527 206.400,98.870 207.563,98.570 208.048 C 98.451 208.242,97.924 208.400,97.400 208.400 C 96.876 208.400,96.336 208.580,96.200 208.800 C 96.064 209.020,95.513 209.200,94.976 209.200 C 94.439 209.200,94.000 209.380,94.000 209.600 C 94.000 209.820,93.460 210.000,92.800 210.000 C 92.140 210.000,91.600 210.180,91.600 210.400 C 91.600 210.620,91.330 210.800,91.000 210.800 C 90.670 210.800,90.400 210.980,90.400 211.200 C 90.400 211.420,89.939 211.600,89.376 211.600 C 88.813 211.600,88.456 211.767,88.582 211.971 C 88.709 212.176,88.404 212.405,87.906 212.481 C 87.408 212.557,87.045 212.840,87.100 213.109 C 87.155 213.379,86.975 213.555,86.700 213.500 C 86.425 213.445,86.245 213.625,86.300 213.900 C 86.355 214.175,86.220 214.400,86.000 214.400 C 85.780 214.400,85.600 214.220,85.600 214.000 C 85.600 213.316,84.605 213.561,84.006 214.391 C 83.587 214.973,83.354 215.052,83.124 214.691 C 82.879 214.306,82.811 214.308,82.806 214.700 C 82.803 214.975,82.520 215.200,82.178 215.200 C 81.270 215.200,76.800 218.335,76.800 218.972 C 76.800 219.269,76.350 219.626,75.800 219.764 C 75.250 219.902,74.800 220.282,74.800 220.608 C 74.800 220.933,74.517 221.200,74.171 221.200 C 73.548 221.200,72.400 222.107,72.400 222.600 C 72.400 223.107,71.244 224.000,70.589 224.000 C 69.991 224.000,69.005 224.810,66.120 227.669 C 65.636 228.148,65.331 228.689,65.444 228.870 C 65.556 229.052,65.367 229.200,65.024 229.200 C 64.681 229.200,64.400 229.483,64.400 229.829 C 64.400 230.574,63.403 231.669,63.048 231.314 C 62.911 231.178,62.800 231.367,62.800 231.733 C 62.800 232.100,62.620 232.400,62.400 232.400 C 62.180 232.400,62.000 232.253,62.000 232.074 C 62.000 231.895,61.273 231.360,60.383 230.886 C 59.494 230.411,58.875 230.198,59.007 230.411 C 59.139 230.625,59.057 230.800,58.824 230.800 C 58.591 230.800,58.400 230.620,58.400 230.400 C 58.400 228.858,55.271 230.082,54.267 232.017 C 53.691 233.127,53.409 233.918,53.640 233.775 C 53.929 233.597,53.934 233.747,53.656 234.258 C 53.434 234.666,53.021 235.576,52.737 236.280 C 52.400 237.119,52.117 237.395,51.917 237.080 C 51.689 236.720,51.611 236.732,51.606 237.127 C 51.602 237.496,51.251 237.406,50.438 236.827 C 48.782 235.648,47.254 235.812,46.972 237.200 C 46.826 237.917,46.272 238.768,46.043 238.627 C 45.893 238.534,45.540 239.030,45.259 239.729 C 44.978 240.428,44.579 241.270,44.372 241.600 C 44.164 241.930,43.885 242.470,43.751 242.800 C 43.616 243.130,43.304 243.895,43.056 244.500 C 42.808 245.105,42.469 245.600,42.302 245.600 C 42.136 245.600,42.000 246.063,42.000 246.629 C 42.000 247.686,41.089 248.956,40.648 248.514 C 40.511 248.378,40.400 248.621,40.400 249.053 C 40.400 249.486,40.235 250.011,40.033 250.220 C 39.832 250.429,39.607 250.960,39.533 251.400 C 39.460 251.840,38.995 252.528,38.500 252.929 C 38.005 253.330,37.600 254.005,37.600 254.429 C 37.600 254.853,37.420 255.200,37.200 255.200 C 36.980 255.200,36.800 255.560,36.800 256.000 C 36.800 256.440,36.641 256.800,36.447 256.800 C 36.252 256.800,35.988 257.115,35.859 257.500 C 35.731 257.885,35.055 259.190,34.358 260.400 C 32.333 263.915,31.600 265.504,31.600 266.381 C 31.600 266.831,31.420 267.200,31.200 267.200 C 30.980 267.200,30.803 267.965,30.806 268.900 C 30.810 269.855,30.948 270.387,31.121 270.114 C 31.341 269.767,31.644 269.911,32.171 270.614 C 32.579 271.156,33.142 271.600,33.423 271.600 C 33.704 271.600,33.993 271.742,34.067 271.914 C 34.328 272.531,36.737 274.000,37.486 274.000 C 37.906 274.000,38.598 274.318,39.025 274.708 C 41.686 277.137,48.000 278.720,48.000 276.958 C 48.000 276.651,48.180 276.400,48.400 276.400 C 48.620 276.400,48.800 276.122,48.800 275.782 C 48.800 275.442,49.219 274.745,49.730 274.234 C 50.242 273.722,50.906 272.695,51.207 271.952 C 51.508 271.208,51.855 270.510,51.977 270.400 C 52.565 269.872,53.200 268.306,53.200 267.382 C 53.200 266.816,53.343 266.441,53.517 266.549 C 53.691 266.656,53.862 266.370,53.897 265.913 C 53.977 264.849,54.822 263.986,55.083 264.700 C 55.184 264.975,55.612 265.200,56.033 265.200 C 56.455 265.200,56.800 265.359,56.800 265.553 C 56.800 265.897,58.296 266.530,58.900 266.443 C 59.065 266.419,59.200 266.580,59.200 266.800 C 59.200 267.020,59.650 267.200,60.200 267.200 C 60.750 267.200,61.200 267.380,61.200 267.600 C 61.200 267.820,61.483 268.000,61.829 268.000 C 62.705 268.000,63.957 269.281,63.296 269.501 C 63.023 269.592,62.800 270.081,62.800 270.587 C 62.800 271.170,62.507 271.583,62.000 271.716 C 61.471 271.854,61.200 272.262,61.200 272.920 C 61.200 273.467,60.922 274.021,60.581 274.152 C 60.241 274.282,60.016 274.707,60.081 275.095 C 60.148 275.491,59.981 275.756,59.700 275.700 C 59.425 275.645,59.200 275.868,59.200 276.195 C 59.200 276.724,58.873 277.226,57.400 278.960 C 55.172 281.582,55.600 285.077,58.174 285.290 C 58.738 285.336,59.200 285.485,59.200 285.620 C 59.200 285.754,59.695 286.116,60.300 286.423 C 60.905 286.731,62.095 287.406,62.944 287.924 C 63.793 288.442,64.359 288.657,64.202 288.403 C 63.784 287.727,65.599 288.825,66.512 289.800 C 66.924 290.240,67.147 290.375,67.007 290.100 C 66.867 289.825,66.928 289.600,67.143 289.600 C 67.358 289.600,67.593 289.735,67.667 289.900 C 68.485 291.741,74.000 292.873,74.000 291.200 C 74.000 290.760,74.180 290.400,74.400 290.400 C 74.620 290.400,74.800 289.858,74.800 289.196 C 74.800 288.395,75.215 287.560,76.042 286.696 C 76.726 285.983,77.578 284.725,77.937 283.900 C 78.295 283.075,78.726 282.400,78.894 282.400 C 79.062 282.400,79.200 282.040,79.200 281.600 C 79.200 281.160,79.380 280.800,79.600 280.800 C 79.820 280.800,80.000 280.451,80.000 280.024 C 80.000 279.597,80.180 279.136,80.400 279.000 C 80.620 278.864,80.800 278.494,80.800 278.177 C 80.800 277.861,81.430 276.934,82.200 276.118 C 82.970 275.301,83.600 274.221,83.600 273.717 C 83.600 273.212,83.735 272.799,83.900 272.797 C 84.312 272.793,85.200 270.808,85.200 269.892 C 85.200 269.480,85.472 268.871,85.804 268.539 C 86.136 268.207,86.301 267.763,86.170 267.552 C 86.040 267.341,86.562 266.591,87.329 265.884 C 88.097 265.178,88.787 264.240,88.863 263.800 C 89.029 262.833,89.688 262.016,90.100 262.266 C 90.764 262.667,90.400 258.498,89.723 257.949 C 89.263 257.576,89.143 257.560,89.347 257.900 C 89.512 258.175,89.457 258.400,89.224 258.400 C 88.991 258.400,88.800 258.119,88.800 257.776 C 88.800 257.433,88.620 257.264,88.400 257.400 C 87.492 257.961,88.089 256.638,89.220 255.582 C 89.891 254.955,90.420 254.339,90.397 254.213 C 90.303 253.710,91.362 251.253,91.608 251.405 C 91.752 251.494,91.909 250.494,91.956 249.183 C 92.018 247.454,91.899 246.796,91.521 246.785 C 91.234 246.777,91.810 246.392,92.800 245.929 C 93.790 245.466,94.891 244.753,95.247 244.344 C 95.603 243.935,96.188 243.600,96.547 243.600 C 96.906 243.600,97.200 243.454,97.200 243.275 C 97.200 243.096,97.830 242.702,98.600 242.400 C 99.370 242.098,100.000 241.704,100.000 241.525 C 100.000 241.346,100.360 241.200,100.800 241.200 C 101.240 241.200,101.600 241.040,101.600 240.843 C 101.600 240.647,102.050 240.374,102.600 240.236 C 103.150 240.098,103.600 239.808,103.600 239.592 C 103.600 239.377,104.050 239.200,104.600 239.200 C 105.150 239.200,105.600 239.020,105.600 238.800 C 105.600 238.580,106.050 238.400,106.600 238.400 C 107.150 238.400,107.600 238.220,107.600 238.000 C 107.600 237.780,108.219 237.600,108.976 237.600 C 109.733 237.600,110.464 237.420,110.600 237.200 C 110.736 236.980,111.456 236.800,112.200 236.800 C 112.944 236.800,113.664 236.620,113.800 236.400 C 113.936 236.180,115.016 236.000,116.200 236.000 C 117.384 236.000,118.464 235.820,118.600 235.600 C 118.914 235.092,134.491 235.057,135.020 235.563 C 135.229 235.763,136.300 236.021,137.400 236.137 C 138.500 236.253,140.210 236.495,141.200 236.674 L 143.000 237.000 143.106 249.186 C 143.170 256.504,143.369 261.529,143.606 261.766 C 143.823 261.983,144.000 262.485,144.000 262.883 C 144.000 263.724,145.837 267.325,147.000 268.764 C 148.641 270.795,152.090 274.000,152.635 274.000 C 152.946 274.000,153.200 274.180,153.200 274.400 C 153.200 274.620,153.639 274.800,154.176 274.800 C 154.713 274.800,155.264 274.980,155.400 275.200 C 155.536 275.420,156.256 275.600,157.000 275.600 C 157.744 275.600,158.464 275.780,158.600 276.000 C 158.751 276.244,161.871 276.400,166.624 276.400 L 174.400 276.400 174.400 278.872 C 174.400 281.941,175.927 286.800,176.891 286.800 C 177.061 286.800,177.200 286.993,177.200 287.229 C 177.200 287.866,178.253 288.800,178.971 288.800 C 179.317 288.800,179.600 288.980,179.600 289.200 C 179.600 289.420,179.870 289.600,180.200 289.600 C 180.530 289.600,180.800 289.759,180.800 289.953 C 180.800 290.148,181.160 290.401,181.600 290.516 C 182.323 290.705,182.728 292.455,182.437 294.130 C 182.406 294.311,182.565 294.345,182.790 294.206 C 183.019 294.064,183.200 294.316,183.200 294.776 C 183.200 295.229,183.233 295.735,183.274 295.900 C 183.413 296.469,186.566 299.200,187.082 299.200 C 187.367 299.200,187.600 299.391,187.600 299.624 C 187.600 299.857,187.780 299.936,188.000 299.800 C 188.249 299.646,188.400 300.405,188.400 301.805 C 188.400 304.123,187.838 305.200,186.629 305.200 C 186.283 305.200,186.000 305.380,186.000 305.600 C 186.000 305.820,185.764 306.000,185.476 306.000 C 184.848 306.000,182.400 308.319,182.400 308.914 C 182.400 309.145,182.298 309.231,182.172 309.106 C 181.881 308.814,178.800 312.139,178.800 312.745 C 178.800 312.995,178.620 313.200,178.400 313.200 C 178.180 313.200,178.000 313.661,178.000 314.224 C 178.000 314.804,177.827 315.140,177.600 315.000 C 177.367 314.856,177.200 315.263,177.200 315.976 C 177.200 316.649,177.020 317.200,176.800 317.200 C 176.580 317.200,176.400 317.669,176.400 318.243 C 176.400 319.005,176.239 319.224,175.800 319.055 C 175.227 318.835,174.945 320.544,175.173 322.865 C 175.209 323.230,175.050 323.646,174.819 323.788 C 174.185 324.180,174.262 331.998,174.900 332.006 C 175.271 332.011,175.262 332.100,174.862 332.353 C 174.264 332.732,175.112 334.859,176.097 335.451 C 176.444 335.660,176.430 335.544,176.051 335.077 C 175.549 334.458,175.677 334.400,177.551 334.400 L 179.600 334.400 179.600 335.824 C 179.600 336.671,179.762 337.147,180.000 337.000 C 180.234 336.855,180.400 337.270,180.400 338.000 C 180.400 338.850,180.549 339.155,180.868 338.958 C 181.181 338.765,181.253 338.885,181.085 339.322 C 180.948 339.681,181.007 340.081,181.217 340.211 C 181.428 340.341,181.600 340.763,181.600 341.148 C 181.600 341.534,181.915 342.205,182.300 342.640 C 182.685 343.075,183.049 343.661,183.109 343.942 C 183.308 344.877,184.585 345.882,185.891 346.131 C 186.600 346.266,187.872 346.834,188.717 347.392 C 194.295 351.084,205.910 351.100,211.327 347.424 C 212.090 346.906,213.273 346.360,213.957 346.209 C 214.665 346.054,215.200 345.682,215.200 345.345 C 215.200 345.019,215.380 344.864,215.600 345.000 C 215.820 345.136,216.000 345.006,216.000 344.712 C 216.000 344.417,216.360 343.917,216.800 343.600 C 217.240 343.283,217.600 342.703,217.600 342.312 C 217.600 341.920,217.864 341.600,218.186 341.600 C 218.879 341.600,219.600 340.390,219.600 339.226 C 219.600 338.772,219.780 338.400,220.000 338.400 C 220.220 338.400,220.400 337.860,220.400 337.200 C 220.400 336.540,220.592 336.000,220.827 336.000 C 221.072 336.000,221.146 335.659,221.000 335.200 C 220.770 334.474,220.928 334.400,222.709 334.400 C 224.958 334.400,226.188 333.007,225.112 331.678 C 224.718 331.192,224.716 331.116,225.100 331.347 C 225.418 331.538,225.600 331.411,225.600 331.000 C 225.600 330.644,225.420 330.464,225.200 330.600 C 224.957 330.750,224.802 330.172,224.806 329.124 C 224.811 327.863,224.916 327.561,225.200 328.000 C 225.495 328.457,225.589 328.295,225.594 327.324 C 225.597 326.622,225.420 325.936,225.200 325.800 C 224.590 325.423,224.688 323.490,225.300 323.835 C 225.700 324.061,225.700 324.010,225.300 323.579 C 225.025 323.282,224.800 322.272,224.800 321.333 C 224.800 319.979,224.676 319.673,224.200 319.855 C 223.820 320.001,223.600 319.850,223.600 319.443 C 223.600 319.089,223.816 318.800,224.080 318.800 C 224.453 318.800,224.453 318.693,224.080 318.320 C 223.816 318.056,223.600 317.336,223.600 316.720 C 223.600 316.104,223.420 315.600,223.200 315.600 C 222.980 315.600,222.800 315.240,222.800 314.800 C 222.800 314.360,222.620 314.000,222.400 314.000 C 222.180 314.000,222.000 313.719,222.000 313.376 C 222.000 313.033,221.820 312.864,221.600 313.000 C 221.380 313.136,221.200 312.936,221.200 312.555 C 221.200 311.426,215.423 306.000,214.221 306.000 C 213.467 306.000,213.200 305.791,213.200 305.200 C 213.200 304.760,213.020 304.400,212.800 304.400 C 212.574 304.400,212.400 303.267,212.400 301.800 C 212.400 299.818,212.535 299.200,212.969 299.200 C 213.973 299.200,216.132 297.130,215.528 296.747 C 215.142 296.502,215.215 296.410,215.800 296.403 C 216.257 296.398,216.799 295.966,217.063 295.396 C 217.317 294.848,217.362 294.500,217.163 294.623 C 216.963 294.746,216.800 294.466,216.800 294.000 C 216.800 293.534,216.968 293.257,217.174 293.384 C 217.380 293.511,217.605 293.027,217.674 292.308 C 217.778 291.232,218.076 290.872,219.360 290.269 C 220.218 289.867,221.176 289.281,221.489 288.969 C 221.801 288.656,222.189 288.400,222.350 288.400 C 223.307 288.400,224.800 284.290,224.800 281.653 C 224.800 280.139,224.913 278.338,225.050 277.650 L 225.300 276.400 233.226 276.400 C 238.079 276.400,241.249 276.245,241.400 276.000 C 241.536 275.780,242.256 275.600,243.000 275.600 C 243.744 275.600,244.464 275.420,244.600 275.200 C 244.736 274.980,245.287 274.800,245.824 274.800 C 246.361 274.800,246.800 274.664,246.800 274.498 C 246.800 274.331,247.379 273.939,248.088 273.625 C 249.572 272.968,254.000 268.568,254.000 267.750 C 254.000 267.447,254.136 267.200,254.302 267.200 C 254.686 267.200,255.367 265.605,256.171 262.827 C 256.653 261.163,256.800 258.713,256.800 252.351 C 256.800 244.135,256.980 242.988,258.124 243.937 C 259.053 244.708,281.432 245.528,282.142 244.818 C 282.372 244.588,284.222 244.400,286.256 244.400 C 288.289 244.400,290.064 244.220,290.200 244.000 C 290.336 243.780,291.326 243.600,292.400 243.600 C 293.474 243.600,294.464 243.420,294.600 243.200 C 294.736 242.980,295.557 242.800,296.424 242.800 C 297.291 242.800,298.000 242.620,298.000 242.400 C 298.000 242.180,298.542 242.000,299.205 242.000 C 299.868 242.000,300.723 241.832,301.105 241.627 C 301.487 241.421,302.678 241.016,303.750 240.727 C 304.823 240.437,305.787 239.975,305.893 239.700 C 305.999 239.425,306.567 239.200,307.154 239.200 C 307.765 239.200,308.471 238.857,308.800 238.400 C 309.117 237.960,309.663 237.600,310.013 237.600 C 310.363 237.600,311.036 237.240,311.508 236.800 C 311.980 236.360,312.796 236.000,313.322 236.000 C 314.345 236.000,316.634 234.993,317.016 234.375 C 317.143 234.169,317.597 234.000,318.024 234.000 C 318.451 234.000,318.800 233.820,318.800 233.600 C 318.800 233.380,319.081 233.200,319.424 233.200 C 319.767 233.200,319.936 233.020,319.800 232.800 C 319.581 232.445,320.422 232.205,321.330 232.363 C 321.511 232.394,321.545 232.235,321.406 232.010 C 321.267 231.784,321.394 231.600,321.688 231.600 C 321.983 231.600,322.483 231.240,322.800 230.800 C 323.117 230.360,323.632 230.000,323.945 230.000 C 324.258 230.000,325.035 229.454,325.673 228.787 C 326.311 228.119,327.010 227.682,327.226 227.816 C 327.443 227.950,327.570 227.821,327.510 227.530 C 327.449 227.238,327.625 227.045,327.900 227.100 C 328.175 227.155,328.379 227.065,328.353 226.900 C 328.215 226.029,328.478 225.600,329.149 225.600 C 329.561 225.600,330.416 225.002,331.049 224.272 C 331.682 223.541,332.515 222.827,332.900 222.684 C 333.285 222.542,333.600 222.149,333.600 221.813 C 333.600 221.476,333.825 221.245,334.100 221.300 C 334.375 221.355,334.555 221.175,334.500 220.900 C 334.445 220.625,334.627 220.400,334.905 220.400 C 335.183 220.400,335.757 219.939,336.180 219.375 C 337.741 217.297,338.313 216.800,339.147 216.800 C 339.653 216.800,340.000 217.054,340.000 217.424 C 340.000 217.767,340.180 217.936,340.400 217.800 C 340.620 217.664,340.800 217.743,340.800 217.976 C 340.800 218.209,341.179 218.400,341.643 218.400 C 342.228 218.400,342.415 218.584,342.255 219.000 C 341.969 219.747,343.205 219.819,343.979 219.100 C 344.410 218.700,344.461 218.700,344.235 219.100 C 344.080 219.375,344.143 219.600,344.376 219.600 C 344.609 219.600,344.800 219.349,344.800 219.043 C 344.800 218.736,345.070 218.382,345.400 218.255 C 345.730 218.129,346.000 217.643,346.000 217.176 C 346.000 216.708,346.360 215.869,346.800 215.309 C 347.240 214.750,347.600 213.946,347.600 213.522 C 347.600 213.099,347.780 212.864,348.000 213.000 C 348.360 213.222,348.573 212.697,348.447 211.900 C 348.376 211.451,349.915 211.538,350.200 212.000 C 350.834 213.026,353.600 212.050,353.600 210.800 C 353.600 210.186,354.641 209.174,354.952 209.486 C 355.089 209.622,355.200 209.163,355.200 208.467 C 355.200 207.607,355.393 207.200,355.800 207.200 C 356.130 207.200,356.423 207.020,356.450 206.800 C 356.478 206.580,356.547 206.265,356.604 206.100 C 356.661 205.935,356.839 205.395,357.000 204.900 C 357.162 204.405,357.452 204.000,357.647 204.000 C 357.841 204.000,358.000 203.730,358.000 203.400 C 358.000 203.070,358.180 202.800,358.400 202.800 C 358.620 202.800,358.800 202.429,358.800 201.976 C 358.800 201.523,358.980 201.264,359.200 201.400 C 359.420 201.536,359.600 201.382,359.600 201.057 C 359.600 200.732,359.740 200.407,359.911 200.333 C 360.432 200.110,363.200 194.108,363.200 193.201 C 363.200 192.735,363.380 192.464,363.600 192.600 C 363.820 192.736,364.000 192.567,364.000 192.224 C 364.000 191.881,364.191 191.600,364.424 191.600 C 364.657 191.600,364.752 191.447,364.636 191.259 C 364.520 191.071,364.684 190.576,365.000 190.159 C 365.316 189.742,365.580 188.886,365.587 188.257 C 365.597 187.408,365.754 187.174,366.200 187.345 C 366.530 187.471,366.800 187.377,366.800 187.134 C 366.800 186.892,367.142 186.397,367.560 186.035 C 367.978 185.672,368.383 184.931,368.460 184.388 C 368.608 183.347,369.242 182.389,369.629 182.622 C 369.756 182.698,369.900 181.869,369.949 180.780 C 370.022 179.175,369.915 178.800,369.384 178.800 C 369.023 178.800,368.371 178.395,367.934 177.900 C 367.497 177.405,367.253 177.225,367.393 177.500 C 367.545 177.799,367.387 178.000,367.000 178.000 C 366.644 178.000,366.464 177.820,366.600 177.600 C 366.736 177.380,366.567 177.200,366.224 177.200 C 365.881 177.200,365.600 177.020,365.600 176.800 C 365.600 176.580,365.240 176.400,364.800 176.400 C 364.356 176.400,364.000 176.133,364.000 175.800 C 364.000 175.470,363.752 175.200,363.449 175.200 C 363.146 175.200,362.684 174.943,362.423 174.628 C 362.162 174.313,361.595 174.124,361.164 174.207 C 360.732 174.290,360.484 174.188,360.613 173.979 C 360.742 173.771,360.649 173.600,360.407 173.600 C 360.165 173.600,359.580 173.240,359.108 172.800 C 358.636 172.360,357.934 172.000,357.548 172.000 C 357.163 172.000,356.736 171.820,356.600 171.600 C 355.697 170.138,352.000 171.562,352.000 173.371 C 352.000 173.981,351.796 174.359,351.500 174.300 C 351.225 174.245,351.048 174.495,351.107 174.854 C 351.166 175.214,350.944 175.613,350.614 175.739 C 350.239 175.883,350.112 176.227,350.276 176.654 C 350.477 177.177,350.381 177.278,349.869 177.082 C 349.383 176.895,349.200 177.041,349.200 177.613 C 349.200 178.046,349.020 178.400,348.800 178.400 C 348.580 178.400,348.400 178.670,348.400 179.000 C 348.400 179.330,348.220 179.600,348.000 179.600 C 347.780 179.600,347.600 180.061,347.600 180.624 C 347.600 181.204,347.427 181.540,347.200 181.400 C 346.980 181.264,346.800 181.409,346.800 181.722 C 346.800 182.036,346.398 182.803,345.907 183.427 C 345.416 184.051,345.281 184.409,345.607 184.222 C 346.088 183.947,346.106 183.984,345.701 184.420 C 345.286 184.868,345.120 184.852,344.701 184.323 C 343.932 183.351,340.399 181.546,339.197 181.512 C 338.212 181.484,338.120 181.340,338.058 179.715 C 338.017 178.611,338.143 178.041,338.396 178.197 C 338.618 178.335,338.800 178.092,338.800 177.657 C 338.800 177.222,338.967 176.807,339.170 176.733 C 339.374 176.660,339.599 176.330,339.670 176.000 C 339.742 175.670,339.894 175.310,340.009 175.200 C 340.714 174.526,341.600 172.690,341.600 171.902 C 341.600 171.393,341.960 170.717,342.400 170.400 C 342.870 170.061,343.200 169.365,343.200 168.712 C 343.200 168.100,343.380 167.600,343.600 167.600 C 343.820 167.600,344.000 166.970,344.000 166.200 C 344.000 165.430,343.809 164.800,343.576 164.800 C 343.343 164.800,343.242 164.656,343.351 164.480 C 343.459 164.304,343.181 163.931,342.732 163.651 C 342.282 163.369,342.035 163.333,342.182 163.570 C 342.328 163.807,342.179 164.000,341.851 164.000 C 341.522 164.000,341.140 163.640,341.000 163.200 C 340.775 162.491,340.076 162.188,339.070 162.363 C 338.889 162.394,338.831 162.274,338.941 162.095 C 339.052 161.916,338.570 161.539,337.871 161.256 C 337.172 160.974,336.122 160.486,335.538 160.172 C 334.954 159.857,334.054 159.597,333.538 159.594 C 332.786 159.589,332.719 159.511,333.200 159.200 C 333.685 158.886,333.628 158.811,332.900 158.806 C 332.405 158.803,332.000 158.609,332.000 158.376 C 332.000 158.143,331.820 158.064,331.600 158.200 C 331.380 158.336,331.200 158.246,331.200 158.000 C 331.200 157.754,331.020 157.664,330.800 157.800 C 330.580 157.936,330.400 157.857,330.400 157.624 C 330.400 157.391,329.669 157.200,328.776 157.200 C 327.651 157.200,327.240 157.058,327.438 156.738 C 327.615 156.452,327.548 156.385,327.262 156.562 C 327.008 156.719,326.800 157.287,326.800 157.824 C 326.800 158.441,326.571 158.800,326.176 158.800 C 325.833 158.800,325.670 158.990,325.813 159.221 C 325.956 159.453,325.697 159.969,325.237 160.368 C 324.777 160.767,324.400 161.360,324.400 161.685 C 324.400 162.010,324.044 162.598,323.609 162.991 C 323.175 163.385,322.906 163.847,323.012 164.019 C 323.118 164.191,323.037 164.392,322.832 164.466 C 322.628 164.540,322.401 164.863,322.330 165.184 C 322.258 165.506,321.885 166.125,321.500 166.560 C 321.115 166.995,320.800 167.666,320.800 168.052 C 320.800 168.437,320.620 168.864,320.400 169.000 C 320.180 169.136,320.000 169.867,320.000 170.624 C 320.000 171.593,319.819 172.000,319.387 172.000 C 319.051 172.000,318.656 172.315,318.510 172.700 C 318.364 173.085,318.010 173.638,317.722 173.929 C 317.435 174.219,317.197 174.939,317.194 175.529 C 317.189 176.367,317.104 176.470,316.800 176.000 C 316.486 175.515,316.411 175.572,316.406 176.300 C 316.403 176.795,316.263 177.200,316.096 177.200 C 315.929 177.200,315.556 177.579,315.267 178.042 C 314.978 178.505,314.934 178.764,315.170 178.618 C 315.782 178.240,315.702 178.755,315.048 179.410 C 314.744 179.713,314.384 179.850,314.248 179.714 C 314.111 179.578,314.000 180.056,314.000 180.776 C 314.000 181.692,313.703 182.318,313.011 182.863 C 310.643 184.726,309.079 189.715,310.600 190.557 C 311.941 191.299,311.957 191.630,310.757 193.816 C 310.121 194.975,309.600 196.391,309.600 196.962 C 309.600 197.533,309.420 198.000,309.200 198.000 C 308.617 198.000,308.709 201.091,309.300 201.367 C 309.700 201.553,309.700 201.647,309.300 201.833 C 309.025 201.962,308.800 202.322,308.800 202.633 C 308.800 202.971,308.396 203.200,307.800 203.200 C 307.250 203.200,306.800 203.380,306.800 203.600 C 306.800 203.820,306.626 204.000,306.412 204.000 C 305.915 204.000,300.243 207.641,300.067 208.074 C 299.993 208.253,299.588 208.400,299.167 208.400 C 298.745 208.400,298.400 208.580,298.400 208.800 C 298.400 209.020,298.051 209.200,297.624 209.200 C 297.197 209.200,296.736 209.380,296.600 209.600 C 296.464 209.820,295.949 210.000,295.456 210.000 C 294.963 210.000,294.389 210.149,294.180 210.330 C 293.971 210.512,292.990 210.890,292.000 211.169 C 291.010 211.449,289.887 211.840,289.505 212.039 C 289.123 212.238,288.303 212.400,287.682 212.400 C 287.061 212.400,286.204 212.664,285.776 212.987 C 284.619 213.863,263.421 213.876,261.746 213.002 C 261.116 212.674,260.116 212.404,259.524 212.402 C 258.932 212.401,258.336 212.220,258.200 212.000 C 258.064 211.780,257.317 211.600,256.539 211.600 C 255.462 211.600,255.075 211.410,254.916 210.800 C 254.801 210.360,254.548 210.000,254.353 210.000 C 254.159 210.000,254.000 209.725,254.000 209.388 C 254.000 209.052,252.830 207.624,251.400 206.215 C 249.045 203.894,248.056 202.000,249.200 202.000 C 249.420 202.000,249.600 201.475,249.600 200.833 C 249.600 200.192,249.798 199.601,250.039 199.520 C 250.827 199.258,250.984 194.252,250.251 192.783 C 248.858 189.989,248.703 190.052,257.500 189.860 C 265.474 189.686,268.337 189.441,269.800 188.808 C 270.240 188.618,271.365 188.144,272.300 187.754 C 273.235 187.365,274.000 186.901,274.000 186.723 C 274.000 186.545,274.227 186.400,274.504 186.400 C 275.204 186.400,277.578 184.188,279.440 181.800 C 280.298 180.700,281.135 179.740,281.300 179.667 C 281.465 179.593,281.600 179.285,281.600 178.981 C 281.600 177.851,283.224 177.600,290.674 177.576 C 298.541 177.551,302.063 177.211,302.316 176.451 C 302.399 176.203,302.776 176.000,303.154 176.000 C 304.021 176.000,305.993 175.098,305.997 174.700 C 305.999 174.535,306.251 174.400,306.559 174.400 C 307.031 174.400,308.056 173.367,310.014 170.917 C 310.226 170.651,310.400 170.126,310.400 169.750 C 310.400 169.374,310.518 169.184,310.662 169.328 C 310.805 169.472,311.309 168.827,311.781 167.895 C 312.349 166.774,312.497 166.101,312.220 165.906 C 311.945 165.714,311.973 165.610,312.300 165.606 C 312.579 165.603,312.800 165.106,312.800 164.480 C 312.800 163.864,313.025 163.135,313.300 162.860 C 313.892 162.269,314.284 149.238,313.740 148.262 C 313.544 147.912,313.443 150.097,313.500 153.403 C 313.562 156.920,313.445 159.248,313.200 159.400 C 312.627 159.754,312.663 147.897,313.237 147.323 C 313.553 147.007,313.553 146.660,313.237 146.069 C 312.997 145.620,312.800 144.881,312.800 144.426 C 312.800 143.972,312.620 143.600,312.400 143.600 C 312.180 143.600,312.000 143.010,312.000 142.288 C 312.000 141.435,311.720 140.775,311.200 140.400 C 310.760 140.083,310.400 139.614,310.400 139.357 C 310.400 137.012,304.260 132.000,301.387 132.000 C 300.870 132.000,300.336 131.820,300.200 131.600 C 300.047 131.353,296.593 131.200,291.168 131.200 L 282.383 131.200 281.948 130.100 C 281.709 129.495,281.353 128.687,281.157 128.305 C 280.961 127.923,280.800 127.259,280.800 126.829 C 280.800 126.399,280.620 125.936,280.400 125.800 C 280.180 125.664,280.000 125.113,280.000 124.576 C 280.000 124.039,279.820 123.600,279.600 123.600 C 279.380 123.600,279.200 123.238,279.200 122.795 C 279.200 122.352,279.037 121.677,278.838 121.295 C 278.638 120.913,277.286 118.170,275.833 115.200 C 274.381 112.230,272.699 109.232,272.096 108.537 C 269.966 106.082,269.600 105.586,269.600 105.156 C 269.600 104.917,269.060 104.217,268.400 103.600 C 267.740 102.983,267.200 102.372,267.200 102.240 C 267.200 101.417,263.765 97.532,259.718 93.778 C 257.123 91.372,254.523 88.907,253.940 88.302 C 253.356 87.696,252.681 87.200,252.440 87.200 C 252.198 87.200,252.000 87.061,252.000 86.891 C 252.000 86.721,251.325 86.226,250.500 85.791 C 249.675 85.356,248.651 84.685,248.225 84.300 C 247.798 83.915,247.213 83.600,246.925 83.600 C 246.636 83.600,246.400 83.420,246.400 83.200 C 246.400 82.980,246.130 82.800,245.800 82.800 C 245.470 82.800,245.200 82.641,245.200 82.447 C 245.200 82.252,244.885 81.984,244.500 81.849 C 244.115 81.715,243.080 81.070,242.200 80.416 C 241.320 79.762,240.285 79.221,239.900 79.213 C 239.515 79.206,239.200 79.020,239.200 78.800 C 239.200 78.580,238.840 78.400,238.400 78.400 C 237.960 78.400,237.600 78.220,237.600 78.000 C 237.600 77.780,237.251 77.600,236.824 77.600 C 236.397 77.600,235.936 77.420,235.800 77.200 C 235.664 76.980,235.203 76.800,234.776 76.800 C 234.349 76.800,234.000 76.662,234.000 76.494 C 234.000 76.104,230.359 74.800,229.270 74.800 C 228.817 74.800,228.336 74.620,228.200 74.400 C 228.064 74.180,227.423 74.000,226.776 74.000 C 226.129 74.000,225.600 73.820,225.600 73.600 C 225.600 73.380,224.970 73.200,224.200 73.200 C 223.430 73.200,222.800 73.020,222.800 72.800 C 222.800 72.580,222.170 72.400,221.400 72.400 C 220.630 72.400,220.000 72.220,220.000 72.000 C 220.000 71.780,219.136 71.600,218.080 71.600 C 217.024 71.600,215.977 71.417,215.753 71.193 C 214.745 70.185,192.406 68.927,191.506 69.827 M207.400 77.602 C 213.180 78.236,218.341 79.247,218.833 79.840 C 219.831 81.042,218.950 81.600,216.055 81.600 C 212.950 81.600,212.804 81.731,212.794 84.533 C 212.784 87.321,212.721 87.348,207.581 86.780 C 204.521 86.442,201.107 86.377,197.029 86.580 C 193.713 86.744,190.378 86.906,189.617 86.940 L 188.234 87.000 187.817 84.400 L 187.400 81.800 184.404 81.600 C 182.013 81.440,181.382 81.264,181.280 80.727 C 180.842 78.422,197.125 76.474,207.400 77.602 M176.400 84.200 L 176.600 86.600 179.182 86.477 C 184.727 86.213,185.108 87.762,179.904 89.406 C 154.642 97.387,135.829 119.388,132.416 144.941 C 131.976 148.234,131.795 148.800,131.176 148.800 C 130.670 148.800,130.700 145.434,131.272 138.108 C 131.813 131.187,131.926 131.526,129.000 131.283 C 126.333 131.062,126.298 130.892,128.028 126.510 C 135.830 106.744,150.866 91.594,171.400 82.809 C 175.527 81.043,176.151 81.217,176.400 84.200 M228.807 82.634 C 248.266 90.541,264.096 106.057,271.945 124.918 C 274.071 130.024,274.203 131.200,272.650 131.200 C 272.127 131.200,271.111 131.318,270.392 131.462 L 269.084 131.723 269.337 136.562 C 269.476 139.223,269.709 143.065,269.854 145.100 C 270.085 148.337,270.038 148.800,269.477 148.800 C 269.043 148.800,268.764 148.317,268.613 147.300 C 264.479 119.507,246.658 97.505,222.066 89.832 C 215.620 87.821,215.246 85.814,221.462 86.590 C 224.146 86.926,224.385 86.691,224.394 83.700 C 224.401 81.152,224.876 81.037,228.807 82.634 M206.600 92.802 C 218.338 94.093,231.714 99.566,239.265 106.167 C 243.187 109.595,244.440 110.801,246.960 113.569 C 260.552 128.498,267.490 156.255,259.535 163.880 C 256.719 166.579,260.945 166.400,200.167 166.400 L 145.108 166.400 143.152 165.335 C 138.634 162.876,137.326 159.242,138.016 151.061 C 140.686 119.376,163.152 96.351,195.000 92.659 C 197.602 92.357,203.180 92.426,206.600 92.802 M167.197 125.574 C 158.685 128.163,152.960 144.721,160.633 144.560 C 163.076 144.509,163.797 143.656,164.135 140.415 C 165.331 128.974,176.000 129.754,176.000 141.282 C 176.000 143.464,177.077 144.512,179.367 144.560 C 182.690 144.630,183.550 142.324,182.195 136.984 C 180.061 128.575,173.569 123.636,167.197 125.574 M227.743 125.557 C 220.303 127.476,214.120 143.261,220.296 144.568 C 222.997 145.140,224.782 143.633,224.794 140.773 C 224.840 129.737,235.068 129.184,236.444 140.143 C 237.185 146.037,243.208 146.658,243.195 140.838 C 243.174 130.993,235.623 123.525,227.743 125.557 M126.223 140.300 C 125.203 154.988,125.003 153.919,128.800 154.086 L 131.400 154.200 131.665 156.876 C 132.388 164.196,135.380 168.654,141.487 171.516 L 143.800 172.600 200.400 172.600 L 257.000 172.600 259.629 171.313 C 265.396 168.491,269.162 162.265,269.193 155.500 L 269.200 154.000 271.700 153.994 C 275.532 153.984,275.399 154.284,274.825 146.939 C 274.072 137.305,274.077 136.254,274.878 136.089 C 277.059 135.641,278.734 153.915,277.420 163.825 C 275.914 175.189,273.489 179.356,267.354 181.125 C 264.176 182.042,134.891 181.783,132.451 180.856 C 127.749 179.070,125.323 175.698,123.921 169.000 C 121.808 158.907,123.148 136.000,125.851 136.000 C 126.455 136.000,126.492 136.424,126.223 140.300 M112.800 141.000 C 112.910 141.880,112.910 148.630,112.800 156.000 L 112.600 169.400 106.799 169.510 L 100.998 169.620 98.814 168.310 C 97.337 167.425,96.235 166.362,95.414 165.032 L 94.200 163.065 94.062 155.248 C 93.822 141.669,95.928 139.071,106.999 139.290 L 112.600 139.400 112.800 141.000 M300.641 139.963 C 305.212 142.039,306.144 144.385,306.135 153.800 C 306.126 164.164,305.230 166.581,300.593 168.761 C 297.794 170.077,287.809 170.030,287.452 168.700 C 287.121 167.464,287.135 139.799,287.467 139.467 C 288.134 138.800,298.979 139.208,300.641 139.963 M87.104 154.300 L 86.955 155.400 86.634 154.300 C 86.458 153.695,86.458 152.705,86.634 152.100 L 86.955 151.000 87.104 152.100 C 87.186 152.705,87.186 153.695,87.104 154.300 M333.074 167.236 C 335.484 168.403,335.562 168.149,329.483 178.961 C 327.086 183.223,327.012 183.027,332.000 185.662 C 334.090 186.766,337.214 188.464,338.943 189.435 C 340.672 190.406,342.210 191.200,342.362 191.200 C 342.513 191.200,343.619 191.825,344.819 192.590 C 348.469 194.915,348.566 194.822,354.641 183.144 C 356.384 179.793,356.399 179.785,358.529 181.079 C 361.146 182.669,361.064 183.178,357.150 189.600 C 356.948 189.930,356.505 190.808,356.165 191.551 C 355.825 192.295,354.883 194.016,354.073 195.376 C 353.263 196.737,352.277 198.475,351.883 199.240 C 351.488 200.005,350.745 201.157,350.232 201.801 C 349.166 203.138,349.746 203.299,343.800 200.008 C 341.820 198.912,339.480 197.653,338.600 197.210 C 337.720 196.767,335.920 195.802,334.600 195.064 C 330.440 192.741,323.060 188.727,321.500 187.939 C 319.339 186.848,319.645 185.846,325.209 175.800 C 327.278 172.065,328.851 169.121,329.538 167.700 C 330.275 166.175,330.754 166.113,333.074 167.236 M240.570 190.771 C 244.025 194.120,243.250 199.756,239.062 201.744 C 237.368 202.548,163.824 202.767,161.726 201.975 C 157.664 200.440,156.122 195.534,158.555 191.889 C 160.471 189.020,157.813 189.183,200.678 189.297 L 239.156 189.400 240.570 190.771 M324.662 193.849 C 326.608 194.865,328.740 196.015,329.400 196.404 C 330.060 196.793,332.490 198.105,334.800 199.320 C 344.684 204.517,344.161 204.014,342.766 206.984 C 341.233 210.244,340.962 210.163,326.000 201.990 C 323.470 200.608,320.680 199.090,319.800 198.618 C 317.859 197.576,317.793 196.646,319.464 193.895 C 320.848 191.618,320.399 191.622,324.662 193.849 M323.558 203.400 C 325.061 204.390,326.467 205.200,326.683 205.200 C 326.899 205.200,327.402 205.560,327.800 206.000 C 328.198 206.440,328.664 206.800,328.835 206.800 C 329.629 206.800,333.199 209.391,333.189 209.960 C 333.159 211.705,323.681 221.610,322.057 221.593 C 321.696 221.589,320.562 220.824,319.537 219.893 C 318.513 218.962,317.244 217.840,316.717 217.400 C 309.717 211.553,309.346 210.949,311.700 209.222 C 313.726 207.735,319.200 202.419,319.200 201.938 C 319.200 201.122,321.033 201.737,323.558 203.400 M242.599 209.242 C 247.753 210.539,249.254 213.738,249.109 223.115 L 249.000 230.200 221.120 230.400 C 202.998 230.530,193.097 230.743,192.832 231.007 C 192.609 231.231,192.375 233.751,192.313 236.607 L 192.200 241.800 184.200 241.928 C 179.800 241.998,170.575 241.932,163.700 241.782 L 151.200 241.508 151.209 228.654 C 151.219 213.075,151.765 211.335,157.255 209.348 C 159.093 208.682,239.980 208.582,242.599 209.242 M167.000 211.333 C 155.172 215.230,153.594 230.933,164.440 236.812 C 174.365 242.193,186.412 233.663,184.704 222.465 C 183.494 214.534,174.483 208.868,167.000 211.333 M123.180 212.900 C 123.379 213.395,124.026 215.510,124.617 217.600 C 125.208 219.690,126.031 222.518,126.446 223.884 C 127.669 227.912,127.614 227.983,123.267 228.027 C 121.800 228.041,118.890 228.283,116.800 228.563 C 112.011 229.206,112.432 229.449,110.401 224.882 C 109.452 222.747,107.983 219.490,107.138 217.645 C 106.292 215.799,105.600 214.242,105.600 214.185 C 105.600 213.644,115.834 212.087,119.709 212.039 C 122.576 212.003,122.845 212.070,123.180 212.900 M138.791 212.599 C 144.323 213.328,143.850 212.745,143.258 218.110 C 141.980 229.699,142.225 229.299,136.843 228.592 C 132.159 227.977,132.185 227.991,131.669 225.800 C 131.462 224.920,130.626 221.680,129.812 218.600 C 128.271 212.767,128.276 212.787,128.353 212.300 C 128.431 211.803,133.958 211.961,138.791 212.599 M311.816 219.256 C 314.997 222.146,317.600 224.658,317.600 224.836 C 317.600 225.806,308.032 230.820,302.764 232.612 C 299.471 233.732,299.984 234.202,296.305 226.698 C 292.135 218.194,292.124 218.969,296.431 217.600 C 297.844 217.151,300.260 216.172,301.800 215.426 C 305.698 213.537,305.395 213.421,311.816 219.256 M100.650 215.906 C 100.898 216.068,102.570 219.247,104.366 222.970 C 108.084 230.680,108.116 230.183,103.800 231.590 C 102.260 232.092,99.765 233.110,98.256 233.851 C 94.735 235.582,95.120 235.667,91.399 232.338 C 83.031 224.852,82.649 224.429,83.456 223.539 C 84.307 222.598,93.418 218.018,97.200 216.630 C 100.286 215.497,100.087 215.538,100.650 215.906 M175.622 216.739 C 180.767 220.036,181.611 226.404,177.480 230.744 C 171.554 236.970,161.450 232.279,162.078 223.594 C 162.546 217.119,170.183 213.254,175.622 216.739 M265.396 220.755 C 268.335 221.056,268.243 220.897,270.408 229.382 C 272.517 237.648,272.569 237.201,269.500 237.197 C 266.106 237.192,257.608 236.105,256.996 235.596 C 256.646 235.307,256.593 234.685,256.816 233.493 C 256.990 232.562,257.428 229.550,257.791 226.800 C 258.694 219.945,258.748 219.838,261.111 220.211 C 262.150 220.375,264.078 220.620,265.396 220.755 M288.477 220.900 C 289.431 222.409,294.400 233.852,294.400 234.540 C 294.400 234.906,293.967 235.275,293.400 235.392 C 292.850 235.507,291.905 235.707,291.300 235.837 C 288.886 236.359,281.670 237.194,279.553 237.197 L 277.305 237.200 276.623 234.700 C 276.247 233.325,275.772 231.660,275.567 231.000 C 272.469 221.042,272.378 221.378,278.267 221.016 C 280.870 220.855,283.720 220.582,284.600 220.408 C 287.278 219.879,287.880 219.955,288.477 220.900 M80.876 229.300 C 85.299 233.014,90.400 237.789,90.400 238.214 C 90.400 238.462,89.635 239.216,88.700 239.891 C 87.765 240.566,85.529 242.576,83.731 244.359 C 79.848 248.209,80.774 248.087,76.289 245.343 C 74.260 244.102,71.385 242.369,69.900 241.492 C 66.649 239.571,66.600 239.245,69.100 236.147 C 72.086 232.446,77.266 227.600,78.236 227.600 C 78.575 227.600,79.762 228.365,80.876 229.300 M249.106 249.112 C 249.239 263.751,248.401 266.275,242.857 267.936 C 239.894 268.823,158.584 268.557,156.600 267.654 C 152.257 265.676,151.135 262.859,151.289 254.318 L 151.400 248.200 174.516 248.336 C 192.207 248.440,197.768 248.358,198.216 247.987 C 198.670 247.610,198.800 246.413,198.800 242.618 C 198.800 239.931,198.921 237.612,199.070 237.464 C 199.218 237.315,210.513 237.240,224.170 237.297 L 249.000 237.400 249.106 249.112 M61.902 240.522 C 62.946 241.030,66.300 242.785,69.355 244.422 C 72.411 246.060,76.451 248.210,78.333 249.200 C 80.215 250.190,81.924 251.283,82.130 251.628 C 82.876 252.877,79.772 257.755,78.747 256.943 C 78.181 256.495,74.577 254.522,68.000 251.061 C 65.910 249.961,63.480 248.653,62.600 248.155 C 61.720 247.657,60.137 246.781,59.081 246.208 C 56.686 244.909,56.531 244.500,57.620 242.339 C 59.207 239.190,59.183 239.201,61.902 240.522 M202.800 252.792 L 202.800 264.785 203.700 265.003 C 204.195 265.123,213.510 265.172,224.400 265.111 L 244.200 265.000 244.306 252.900 L 244.412 240.800 223.606 240.800 L 202.800 240.800 202.800 252.792 M239.607 245.808 C 240.348 246.701,239.939 259.539,239.155 260.037 C 238.056 260.732,208.939 260.482,208.229 259.771 C 207.576 259.119,207.246 246.087,207.867 245.467 C 208.492 244.842,239.078 245.171,239.607 245.808 M53.574 247.348 C 53.918 247.644,56.270 248.970,58.800 250.296 C 61.330 251.621,65.200 253.691,67.400 254.894 C 69.600 256.098,72.840 257.852,74.600 258.792 C 79.556 261.439,80.401 262.014,80.389 262.733 C 80.375 263.616,77.745 268.823,72.982 277.400 C 72.372 278.500,71.476 280.120,70.992 281.000 C 69.970 282.857,68.799 283.023,66.796 281.597 C 65.242 280.491,65.276 280.171,67.319 276.712 C 68.264 275.110,69.467 272.900,69.992 271.800 C 70.517 270.700,71.379 269.137,71.909 268.327 C 73.223 266.315,72.863 265.629,69.693 264.106 C 68.212 263.394,66.100 262.303,65.000 261.682 C 63.900 261.062,61.650 259.817,60.000 258.916 C 58.350 258.015,55.959 256.704,54.686 256.002 C 52.015 254.528,51.768 254.614,50.299 257.533 C 44.900 268.256,44.065 269.467,42.747 268.479 C 42.226 268.088,41.305 267.554,40.700 267.293 C 39.097 266.600,39.095 266.608,42.523 260.800 C 43.943 258.395,45.570 255.437,45.971 254.533 C 49.096 247.482,51.303 245.396,53.574 247.348 M216.826 275.214 C 218.113 275.902,217.959 281.678,216.618 283.018 L 215.636 284.000 202.918 284.092 C 184.934 284.222,184.401 284.191,183.300 282.961 C 182.395 281.950,181.977 277.167,182.643 275.433 C 182.938 274.663,215.408 274.455,216.826 275.214 M208.900 286.421 L 210.400 286.838 210.400 289.396 C 210.400 293.237,210.500 293.201,199.811 293.194 C 194.965 293.191,190.739 293.023,190.421 292.821 C 189.460 292.213,189.305 287.205,190.226 286.532 C 191.130 285.871,206.588 285.779,208.900 286.421 M204.845 295.660 C 205.281 296.348,205.294 301.632,204.862 302.314 C 204.620 302.694,203.353 302.798,199.968 302.714 L 195.400 302.600 195.283 299.261 C 195.123 294.670,195.156 294.642,200.344 294.907 C 203.210 295.053,204.609 295.287,204.845 295.660 M207.738 310.687 C 213.397 313.635,217.457 319.208,217.901 324.638 C 218.168 327.920,219.168 327.738,200.100 327.893 C 180.707 328.052,181.781 328.258,182.170 324.459 C 183.373 312.701,197.252 305.226,207.738 310.687 M229.505 355.483 C 230.002 355.579,230.722 355.575,231.105 355.475 C 231.487 355.375,231.080 355.296,230.200 355.301 C 229.320 355.305,229.007 355.387,229.505 355.483 " stroke="none" fill="#24201e" fill-rule="evenodd"></path></g></svg>