<?xml version="1.0" standalone="no"?>
<!DOCTYPE svg PUBLIC "-//W3C//DTD SVG 1.1//EN" "http://www.w3.org/Graphics/SVG/1.1/DTD/svg11.dtd">
<svg xmlns="http://www.w3.org/2000/svg">
<metadata>Generated by Fontastic.me</metadata>
<defs>
<font id="pbox14" horiz-adv-x="512">
<font-face font-family="pbox14" units-per-em="512" ascent="480" descent="-32"/>
<missing-glyph horiz-adv-x="512" />

<glyph glyph-name="customize" unicode="&#104;" d="M464 300c-22 0-43-26-43-4l0 116-110 0c-26 0 4-27 4-52 0-26-21-47-47-47-25 0-46 21-46 47 0 25 32 52 6 52l-120 0 0-111c0-25-27 7-52 7-25 0-46-21-46-47 0-25 21-47 46-47 26 0 52 31 52 5l0-119 125 0c22 0-3 22-3 43 0 22 17 39 38 39 22 0 39-17 39-39 0-21-26-43-5-43l118 0 0 127c0 22 22-5 43-5 21 0 39 18 39 39 0 21-17 39-38 39z"/>
<glyph glyph-name="layout" unicode="&#115;" d="M10 502l0-492 492 0 0 492z m457-457l-422 0 0 422 423 0 0-422z m-365 250l79 0 0-190-79 0z m125-1l180 0 0-188-180 0z m-125 123l306 0 0-75-306 0z"/>
<glyph glyph-name="log-out" unicode="&#116;" d="M256 22c-117 0-212 95-212 212 0 89 54 165 132 196 2 1 4 2 7 2 12 0 22-10 22-22 0-10-6-18-15-21-60-25-102-85-102-155 0-93 75-168 168-168 93 0 168 75 168 168 0 70-42 130-102 155-9 3-15 11-15 21 0 12 10 22 22 22 2 0 5-1 7-2 78-31 132-107 132-196 0-117-95-212-212-212m0 227c-12 0-22 9-22 22l0 197c0 13 10 22 22 22 12 0 22-9 22-22l0-197c0-13-10-22-22-22"/>
<glyph glyph-name="newsletter" unicode="&#66;" d="M279 266l153 0 0-30-153 0z m0-64l153 0 0-29-153 0z m0-64l153 0 0-29-153 0z m-121 128l73 0 0-74-73 0z m0 138l274 0 0-91-274 0z m344-293l0 367-416 0 0-63-76 0 0-329c0-30 24-53 53-53l385 0c30 1 54 26 54 56z m-416-24c0-13-11-24-24-24-13 0-24 11-24 24l0 300 48 0z m360-24l-336 0c4 7 6 15 6 24l0 362 358 0 0-359c-1-15-12-27-28-27z"/>
<glyph glyph-name="pages" unicode="&#67;" d="M60 399l0-337 289 0 153 169 0 168z m29-30l384 0 0-124-142 0 0-154-242 0z m360-153l-89-99 0 99z m3 205l0 29-442 0 0-337 29 0 0 308z"/>
<glyph glyph-name="search" unicode="&#69;" d="M494 61l-148 148c-1 1-1 2-2 2 21 30 33 66 33 106 0 101-82 184-184 184-102 0-184-82-184-184 0-101 82-184 184-184 41 0 79 14 110 37 1-1 1-1 1-2l149-148c6-6 13-9 20-9 8 0 15 3 21 9 11 11 11 29 0 41z m-456 256c0 85 70 155 155 155 86 0 155-70 155-155 0-86-69-155-155-155-85 0-155 70-155 155z"/>
<glyph glyph-name="select" unicode="&#70;" d="M256 10c-136 0-246 110-246 246 0 136 110 246 246 246 136 0 246-110 246-246 0-136-110-246-246-246m0 446c-110 0-200-90-200-200 0-110 90-200 200-200 110 0 200 90 200 200 0 110-90 200-200 200"/>
<glyph glyph-name="settings" unicode="&#71;" d="M502 234l0 44-67 26c-4 16-11 31-19 45l29 66-30 31-66-29c-14 8-29 15-45 19l-26 66-44 0-26-67c-16-4-31-11-45-19l-66 29-31-30 29-66c-8-14-15-29-19-45l-66-26 0-44 67-26c4-16 11-31 19-45l-29-66 30-30 66 29c14-8 29-15 45-19l26-67 44 0 26 67c16 4 31 11 45 19l66-29 30 30-29 66c8 14 15 29 19 45z m-246-107c-72 0-129 57-129 129 0 72 57 129 129 129 72 0 129-57 129-129 0-72-57-129-129-129z"/>
<glyph glyph-name="sort-list" unicode="&#73;" d="M150 402l352 0 0-44-352 0z m0-125l352 0 0-44-352 0z m0-123l352 0 0-44-352 0z m-140 248l93 0 0-44-93 0z m0-125l93 0 0-44-93 0z m0-123l93 0 0-44-93 0z"/>
<glyph glyph-name="source" unicode="&#74;" d="M378 380l-20-20 103-104-103-104 20-20 124 124z m-368-124l124-124 20 20-103 104 104 104-21 20z m305 114l-92-238-27 10 91 238z"/>
<glyph glyph-name="statistics" unicode="&#76;" d="M95 70l203 0 0-58-203 0z m0 108l406 0 0-58-406 0z m0 216l163 0 0-59-163 0z m0-108l64 0 0-59-64 0z m0 216l318 0 0-59-318 0z m-83 0l29 0 0-492-29 0z"/>
<glyph glyph-name="tools" unicode="&#77;" d="M148 278l49-50 18 18-28 28 43 43 6-1c2 0 3 0 5 0 3 0 5 0 8 1l-32 32c0 1-1 1-2 1 10 35 1 75-27 103-28 28-67 36-102 27l60-59-16-59-58-15-60 59c-9-35 0-74 27-102 30-30 72-38 109-26z m175-36c0-4-1-9 0-13l0-6-4-4-31-30-9-9-27 27-16-17 157-157c9-10 22-15 35-15 12 0 25 5 35 15 20 20 20 50 0 70z m122-193l-25-7-21 21 7 25 25 6 20-20z m-192 175l27-27 31 30c-2 16 3 31 14 43 12 12 28 16 43 15l134 134-75 75-134-134c1-15-3-31-15-43-12-11-27-16-42-14l-31-31 27-27-133-133-5 5-26-20-43-68 12-11 68 43 20 25-5 5z"/>
<glyph glyph-name="upload" unicode="&#78;" d="M481 110l-159 0 0-37 29-29 0-7-190 0 0 7 29 29 0 37-159 0c-12 0-21 9-21 22l0 292c0 13 9 22 21 22l156 0-30-29-118 0 0-249 434 0 0 249-118 0-30 29 156 0c12 0 21-9 21-22l0-292c0-13-9-22-21-22m-147 286l-78 79-78-78 20-20 43 43 0-142 30 0 0 142 43-44z"/>
<glyph glyph-name="updating" unicode="&#79;" d="M468 322l-95 0c-12 0-22 9-22 22 0 12 10 22 22 22l38 0c-34 48-91 80-155 80-105 0-190-85-190-190 0-12-10-22-22-22-13 0-22 10-22 22 0 129 105 234 234 234 78 0 148-39 190-98l0 40c0 12 10 21 22 21 13 0 22-9 22-21l0-88c0-13-9-22-22-22m-424-132l95 0c12 0 22-9 22-22 0-12-10-22-22-22l-38 0c34-49 91-80 155-80 105 0 190 85 190 190 0 12 10 22 22 22 13 0 22-10 22-22 0-129-105-234-234-234-78 0-148 39-190 99l0-41c0-12-10-21-22-21-13 0-22 9-22 21l0 88c0 13 9 22 22 22"/>
<glyph glyph-name="cross-right" unicode="&#80;" d="M340 335l-20-21 43-43-176 0 0 176 43-44 21 21-79 78-78-78 20-20 43 43 0-382-43 44-20-21 78-78 79 78-21 20-43-43 0 176 176 0-44-43 21-21 79 79z"/>
<glyph glyph-name="cross-left" unicode="&#81;" d="M172 335l20-21-43-43 176 0 0 176-43-44-21 21 79 78 79-78-21-20-43 43 0-382 43 44 21-21-79-78-79 78 21 20 43-43 0 176-176 0 44-43-21-21-78 79z"/>
<glyph glyph-name="play" unicode="&#82;" d="M256 473c120 0 217-97 217-217 0-120-97-217-217-217-120 0-217 97-217 217 0 120 97 217 217 217m0 29c-136 0-246-110-246-246 0-136 110-246 246-246 136 0 246 110 246 246 0 136-110 246-246 246z m-63-146l170-100-170-100z"/>
<glyph glyph-name="pause" unicode="&#83;" d="M281 341l43 0 0-170-43 0z m-93 0l43 0 0-170-43 0z m68 132c120 0 217-97 217-217 0-120-97-217-217-217-120 0-217 97-217 217 0 120 97 217 217 217m0 29c-136 0-246-110-246-246 0-136 110-246 246-246 136 0 246 110 246 246 0 136-110 246-246 246z"/>
<glyph glyph-name="date" unicode="&#84;" d="M473 440l-40 0 0-77-108 0 0 77-138 0 0-77-108 0 0 77-70 0 0-431 30 0 0 1 434 0 0-1 30 0 0 431z m0-401l-434 0 0 278 434 0z m-149 163l-53 0 0 54-30 0 0-54-53 0 0-30 53 0 0-53 30 0 0 53 53 0z m-206 301l30 0 0-109-30 0z m246 0l30 0 0-109-30 0z"/>
<glyph glyph-name="small-check" unicode="&#72;" d="M229 160l-104 103 36 35 68-66 122 120 36-37z"/>
<glyph glyph-name="fullscreen" unicode="&#113;" d="M121 402l0-29-82 0 0-81-29 0 0 110z m381 0l0-111-29 0 0 82-81 0 0 29z m0-182l0-110-111 0 0 28 82 0 0 82z m-382-82l0-28-110 0 0 111 29 0 0-83z"/>
<glyph glyph-name="play-small" unicode="&#86;" d="M171 356l170-100-170-100z"/>
<glyph glyph-name="support" unicode="&#87;" d="M358 409l-204 0c-24 0-44-20-44-44l0-141c0-24 20-44 44-44l26 0c-6-26-12-50-18-77 3 2 4 3 5 4 27 23 54 45 80 67 4 3 8 5 12 6l99 0c24 0 44 20 44 44l0 141c0 24-20 44-44 44z m14-185c0-8-6-15-14-15l-104 0c-3-1-6-3-9-6-7-8-15-16-23-23-8-8-16-16-24-24-2-1-3-2-6-5 3 10 5 20 8 29 2 10 5 19 8 29l-54 0c-8 0-14 7-14 15l0 141c0 8 6 14 14 14l204 0c8 0 14-6 14-14z"/>
<glyph glyph-name="information" unicode="&#88;" d="M245 270c2 5 0 7-2 7-10 0-23-24-28-24-2 0-4 2-4 4 0 5 12 16 16 20 10 10 25 18 40 18 12 0 24-7 15-33l-20-53c-2-4-5-11-5-15 0-2 2-4 4-4 8 0 23 23 26 23 2 0 4-2 4-4 0-8-32-42-59-42-10 0-17 5-17 15 0 13 10 35 11 40z m15 53c0 12 10 22 22 22 11 0 19-8 19-19 0-12-11-22-23-22-11 0-18 8-18 19z"/>
<glyph glyph-name="unlock" unicode="&#89;" d="M424 22l-336 0c-12 0-22 10-22 22l0 190c0 12 10 22 22 22l36 0 0 102c0 73 59 132 132 132 73 0 132-59 132-132 0-12-10-22-22-22-12 0-22 10-22 22 0 49-40 88-88 88-48 0-88-39-88-88l0-102 256 0c12 0 22-10 22-22l0-190c0-12-10-22-22-22m-168 190c-24 0-44-20-44-44 0-16 9-30 22-38l0-42c0-12 10-22 22-22 12 0 22 10 22 22l0 42c13 8 22 22 22 38 0 24-20 44-44 44"/>
<glyph glyph-name="send" unicode="&#49;" d="M465 389l-416 0 207-177z m-209-209l-212 182 0-239 424 0 0 237z"/>
<glyph glyph-name="delete" unicode="&#105;" d="M150 317l213 0 0-207-213 0z m139 59l0 26-66 0 0-26-88 0 0-29 242 0 0 29z"/>
<glyph glyph-name="expo" unicode="&#97;" d="M256 473c120 0 217-97 217-217 0-120-97-217-217-217-120 0-217 97-217 217 0 120 97 217 217 217m0 29c-136 0-246-110-246-246 0-136 110-246 246-246 136 0 246 110 246 246 0 136-110 246-246 246z m157-199c-7 25-21 49-41 69-3 2-7 2-10 0-3-3-3-8 0-11 18-17 30-38 37-61-9-5-16-15-16-26 0-14 10-25 22-28-2-35-17-69-43-96-29-29-67-44-106-44-38 0-77 15-105 44-2 1-4 4-5 5 1 3 2 7 2 10 0 11-8 20-19 20-2 0-2 0-4 0-9 17-15 35-17 54 13 3 22 15 22 28 0 12-7 22-17 26 5 19 13 37 25 53l26-26c-13-19-20-41-20-64 0-29 11-59 33-80 10-11 22-19 34-24 0 0 0-1 0-1 0-16 14-28 29-28 13 0 24 9 28 20 25 3 50 14 70 33 22 22 33 51 33 81 0 29-11 58-33 80-3 3-7 3-10 0-3-3-3-7 0-10 19-19 29-45 29-70 0-26-10-51-29-70-17-17-38-27-60-29-2 13-14 23-27 23-11 0-20-5-24-14-11 5-20 11-28 20-19 19-30 44-30 70 0 19 6 37 17 54l52-53c0-16 13-28 29-28 15 0 28 13 28 28 0 16-11 28-27 29l-107 104c-8 8-21 8-30 0-8-8-8-22 0-30l5-5c-15-18-24-39-29-61-14-1-26-13-26-28 0-13 9-24 21-28 2-21 9-42 19-61-2-4-3-8-3-12 0-11 8-20 19-20 2 0 5 0 6 1 2-2 5-4 7-7 32-32 74-48 116-48 42 0 84 16 116 48 30 30 46 68 48 107 12 4 21 15 21 28-1 15-12 27-28 28z"/>
<glyph glyph-name="cross-directions" unicode="&#98;" d="M424 334l-20-20 43-43-176 0 0 176 43-44 20 20-78 79-78-78 20-20 43 43 0-176-176 0 44 43-20 20-79-78 78-78 20 20-43 43 176 0 0-176-43 44-20-20 78-79 78 78-20 20-43-43 0 176 176 0-44-43 20-20 79 78z"/>
<glyph glyph-name="edit" unicode="&#99;" d="M182 150l-32 33 155 155 33-33z m169 168l-33 32 52 52 32-32z m-241-208l58 26-32 32z"/>
<glyph glyph-name="navigate-up-and-down" unicode="&#101;" d="M271 65l0 382 43-44 21 21-79 78-79-78 21-20 43 43 0-382-43 44-21-21 79-78 79 78-21 20z"/>
<glyph glyph-name="add" unicode="&#102;" d="M379 271l-108 0 0 108-30 0 0-108-108 0 0-30 108 0 0-108 30 0 0 108 108 0z"/>
<glyph glyph-name="alert" unicode="&#103;" d="M238 202l36 0 0-35-36 0z m-1 143l0-46 10-82 18 0 10 82 0 46z"/>
<glyph glyph-name="app-store" unicode="&#106;" d="M241 239l30 0 0-129-30 0z m71 0l30 0 0-129-30 0z m-142 0l30 0 0-129-30 0z m-1 92l64 120-25 13-72-133z m207 0l-72 133-26-13 64-120z m-366-30l0-29 44 0 48-195 8-29 293 0 7 29 49 195 43 0 0 29z m364-224l-235 0-48 195 331 0z"/>
<glyph glyph-name="check" unicode="&#107;" d="M229 172l-96 94 21 21 75-74 129 127 21-20z"/>
<glyph glyph-name="close" unicode="&#108;" d="M353 333l-20 20-77-77-77 77-20-20 77-77-77-77 20-20 77 77 77-77 20 20-77 77z"/>
<glyph glyph-name="colors-and-fonts" unicode="&#109;" d="M63 279c3 42 20 81 46 111l-31 31c-34-38-56-87-60-142z m45-141c-25 30-42 68-45 111l-45 0c3-54 24-104 59-142z m22 273c30 26 69 42 111 46l0 45c-54-4-104-25-142-59z m141 91l0-45c42-4 81-20 111-46l31 32c-38 34-88 55-142 59z m133-112c25-30 42-69 46-111l44 0c-3 55-24 104-59 142z m45-141c-3-42-20-81-46-111l31-31c34 39 56 88 60 142z m-67-133c-30-25-69-42-111-46l0-44c54 3 104 24 142 59z m-83 295c0 0-1 0-1 0-22-1-114-253-114-253l-2-7 41-14 2 6c0 1 93 262 74 268z m-135-312c-17 0-32-30-35-38-2-10-7-17-12-22-17-16-41-8-45-7 6-12 19-20 38-22 3 0 6 0 9 0 2 0 3 0 5 0 22 0 46 6 63 21 3 3 6 6 9 11 0 0 1 0 1 0 0 1 0 2 1 3 1 1 2 2 2 3 0 0 0 1 0 1 4 9 8 28 3 37l8 21 1 3-40 15z"/>
<glyph glyph-name="expand" unicode="&#110;" d="M235 334l-21-21 43-43-135 0 0-29 135 0-43-44 20-20 79 79z m51 52l0-29 75 0 0-202-75 0 0-29 104 0 0 260z"/>
<glyph glyph-name="expand-1" unicode="&#111;" d="M357 237l0-82-202 0 0 202 82 0 0 29-111 0 0-260 260 0 0 111z m-81 149l0-29 61 0-113-113 20-20 114 112 0-61 28 0 0 111z"/>
<glyph glyph-name="edit-this-page" unicode="&#112;" d="M404 407l36-35-167-167-36 35z m14 14l56 56 36-35-56-56z m-224-259l63 28-35 35z m221-98l-241 0 0 153-143 0 0 125 266 0 30 29-325 0 0-168 154-169 289 0 0 302-30-30z m-269 26l-90 98 90 0z"/>
<glyph glyph-name="navigate-left" unicode="&#117;" d="M333 82l20 20-153 154 153 154-20 20-174-174z"/>
<glyph glyph-name="mobile" unicode="&#118;" d="M360 502l-208 0c-20 0-36-16-36-35l0-422c0-19 16-35 36-35l208 0c20 0 36 16 36 35l0 422c0 19-16 35-36 35z m-127-30l46 0 0-16-46 0z m23-443c-12 0-23 10-23 22 0 13 11 23 23 23 12 0 23-10 23-23 0-12-11-22-23-22z m113 60l-226 0 0 334 226 0z"/>
<glyph glyph-name="new-page" unicode="&#119;" d="M174 397l0-29 301 0 0-124-143 0 0-154-241 0 0 195-30 0 0-224 289 0 154 169 0 167z m187-281l0 98 90 0z m-300 199l30 0 0 53 54 0 0 29-54 0 0 54-30 0 0-54-53 0 0-29 53 0z"/>
<glyph glyph-name="communication" unicode="&#120;" d="M258 339l-203 0c-24 0-44-20-44-44l0-141c0-25 20-44 44-44l25 0c-5-26-11-50-18-76 3 2 4 3 5 3 27 23 54 45 81 68 3 3 7 4 11 5l99 0c24 0 44 19 44 44l0 141c0 24-20 44-44 44z m15-185c0-8-7-15-15-15l-104 0c-3-1-6-3-8-6-7-8-15-15-23-23-8-8-16-16-24-24-2-1-3-2-6-4 3 9 5 19 8 28 3 10 5 20 8 30l-54 0c-8 0-15 6-15 14l0 141c0 8 7 14 15 14l203 0c8 0 15-6 15-14z m184 324l-203 0c-24 0-44-19-44-44l0-81 29 0 0 81c0 9 7 15 15 15l203 0c8 0 15-6 15-15l0-141c0-8-7-14-15-14l-70 0c3-11 5-20 8-30 2-8 5-17 7-26-3 1-5 2-6 4-8 8-15 15-23 22-9 9-18 19-28 27 0 1-1 2-2 3l-27 0 0-30 21 0c5-1 9-3 13-7 26-22 52-43 77-64 2-2 3-2 6-4-6 26-12 50-18 75l42 0c24 0 44 20 44 44l0 141c0 25-19 44-44 44z"/>
<glyph glyph-name="e-commerce" unicode="&#121;" d="M487 403l-462 0c-8 0-15-7-15-15l0-265c0-8 7-15 15-15l463 0c8 0 14 7 14 15l0 265c0 8-6 15-15 15z m-14-29l0-32-434 0 0 32z m-434-236l0 115 434 0 0-115z m36 52l189 0 0-19-189 0z m0 29l71 0 0-19-71 0z m84 0l92 0 0-19-92 0z"/>
<glyph glyph-name="menu" unicode="&#122;" d="M10 278l492 0 0-44-492 0z m0 124l132 0 0-44-132 0z m360 0l132 0 0-44-132 0z m-181 0l133 0 0-44-133 0z m-179-248l492 0 0-44-492 0z"/>
<glyph glyph-name="save" unicode="&#65;" d="M133 139l246 0 0-29-246 0z m181 146l-43-43 0 160-30 0 0-159-43 43-20-20 78-79 78 78z"/>
<glyph glyph-name="logo" unicode="&#68;" d="M490 12l-75 0 0 22 43 0-5 11 21 8z m-107 30l-33 82 21 8 33-82z m57 37l-32 82 21 8 32-82z m-95 69l-81 0 0 22 81 0z m49 47l-32 81 21 9 32-82z m-45 115l-32 82 20 8 32-82z m-46 116l-21 52-16 0 0 22 31 0 26-66z m35-216l-75 0 0 22 43 0-4 12 21 8z m-47 69l-28 82 20 8 29-83z m-253-226l21-8-5-11 43 0 0-22-75 0z m70-3l33 82 21-8-33-82z m-57 37l32 82 21-8-32-82z m116 83l81 0 0-22-81 0z m-70 33l32 82 21-9-32-81z m46 115l33 82 20-8-32-82z m46 116l26 66 31 0 0-22-16 0-21-52z m0-183l20-7-4-12 44 0 0-22-75 0z m11 35l29 83 20-8-28-82z"/>
<glyph glyph-name="marketing" unicode="&#85;" d="M353 461c-16 16-36 28-58 35-13 4-26 6-39 6-37 0-72-15-97-40-27-27-41-61-41-98l1-12c2-19 8-37 16-54 0 0 52-93 52-152l2-17c3-11 8-17 17-17l100 0c9 0 14 6 17 17l2 17c0 58 52 151 52 152 9 17 15 35 17 54l0 12c0 36-14 70-41 97z m5-108c-1-14-5-28-11-40-6-10-56-102-57-167l0-1-16 0 0 64-35 0 0-64-16 0 0 1c-1 49-28 114-53 160l0 1-3 7c-7 12-11 25-13 39l0 11c0 27 11 53 30 72 19 20 45 30 72 30 10 0 20-2 29-4 16-6 32-14 44-27 19-19 30-44 30-71z m-158-302l112 0 0 35-112 0z m25-40l63 0 0 20-63 0z"/>
<glyph glyph-name="drop-down-arrow-up" unicode="&#90;" d="M383 172l-127 126-127-126-20 21 147 147 147-147z"/>
<glyph glyph-name="slideshow" unicode="&#51;" d="M500 380l0-251-486 0 0 251 486 0m6 6l-497 0 0-263 497 0z m-61-35l0-193-375 0 0 193 375 0m5 6l-386 0 0-205 386 0z m-28-101l-31 31-4-4 27-27-27-28 4-3z m-298-31l3 3-27 28 27 27-3 4-31-31z"/>
<glyph glyph-name="fullscreen-slideshow" unicode="&#54;" d="M422 256l-31 31-4-4 28-27-28-28 4-3z m-298-31l4 3-28 28 28 27-4 4-31-31z m376 155l0-251-486 0 0 251 486 0m6 6l-497 0 0-263 497 0z m-477-20l47 0 0 5-53 0 0-52 6 0z m0-223l47 0 0-6-53 0 0 53 6 0z m456 223l-46 0 0 5 52 0 0-52-6 0z m0-223l-46 0 0-6 52 0 0 53-6 0z"/>
<glyph glyph-name="horizontal" unicode="&#56;" d="M9 386l0-263 497 0 0 263z m5-35l486 0 0-193-486 0z m486-222l-486 0 0 23 486 0z m-486 228l0 23 486 0 0-23z m373-74l28-27-28-28 4-3 31 31-31 31z m-263 4l-31-31 31-31 4 3-28 28 28 27z m5-30l257 0 0-6-257 0z"/>
<glyph glyph-name="thumbnails" unicode="&#57;" d="M500 380l0-251-486 0 0 251 486 0m6 6l-497 0 0-263 497 0z m-152-29l-290 0 0-205 386 0 0 205z m-6-6l0-94-88 0 0 94z m-94 0l0-94-90 0 0 94z m-184 0l88 0 0-94-88 0z m0-193l0 93 88 0 0-93z m94 0l0 93 90 0 0-93z m96 0l0 93 88 0 0-93z m185 0l-91 0 0 93 91 0z m-91 99l0 94 91 0 0-94z"/>
<glyph glyph-name="star" unicode="&#75;" d="M256 489l58-178 187 0-151-110 57-178-151 110-151-110 57 178-151 110 187 0z"/>
<glyph glyph-name="alert-2" unicode="&#53;" d="M238 202l36 0 0-35-36 0z m-1 143l0-46 10-82 18 0 10 82 0 46z m19-261c-95 0-172 77-172 172 0 95 77 172 172 172 95 0 172-77 172-172 0-95-77-172-172-172m0 312c-77 0-140-63-140-140 0-77 63-140 140-140 77 0 140 63 140 140 0 77-63 140-140 140"/>
<glyph glyph-name="thumbnails-2" unicode="&#52;" d="M37 475l0-109 109 0 0 109z m164 0l0-109 110 0 0 109z m165 0l0-109 109 0 0 109z m-329-164l0-110 109 0 0 110z m164 0l0-110 110 0 0 110z m165 0l0-110 109 0 0 110z m-329-165l0-109 109 0 0 109z m164 0l0-109 110 0 0 109z m165 0l0-109 109 0 0 109z"/>
<glyph glyph-name="menu-web" unicode="&#55;" d="M478 233l-444 0c-13 0-23 11-23 23 0 12 10 23 23 23l444 0c12 0 22-11 22-23 1-12-9-23-22-23m0 122l-444 0c-13 0-23 11-23 23 0 13 10 23 23 23l444 0c12 0 22-10 22-23 0-12-9-23-22-23m-444-198l444 0c12 0 22-11 22-23 0-13-10-23-22-23l-444 0c-13 0-23 10-23 23 0 12 10 23 23 23"/>
<glyph glyph-name="menu-web2" unicode="&#33;" d="M10 282l492 0 0-52-492 0z m0 123l492 0 0-51-492 0z m0-247l492 0 0-51-492 0z"/>
<glyph glyph-name="info-4" unicode="&#34;" d="M256 502c-136 0-246-110-246-246 0-136 110-246 246-246 136 0 246 110 246 246 0 136-110 246-246 246z m-45-411c-18 0-31 9-31 28 0 24 17 65 21 74l35 88c4 9-1 14-5 14-18 0-43-44-52-44-3 0-6 4-6 7 0 9 22 30 29 36 20 20 46 34 75 34 21 0 45-13 27-62l-37-98c-3-7-8-20-8-28 0-3 2-7 6-7 15 0 43 43 50 43 2 0 6-3 6-8 0-14-59-77-110-77z m86 255c-20 0-34 14-34 34 0 22 19 41 41 41 21 0 35-14 35-35 0-23-19-40-42-40z"/>
<glyph glyph-name="info-3" unicode="&#35;" d="M10 502l0-492 492 0 0 492z m201-411c-18 0-31 9-31 28 0 24 17 65 21 74l35 88c4 9-1 14-5 14-18 0-43-44-52-44-3 0-6 4-6 7 0 9 22 30 29 36 20 20 46 34 75 34 21 0 45-13 27-62l-37-98c-3-7-8-20-8-28 0-3 2-7 6-7 15 0 43 43 50 43 2 0 6-3 6-8 0-14-59-77-110-77z m86 255c-20 0-34 14-34 34 0 22 19 41 41 41 21 0 35-14 35-35 0-23-19-40-42-40z"/>
<glyph glyph-name="info-2" unicode="&#36;" d="M256 466c116 0 210-94 210-210 0-116-94-210-210-210-116 0-210 94-210 210 0 116 94 210 210 210m0 36c-136 0-246-110-246-246 0-136 110-246 246-246 136 0 246 110 246 246 0 136-110 246-246 246z m-17-224c3 8-1 12-5 12-16 0-37-38-45-38-3 0-6 3-6 6 0 7 20 26 25 32 18 16 41 29 66 29 19 0 39-11 23-54l-31-86c-3-6-8-17-8-24 0-3 2-6 6-6 13 0 37 37 43 37 2 0 5-3 5-7 0-12-51-67-95-67-16 0-27 8-27 24 0 21 15 57 18 65z m23 87c0 19 17 35 36 35 18 0 31-12 31-30 0-20-17-35-37-35-18 0-30 12-30 30z"/>
<glyph glyph-name="info" unicode="&#37;" d="M466 466l0-420-420 0 0 420 420 0m36 36l-492 0 0-492 492 0z m-263-224c3 8-1 12-5 12-16 0-37-38-45-38-3 0-6 3-6 6 0 7 20 26 25 32 18 16 41 29 66 29 19 0 39-11 23-54l-31-86c-3-6-8-17-8-24 0-3 2-6 6-6 13 0 37 37 43 37 2 0 5-3 5-7 0-12-51-67-95-67-16 0-27 8-27 24 0 21 15 57 18 65z m23 87c0 19 17 35 36 35 18 0 31-12 31-30 0-20-17-35-37-35-18 0-30 12-30 30z"/>
<glyph glyph-name="drop-down-arrow" unicode="&#48;" d="M383 340l-127-126-127 126-20-21 147-147 147 147z"/>
<glyph glyph-name="select-arrow" unicode="&#50;" d="M255 183l125 124-22 22-103-102-101 101-22-22z"/>
<glyph glyph-name="mobile-preview" unicode="&#39;" d="M173 243l74 0 0-53-74 0z m92 0l75 0 0-53-75 0z m-92-79l167 0 0-52-167 0z m0 107c61 0 106 0 167 0 0 19 0 19 0 19-61 0-106 0-167 0 0 0 0 0 0-19z m186 230l-206 0c-20 0-36-16-36-35l0-420c0-19 16-35 36-35l206 0c20 0 36 16 36 35l0 420c0 19-16 35-36 35z m-126-9l46 0 0-9-46 0z m23-470c-10 0-17 8-17 17 0 10 8 17 17 17 10 0 17-7 17-17 0-9-7-17-17-17z m125 45l-250 0 0 406 250 0z m-223 364l196 0 0-26-196 0z"/>
<glyph glyph-name="mobile-back-arrow" unicode="&#40;" d="M118 256l247-247 29 30-217 217 217 217-29 30z"/>
<glyph glyph-name="navigate-right" unicode="&#100;" d="M353 256l-174 174-20-20 153-154-153-154 20-20z"/>
<glyph glyph-name="mobile-settings" unicode="&#41;" d="M248 219l22 0 0-94-22 0z m-148-51l21 0 0-43-21 0z m293 0l22 0 0-43-22 0z m-293 219l20 0 0-133-20 0z m293 0l21 0 0-133-21 0z m-144 0l20 0 0-81-20 0z m-102-188c0-4-4-8-8-8l-61 0c-5 0-9 4-9 8l0 23c0 5 4 9 9 9l61 0c4 0 8-4 8-9z m296 0c0-4-4-8-9-8l-61 0c-4 0-8 4-8 8l0 23c0 5 4 9 8 9l61 0c5 0 9-4 9-9z m-117 96l-133 0c-8 0-14-6-14-14l0-37c0-8 6-14 14-14l133 0c7 0 14 6 14 14l0 37c0 8-7 14-14 14z m-8-42l-118 0 0 17 118 0z"/>
<glyph glyph-name="mobile-messages" unicode="&#42;" d="M257 321l-196 0c-19 0-35-15-35-34l0-106c0-19 16-34 35-34l61 0c-3-15-7-31-12-49l-2-12 68 57c2 2 5 3 7 4l74 0c19 0 35 15 35 34l0 106c0 19-16 34-35 34z m-113-157l-84 0c-10 0-17 8-17 18l0 109c0 7 7 14 13 14l203 0c8 0 17-9 17-17l0-109c0-9-8-16-17-16l-80 0-46-34z m307 262l-197 0c-19 0-35-16-35-35l0-63 17 0 0 68c0 7 10 13 18 13l197 0c5 0 18-4 18-18l0-105c0-4-4-19-18-19l-96 0 11-37c-14 11-39 33-44 36l-1 1-23 0 0-16 18 0c3-1 6-3 9-5 17-15 47-40 58-48l8-7-2 11c-5 17-8 33-12 49l74 0c19 0 35 15 35 35l0 105c0 19-16 35-35 35z"/>
<glyph glyph-name="horizontal-highlight" unicode="&#44;" d="M500 380l0-251-486 0 0 251 486 0m6 6l-497 0 0-263 497 0z m-6-35l0-193-486 0 0 193 486 0m6 6l-497 0 0-205 497 0z m-84-101l-31 31-4-4 28-27-28-28 4-3z m-298-31l4 3-28 28 28 27-4 4-31-31z m5 32l257 0 0-6-257 0z"/>
<glyph glyph-name="fullscreen-slideshow-1" unicode="&#45;" d="M422 256l-31 31-4-4 28-27-28-28 4-3z m-298-31l4 3-28 28 28 27-4 4-31-31z m376 155l0-251-486 0 0 251 486 0m6 6l-497 0 0-263 497 0z m-477-20l47 0 0 5-53 0 0-52 6 0z m0-223l47 0 0-6-53 0 0 53 6 0z m456 223l-46 0 0 5 52 0 0-52-6 0z m0-223l-46 0 0-6 52 0 0 53-6 0z"/>
<glyph glyph-name="slideshow-highlight" unicode="&#46;" d="M500 380l0-251-486 0 0 251 486 0m6 6l-497 0 0-263 497 0z m-61-35l0-193-375 0 0 193 375 0m5 6l-386 0 0-205 386 0z m-28-101l-31 31-4-4 28-27-28-28 4-3z m-298-31l4 3-28 28 28 27-4 4-31-31z"/>
<glyph glyph-name="thumbnails-highlight" unicode="&#47;" d="M500 380l0-251-486 0 0 251 486 0m6 6l-497 0 0-263 497 0z m-152-29l-290 0 0-205 386 0 0 205z m-6-6l0-94-88 0 0 94z m-94 0l0-94-90 0 0 94z m-184 0l88 0 0-94-88 0z m0-193l0 93 88 0 0-93z m94 0l0 93 90 0 0-93z m96 0l0 93 88 0 0-93z m185 0l-91 0 0 93 91 0z m-91 99l0 94 91 0 0-94z"/>
<glyph glyph-name="portfoliobox-logo" unicode="&#58;" d="M375 437l-209 0 105-181-105-181 209 1 105 180z m-216-181l41 72-63 109-105-181 105-180 63 109z"/>
<glyph glyph-name="mobile-close" unicode="&#60;" d="M353 333l-20 20-77-76-77 76-20-20 76-77-76-77 20-20 77 76 77-76 20 20-76 77z"/>
<glyph glyph-name="mobile-star2" unicode="&#61;" d="M502 313c-2 3-5 6-10 6l-173 0-54 165c-1 4-5 7-9 7-4 0-8-3-9-7l-54-165-173 0c-5 0-8-3-10-6-1-4 1-9 4-11l140-102-54-166c-1-4 0-9 4-11 3-2 8-2 11 0l141 103 141-103c2-1 4-2 5-2 2 0 4 1 6 2 3 2 5 7 4 11l-54 166 140 102c3 2 5 7 4 11z"/>
<glyph glyph-name="mobile-star" unicode="&#62;" d="M256 418l35-108c4-12 15-20 28-20l113 0-92-67c-10-7-14-20-10-32l35-109-92 67c-5 4-11 6-17 6-6 0-12-2-17-6l-92-67 35 109c4 12 0 25-11 32l-91 67 113 0c13 0 24 8 28 20l35 108m0 73c-4 0-8-3-9-7l-54-165-173 0c-5 0-8-3-10-6-1-4 1-9 4-11l140-102-54-166c-1-4 0-9 4-11 1-1 3-2 5-2 2 0 4 1 6 2l141 103 141-103c2-1 4-2 5-2 2 0 4 1 6 2 3 2 5 7 4 11l-54 166 140 102c3 2 5 7 4 11-2 3-5 6-10 6l-173 0-54 165c-1 4-5 7-9 7 0 0 0 0 0 0z"/>
<glyph glyph-name="mobile-logout" unicode="&#43;" d="M462 502l44 0 0-492-44 0z m-245-129l-31-31 63-63-243 0 0-44 244 0-64-64 31-31 85 86 31 31-31 31z"/>
<glyph glyph-name="mobile-list" unicode="&#59;" d="M297 387c0-23-18-41-41-41-23 0-41 18-41 41 0 23 18 41 41 41 23 0 41-18 41-41z m0-131c0-23-18-41-41-41-23 0-41 18-41 41 0 23 18 41 41 41 23 0 41-18 41-41z m0-131c0-23-18-41-41-41-23 0-41 18-41 41 0 23 18 41 41 41 23 0 41-18 41-41z"/>
<glyph glyph-name="signup" unicode="&#63;" d="M236 149l-40 40 188 188 40-39z m204 204l-40 40 63 63 40-40z m-293-253l72 32-40 40z m-81 280l225 0 0-29-225 0z m0-70l152 0 0-29-152 0z m0-70l92 0 0-29-92 0z m0-69l48 0 0-30-48 0z m284 49l0-160-311 0 0 392 311 0 0-63 29 30 0 62-369 0 0-450 369 0 0 218z"/>
<glyph glyph-name="pricing-free" unicode="&#64;" d="M271 207c-37 0-74 0-112 0-4 17 1 25 17 29 5 1 10 2 15 4 9 4 10 8 6 17-6 11-10 22-10 34 0 19 11 31 29 30 18 0 30-13 27-32-1-10-5-21-9-31-4-10-3-15 7-19 4-1 9-2 13-3 17-4 21-11 17-29z m3 82l103 0 0-15-103 0z m0-37l103 0 0-14-103 0z m-183 125l0-234 322 0 0 234z m308-220l-293 0 0 205 293 0z"/>
<glyph glyph-name="pricing-pro" unicode="&#91;" d="M285 157l-194 0 0 205 293 0 0-59c7-2 15-3 15-5l0 79-322 0 0-234 219 0c-4 7-8 14-11 14z m-28 50c-38 0-75 0-113 0-3 17 1 25 18 29 4 1 9 2 14 4 9 4 11 8 6 17-5 11-10 22-10 34 0 19 12 31 29 30 18 0 30-13 28-32-2-10-6-21-10-31-4-10-3-15 8-19 4-1 8-2 12-3 17-4 21-11 18-29z m108 70c-37 0-66-29-66-66 0-36 29-66 66-66 36 0 66 30 66 66 0 37-30 66-66 66z m26-76l-22 0 0-22-14 0 0 22-22 0 0 15 22 0 0 22 14 0 0-22 22 0z m-74 88l-57 0 0-15 38 0c6 8 12 15 19 15z m-35-37l-22 0 0-14 15 0c2 7 4 14 7 14z"/>
<glyph glyph-name="x-close" unicode="&#93;" d="M332 311l-21 21-55-55-55 55-21-21 55-55-55-55 21-21 55 55 55-55 21 21-55 55z"/>
<glyph glyph-name="minimize" unicode="&#94;" d="M256 349l149-93-149-93z m-149 0l149-93-149-93z"/>
<glyph glyph-name="dot-close" unicode="&#95;" d="M349 256c0-51-42-93-93-93-51 0-93 42-93 93 0 51 42 93 93 93 51 0 93-42 93-93z"/>
<glyph glyph-name="maximize" unicode="&#96;" d="M256 163l-149 93 149 93z m149 0l-149 93 149 93z"/>
<glyph glyph-name="social-media" unicode="&#123;" d="M384 190c-18 0-35-8-46-22l-151 75c1 4 2 9 2 13 0 5-1 9-2 13l151 75c11-14 28-22 46-22 34 0 62 27 62 61 0 34-28 62-62 62-33 0-61-28-61-62 0-4 1-9 2-13l-151-74c-11 13-28 22-46 22-34 0-62-28-62-62 0-34 28-61 62-61 18 0 35 8 46 22l151-75c-1-4-2-9-2-13 0-34 28-62 61-62 34 0 62 28 62 62 0 34-28 61-62 61z"/>
<glyph glyph-name="billing" unicode="&#124;" d="M183 141l146 0 0-27-146 0z m-20 71l31 0 0-20-31 0z m52 0l30 0 0-20-30 0z m52 0l30 0 0-20-30 0z m51 0l31 0 0-20-31 0z m83 269l0 16-31 0 0-16-21 0 0 16-31 0 0-16-21 0 0 16-30 0 0-16-22 0 0 16-30 0 0-16-21 0 0 16-31 0 0-16-21 0 0 16-31 0 0-16-8 0 0-450 8 0 0-16 31 0 0 16 21 0 0-16 31 0 0 16 21 0 0-16 30 0 0 16 22 0 0-16 30 0 0 16 21 0 0-16 31 0 0 16 21 0 0-16 31 0 0 16 8 0 0 450z m-267-418l0 129 8 0 0 20-8 0 0 237 244 0 0-237-8 0 0-20 8 0 0-129z m167 258c-2 4-6 8-11 12-5 4-12 7-21 9-2 1-3 1-5 1-1 1-3 1-4 2l0 33c4 0 7-2 10-6 3-3 5-7 5-12l27 0c-1 6-2 12-5 16-2 5-5 9-9 12-3 3-8 6-13 8-5 1-10 3-15 3l0 15-11 0 0-15c-6 0-11-1-17-3-5-2-9-4-13-8-4-3-7-7-10-12-2-5-4-10-4-17 0-6 1-11 4-15 2-4 5-8 8-11 4-2 8-5 12-6 5-2 9-3 14-5 1 0 2 0 3 0 1-1 2-1 3-1l0-39c-6 1-11 3-15 8-4 4-5 9-5 16l-27 0c2-14 6-25 14-33 8-8 19-12 33-13l0-16 11 0 0 16c9 1 17 3 23 6 6 3 10 6 14 10 3 4 6 8 7 13 2 4 2 7 2 10 0 3 0 7 0 11-1 4-2 7-5 11z m-52 26c-6 2-11 3-13 6-3 2-4 5-4 9 0 3 0 5 1 7 1 2 2 3 4 5 2 1 4 2 5 3 2 0 5 1 7 1z m29-55c-1-2-3-4-5-5-2-2-4-3-6-4-3 0-5-1-7-1l0 36c7-2 12-5 15-7 3-2 5-6 5-11 0-3-1-6-2-8z"/>
<glyph glyph-name="full-view" unicode="&#125;" d="M345 264c-5 34-44 60-91 60-1 0-1 0-1 0-48-1-87-27-91-60l-13 2c4 40 49 70 104 71 0 0 0 0 1 0 53 0 99-31 104-71z m-92-84c-53 0-99 31-104 71l13 2c4-34 45-60 92-60 47 1 87 27 91 60l13-2c-5-40-49-70-104-71 0 0-1 0-1 0z m0 26c-28 0-52 24-52 52 0 29 23 53 52 53 29 0 52-23 53-52 0-29-23-52-52-53z m0 92c-22 0-39-18-39-40 0-21 18-39 39-39l0-6 1 6c21 1 39 18 38 40 0 21-17 39-39 39z m-26-40c0 15 12 27 26 27l0-13c-7 0-13-6-13-14z m-201 42l0 66c0 8 6 14 13 14l69 0 0 13-69 0c-14 0-26-12-26-27l0-66z m447 93l-69 0 0-13 69 0c7 0 13-6 13-14l0-66 13 0 0 66c0 15-12 27-26 27z m13-181l0-66c0-8-6-14-13-14l-69 0 0-13 69 0c14 0 26 12 26 27l0 66z m-378-80l-69 0c-7 0-13 6-13 14l0 66-13 0 0-66c0-15 12-27 26-27l69 0 0 13z"/>
<glyph glyph-name="layout-b-panel" unicode="&#126;" d="M157 355l0-198 198 0 0 198z m184-184l-170 0 0 170 170 0z m-147 101l32 0 0-77-32 0z m51-1l72 0 0-75-72 0z m-51 49l123 0 0-30-123 0z m62-311c-136 0-246 111-246 247 0 136 110 246 246 246 136 0 246-110 246-246 0-136-110-247-246-247z m0 486c-132 0-239-107-239-239 0-132 107-239 239-239 132 0 239 107 239 239 0 132-107 239-239 239z"/>
<glyph glyph-name="logo-b-panel" unicode="&#92;" d="M350 158l-31 0 0 9 18 0-2 5 8 3z m-43 12l-13 33 8 3 13-32z m23 15l-13 33 8 3 13-33z m-39 28l-32 0 0 8 32 0z m20 18l-13 33 9 3 13-32z m-18 47l-13 32 8 4 13-33z m-18 46l-9 21-6 0 0 9 12 0 11-27z m14-86l-30 0 0 8 17 0-1 5 8 3z m-19 27l-12 33 9 3 11-33z m-101-90l8-3-2-5 18 0 0-9-31 0z m28-1l13 32 8-3-13-33z m-23 14l13 33 8-3-13-33z m47 33l32 0 0-8-32 0z m-29 14l13 32 9-3-13-33z m19 46l13 33 8-4-13-32z m18 46l11 27 12 0 0-9-6 0-9-21z m0-73l8-3-1-5 17 0 0-8-30 0z m5 14l11 33 9-3-12-33z m22-259c-136 0-246 111-246 247 0 136 110 246 246 246 136 0 246-110 246-246 0-136-110-247-246-247z m0 486c-132 0-239-107-239-239 0-132 107-239 239-239 132 0 239 107 239 239 0 132-107 239-239 239z"/>
<glyph glyph-name="colorsandfonts-b-panel" unicode="&#57344;" d="M179 268c1 17 8 32 18 44l-13 13c-13-15-22-35-23-57z m18-56c-10 12-17 27-18 44l-18 0c1-22 10-41 23-57z m9 109c12 10 27 17 44 18l0 18c-22-1-42-10-57-23z m56 36l0-18c17-1 32-8 44-18l13 13c-15 13-35 22-57 23z m53-45c10-12 17-27 18-44l18 0c-1 22-10 42-23 57z m18-56c-1-17-8-32-18-44l13-13c13 16 22 35 23 57z m-27-53c-12-10-27-17-44-18l0-18c22 1 42 10 57 23z m-33 118c0 0 0 0 0 0-9 0-46-101-46-101l-1-3 17-6 1 3c0 0 37 105 29 107z m-54-125c-6 0-12-12-13-15-2-4-3-7-5-9-7-6-17-3-18-2 0 0 0 0 0 0 0 0 0 0 0 0 2-5 7-8 15-9 0 0 0 0 0 0 1 0 2 0 4 0 0 0 1 0 1 0 10 0 19 2 25 8 2 1 3 3 4 5 0 0 0 0 1 0 0 0 0 1 0 1 0 0 0 0 0 0 0 0 1 1 1 1 0 0 0 1 0 1 2 3 3 11 1 14l3 9 1 1-16 6z m37-187c-136 0-246 111-246 247 0 136 110 246 246 246 136 0 246-110 246-246 0-136-110-247-246-247z m0 486c-132 0-239-107-239-239 0-132 107-239 239-239 132 0 239 107 239 239 0 132-107 239-239 239z"/>
<glyph glyph-name="create-page-b-panel" unicode="&#57345;" d="M223 323l0-11 121 0 0-50-58 0 0-62-96 0 0 78-12 0 0-89 116 0 61 67 0 67z m75-112l0 39 36 0z m-120 79l12 0 0 22 22 0 0 11-22 0 0 22-12 0 0-22-21 0 0-11 21 0z m78-281c-136 0-246 111-246 247 0 136 110 246 246 246 136 0 246-110 246-246 0-136-110-247-246-247z m0 486c-132 0-239-107-239-239 0-132 107-239 239-239 132 0 239 107 239 239 0 132-107 239-239 239z"/>
<glyph glyph-name="ok-button" unicode="&#57346;" d="M256 479c123 0 223-100 223-223 0-123-100-223-223-223-123 0-223 100-223 223 0 123 100 223 223 223m0 23c-136 0-246-110-246-246 0-136 110-246 246-246 136 0 246 110 246 246 0 136-110 246-246 246z m-29-348l-111 109 39 39 72-72 130 128 39-39z"/>
<glyph glyph-name="search-small" unicode="&#57347;" d="M477 97c8-8 13-19 13-31 0-24-20-44-44-44-12 0-23 5-31 13l-128 128c-27-15-57-24-90-24-96 0-175 79-175 176 0 96 79 175 175 175 97 0 176-79 176-175 0-33-9-63-24-90z m-280 349c-72 0-131-59-131-131 0-73 59-132 131-132 73 0 132 59 132 132 0 72-59 131-132 131"/>
<glyph glyph-name="general-settings" unicode="&#114;" d="M387 181l0 34-51 20c-3 12-8 24-15 35l23 50-24 24-51-23c-11 7-23 11-35 15l-20 52-33 0-20-52c-13-3-24-8-35-15l-49 23-24-24 23-50c-7-11-11-23-15-35l-51-20 0-34 51-19c3-13 8-24 15-35l-23-51 24-23 50 22c11-6 23-11 35-14l20-51 34 0 20 51c12 3 24 8 35 14l50-22 24 23-23 51c6 11 11 22 14 35z m-189-109c-69 0-126 57-126 126 0 70 57 126 126 126 70 0 126-56 126-126 0-69-56-126-126-126z m304 359l-7 18-32-1c-4 5-10 11-15 15l0 32-18 7-22-23c-7 1-14 1-22 0l-22 23-18-7 1-32c-5-4-11-10-15-15l-32 0-7-18 23-22c-1-7-1-14 0-22l-23-22 7-18 32 1c4-6 10-11 15-16l0-32 18-7 22 23c7 0 15 0 22 0l22-23 18 7-1 32c6 5 11 10 16 16l32-1 7 18-23 22c1 8 1 15 0 22z m-76-100c-38-16-80 2-95 39-16 37 2 80 39 95 37 16 80-2 95-39 16-38-2-80-39-95z"/>
<glyph glyph-name="plus-bold" unicode="&#57348;" d="M379 282l-97 0 0 97-52 0 0-97-97 0 0-52 97 0 0-97 52 0 0 97 97 0z"/>
<glyph glyph-name="eye" unicode="&#57349;" d="M256 384c-82 0-146-49-224-128 67-68 124-128 224-128 100 0 173 76 224 127-52 58-125 129-224 129z m0-219c-49 0-90 41-90 91 0 50 41 91 90 91 49 0 90-41 90-91 0-50-41-91-90-91z m0 123c0 8 3 15 8 21-3 0-5 0-8 0-29 0-52-24-52-53 0-29 23-53 52-53 29 0 52 24 52 53 0 2 0 5 0 7-6-4-12-7-20-7-18 0-32 14-32 32z"/>
<glyph glyph-name="back" unicode="&#57350;" d="M118 256l247-247 29 30-217 217 217 217-29 30z"/>
<glyph glyph-name="billing-1" unicode="&#57351;" d="M183 141l146 0 0-27-146 0z m-20 71l31 0 0-20-31 0z m52 0l30 0 0-20-30 0z m52 0l30 0 0-20-30 0z m51 0l31 0 0-20-31 0z m83 269l0 16-31 0 0-16-21 0 0 16-31 0 0-16-21 0 0 16-30 0 0-16-22 0 0 16-30 0 0-16-21 0 0 16-31 0 0-16-21 0 0 16-31 0 0-16-8 0 0-450 8 0 0-16 31 0 0 16 21 0 0-16 31 0 0 16 21 0 0-16 30 0 0 16 22 0 0-16 30 0 0 16 21 0 0-16 31 0 0 16 21 0 0-16 31 0 0 16 8 0 0 450z m-267-418l0 129 8 0 0 20-8 0 0 237 244 0 0-237-8 0 0-20 8 0 0-129z m167 258c-2 4-6 8-11 12-5 4-12 7-21 9-2 1-3 1-5 1-1 1-3 1-4 2l0 33c4 0 7-2 10-6 3-3 5-7 5-12l27 0c-1 6-2 12-5 16-2 5-5 9-9 12-3 3-8 6-13 8-5 1-10 3-15 3l0 15-11 0 0-15c-6 0-11-1-17-3-5-2-9-4-13-8-4-3-7-7-10-12-2-5-4-10-4-17 0-6 2-11 4-15 2-4 5-8 8-11 4-2 8-5 12-6 5-2 9-3 14-5 1 0 2 0 3 0 1-1 2-1 3-1l0-39c-6 1-11 3-15 8-4 4-5 9-5 16l-27 0c2-14 6-25 14-33 8-8 19-12 33-13l0-16 11 0 0 16c9 1 17 3 23 6 6 3 10 6 14 10 3 4 6 8 7 13 2 4 2 7 2 10 0 3 0 7 0 11-1 4-2 7-5 11z m-52 26c-6 2-11 3-13 6-3 2-4 5-4 9 0 3 0 5 1 7 1 2 2 3 4 5 2 1 4 2 5 3 2 0 5 1 7 1z m29-55c-1-2-3-4-5-5-2-2-4-3-6-4-3 0-5-1-7-1l0 36c7-2 12-5 15-7 3-2 5-6 5-11 0-3-1-6-2-8z"/>
<glyph glyph-name="blog" unicode="&#57352;" d="M236 149l-40 40 188 188 40-39z m203 204l-39 40 63 63 39-40z m-292-253l72 32-40 40z m-81 280l225 0 0-29-225 0z m0-70l152 0 0-29-152 0z m0-70l92 0 0-29-92 0z m0-69l48 0 0-30-48 0z m284 49l0-160-311 0 0 392 311 0 0-63 29 30 0 62-369 0 0-450 369 0 0 218z"/>
<glyph glyph-name="blog-comment" unicode="&#57353;" d="M9 56l494 0 0-29-494 0z m160 104l-49 49 195 195 49-49z m212 211l-50 49 65 65 50-49z m-307-258l78 29-50 49z"/>
<glyph glyph-name="collection" unicode="&#57354;" d="M10 362l257 110 235-90-249-121z m243-134l-148 61-95-40 243-101 249 120-92 36z m0-112l-148 61-95-38 243-99 249 119-92 33z"/>
<glyph glyph-name="color-theme" unicode="&#57355;" d="M360 353c-20 13-184-228-184-228-19 2-38-5-49-32-24-69-53-77-53-77 0 0 149-16 153 62 0 0 153 261 133 275z m-157-205l8 13 38-27-8-14z m-137 131c4 41 20 78 45 108l-31 31c-33-38-54-86-58-139z m45-139c-25 30-41 67-45 109l-44 0c4-54 25-102 58-140z m22 268c29 26 67 42 108 45l0 44c-53-3-102-24-139-58z m138 89l0-44c41-3 79-19 108-45l31 31c-37 34-86 55-139 58z m130-110c25-30 41-67 45-108l44 0c-4 53-25 101-58 139z m45-138c-4-42-20-79-45-109l31-31c33 38 54 86 58 140z m-67-130c-29-25-67-42-108-45l0-44c53 3 102 25 139 58z"/>
<glyph glyph-name="contact-messages" unicode="&#57356;" d="M258 339l-203 0c-25 0-44-20-44-44l0-141c0-24 19-44 44-44l25 0c-6-26-12-50-18-76 3 2 4 2 5 3 27 23 54 45 81 68 3 3 7 4 11 5l99 0c24 0 44 20 44 44l0 141c0 24-20 44-44 44z m15-185c0-8-7-15-15-15l-104 0c-3-1-6-3-8-6-8-8-16-15-24-23-8-8-16-16-24-24-1-1-3-2-6-4 3 9 6 19 8 28 3 10 5 19 8 29l-53 0c-9 0-15 7-15 15l0 141c0 8 6 15 15 15l203 0c8 0 15-7 15-15z m184 324l-203 0c-24 0-44-19-44-43l0-82 29 0 0 82c0 8 7 14 15 14l203 0c9 0 15-6 15-14l0-142c0-8-6-14-15-14l-70 0c3-10 5-20 8-29 2-9 5-18 7-26-3 1-5 2-6 4-8 7-15 14-23 22-9 9-18 18-28 27 0 0-1 1-2 2l-27 0 0-29 21 0c5-2 9-4 13-8 26-21 51-42 77-64 1-1 3-2 6-4-6 26-12 50-18 76l42 0c25 0 44 19 44 43l0 142c0 24-19 43-44 43z"/>
<glyph glyph-name="followers" unicode="&#57357;" d="M445 438c-6-22-13-44-19-67-26-92-52-183-77-275-1-2-1-4-2-7-42 40-84 79-125 118 39 42 78 83 117 125 0 0 0 1 0 1-3-2-5-3-7-5-49-33-98-67-147-101-3-2-7-3-10-2-35 8-70 16-105 25-1 0-1 1-3 2 3 1 5 2 7 4 123 61 246 122 369 184 1 0 1 1 2 1 0-1 0-2 0-3z m-238-253c18-18 36-35 54-52-18-20-35-41-54-62 0 38 0 75 0 114z"/>
<glyph glyph-name="font-combination" unicode="&#57358;" d="M490 212l-2-3c-25-28-49-51-64-51-7 0-12 5-4 19l55 96-19 0c1 14-14 34-36 34-18 0-44-14-58-39l-33-56c0 0 0 0 0 0l-2-3c-25-28-48-49-54-49-5 0-6 3-1 17l67 196c-75 25-160-206-247-207-53 0-67 51-40 96 30 50 81 51 97 12l27 11c-26 61-112 56-150-8-40-70-5-140 66-140 47 0 84 38 118 83l46 0-12-35c-9-25-7-48 18-48 14 0 30 10 45 25 1-14 12-25 30-25 14 0 31 9 47 22 2-13 13-22 30-22 28 0 61 30 89 63-3 4-8 10-13 12z m-229 25l-39 0c25 34 49 71 74 96z m141-31c-20-33-41-48-55-48-7 0-11 5-4 19l48 83c18 31 55 23 38-8z"/>
<glyph glyph-name="gallery" unicode="&#57359;" d="M10 502l0-492 492 0 0 492z m179-313l0 134 135 0 0-134-135 0z m135-22l0-123-135 0 0 123z m144 178l-123 0 0 123 123 0z m-144 0l-135 0 0 123 135 0z m-157 0l-123 0 0 123 123 0z m0-22l0-134-123 0 0 134z m178 0l123 0 0-134-123 0z m-301-156l123 0 0-123-123 0z m301-123l0 123 123 0 0-123-123 0z"/>
<glyph glyph-name="guestbook-messages" unicode="&#57360;" d="M137 455c-12 0-24-3-33-9-5-3-9-7-12-11-3-5-6-11-6-17l0-313c0-6 3-12 6-17 4-7 11-12 19-15 8-4 17-5 26-5l241-19 0 45 48 3 0 366z m143-237l-100 8 3 29 99-7z m44 70l-172 14 2 29 173-14z m75-167l-21-1 0 268-240 19c-8 1-16 2-20 5-3 1-4 3-5 4 0 1 0 1 0 2 0 0 0 1 0 2 1 2 4 4 8 6 5 2 10 3 17 3l0 0 261 7z"/>
<glyph glyph-name="help" unicode="&#57361;" d="M256 466c116 0 210-94 210-210 0-116-94-210-210-210-116 0-210 94-210 210 0 116 94 210 210 210m0 36c-136 0-246-110-246-246 0-136 110-246 246-246 136 0 246 110 246 246 0 136-110 246-246 246z m-17-224c3 8-1 12-5 12-16 0-37-38-45-38-3 0-6 3-6 6 0 7 20 26 25 32 18 16 41 29 66 29 19 0 39-11 23-54l-31-86c-3-6-8-17-8-24 0-3 2-6 6-6 13 0 37 37 43 37 2 0 5-3 5-7 0-12-51-67-95-67-16 0-27 8-27 24 0 21 15 57 18 65z m23 87c0 19 17 35 36 35 18 0 31-12 31-30 0-20-17-35-37-35-18 0-30 12-30 30z"/>
<glyph glyph-name="layout-1" unicode="&#57362;" d="M501 369l-51 0 0 103-359 0 0-103-80 0 0-248 80 0 0-81 359 0 0 81 51 0z m-461-226l0 197 51 0 0-197z m73 197l59 0 0-197-59 0z m315-271l-315 0 0 52 81 0 0 248-81 0 0 81 315 0 0-81-176 0 0-248 176 0z m0 271l0-197-146 0 0 197z m44-197l-22 0 0 197 22 0z"/>
<glyph glyph-name="logo-1" unicode="&#57363;" d="M490 12l-75 0 0 22 43 0-4 11 20 8z m-106 30l-34 81 21 9 33-82z m56 37l-32 82 20 8 33-82z m-95 68l-81 0 0 22 81 0z m49 48l-32 81 20 8 33-81z m-45 115l-33 82 21 8 32-82z m-46 116l-21 52-17 0 0 22 32 0 26-66z m35-216l-75 0 0 22 44 0-4 12 20 7z m-47 68l-29 83 21 8 28-83z m-253-225l20-8-4-11 43 0 0-22-75 0z m70-3l33 82 21-9-34-81z m-57 37l33 82 20-8-32-82z m116 82l81 0 0-22-81 0z m-70 34l33 81 20-8-32-81z m46 115l32 82 21-8-33-82z m46 116l26 66 32 0 0-22-17 0-21-52z m0-183l20-7-4-12 44 0 0-22-75 0z m12 35l28 83 21-8-29-83z"/>
<glyph glyph-name="logout" unicode="&#57364;" d="M256 22c-117 0-212 95-212 212 0 89 54 165 132 196l0 0c2 1 4 2 7 2 12 0 22-10 22-22 0-10-6-18-15-21l0 0c-60-26-102-85-102-155 0-93 75-168 168-168 93 0 168 75 168 168 0 70-42 129-102 155l0 0c-9 3-15 11-15 21 0 12 10 22 22 22 3 0 5-1 7-2l0 0c78-31 132-107 132-196 0-117-95-212-212-212m0 227c-12 0-22 10-22 22l0 197c0 12 10 22 22 22 12 0 22-10 22-22l0-197c0-12-10-22-22-22"/>
<glyph glyph-name="menu-1" unicode="&#57365;" d="M9 278l494 0 0-44-494 0z m0-124l494 0 0-44-494 0z m0 248l494 0 0-44-494 0z"/>
<glyph glyph-name="messages" unicode="&#57366;" d="M490 110c0-12-10-22-22-22l-424 0c-12 0-22 10-22 22l0 139c0 2 1 5 1 7l0 0 59 154 0 0c3 8 11 14 20 14l308 0c9 0 17-6 20-14l0 0 59-154 0 0c0-2 1-5 1-7z m-96 270l-276 0-42-109 70 0c12 0 22-10 22-22l0-22 176 0 0 22c0 12 10 22 22 22l70 0z"/>
<glyph glyph-name="product" unicode="&#57367;" d="M236 85l-157 55 0 224 157-54z m40 0l157 55 0 224-157-54z m121 296l-139-45-144 49 139 42z"/>
<glyph glyph-name="settings-1" unicode="&#57368;" d="M503 234l0 44-68 25c-4 17-10 32-19 46l30 66-31 31-66-30c-14 8-29 15-46 19l-25 68-44 0-25-68c-17-4-32-11-46-19l-66 30-31-31 30-66c-8-14-15-29-19-46l-68-25 0-44 68-25c4-17 11-32 19-46l-30-66 31-31 66 30c14-8 29-15 46-19l25-68 44 0 25 68c17 4 32 10 46 19l66-30 31 31-30 66c8 14 15 29 19 46z m-247-107c-71 0-129 58-129 129 0 71 58 129 129 129 71 0 129-58 129-129 0-71-58-129-129-129z"/>
<glyph glyph-name="sub-menu" unicode="&#57369;" d="M300 395c0-24-20-44-44-44-24 0-44 20-44 44 0 24 20 44 44 44 24 0 44-20 44-44m0-139c0-24-20-44-44-44-24 0-44 20-44 44 0 24 20 44 44 44 24 0 44-20 44-44m0-139c0-24-20-44-44-44-24 0-44 20-44 44 0 24 20 44 44 44 24 0 44-20 44-44"/>
<glyph glyph-name="text" unicode="&#57370;" d="M10 502l0-492 492 0 0 492z m458-458l-424 0 0 424 424 0z m-232 266l-46 0 0 32 132 0 0-32-47 0 0-140-39 0z"/>
<glyph glyph-name="upgrade" unicode="&#57371;" d="M399 286l-143 0 0 217-143-277 143 0 0-217z"/>
<glyph glyph-name="other" unicode="&#57372;" d="M182 276l54 0 0 54 40 0 0-54 54 0 0-40-54 0 0-54-40 0 0 54-54 0z m-172 226l209 0 0-34-175 0 0-175-34 0z m492 0l0-209-34 0 0 175-175 0 0 34z m-458-458l175 0 0-34-209 0 0 209 34 0z m458 175l0-209-209 0 0 34 175 0 0 175z"/>
<glyph glyph-name="align-center" unicode="&#57373;" d="M75 409l362 0 0-34-362 0z m68-90l226 0 0-35-226 0z m-68-91l362 0 0-34-362 0z m102-91l158 0 0-34-158 0z"/>
<glyph glyph-name="align-even" unicode="&#57374;" d="M75 137l362 0 0-34-362 0z m0 91l362 0 0-34-362 0z m0 90l362 0 0-34-362 0z m0 91l362 0 0-34-362 0z"/>
<glyph glyph-name="align-left" unicode="&#57375;" d="M75 137l260 0 0-34-260 0z m0 91l362 0 0-34-362 0z m0 91l294 0 0-35-294 0z m0 90l362 0 0-34-362 0z"/>
<glyph glyph-name="align-right" unicode="&#57376;" d="M177 137l260 0 0-34-260 0z m-102 91l362 0 0-34-362 0z m68 90l294 0 0-34-294 0z m-68 91l362 0 0-34-362 0z"/>
<glyph glyph-name="bold" unicode="&#57377;" d="M135 150l35 0 0 212-35 0 0 47 122 0c75 0 112-34 112-80 0-36-22-59-53-69 39-11 61-33 61-71 0-51-41-86-115-86l-127 0z m122 129c37 0 58 17 58 43 0 27-22 41-59 41l-34 0 0-84z m6-130c36 0 60 15 60 44 0 29-22 44-61 44l-40 0 0-88z"/>
<glyph glyph-name="bullet-points" unicode="&#57378;" d="M171 382l265 0 0-26-265 0z m-36-13c0-17-13-30-29-30-17 0-30 13-30 30 0 16 13 30 30 30 16 0 29-14 29-30z m0-113c0-16-13-30-29-30-17 0-30 14-30 30 0 16 13 30 30 30 16 0 29-14 29-30z m0-113c0-16-13-30-29-30-17 0-30 14-30 30 0 17 13 30 30 30 16 0 29-13 29-30z m36 126l265 0 0-26-265 0z m0-113l265 0 0-26-265 0z"/>
<glyph glyph-name="h1" unicode="&#57379;" d="M19 409l68 0 0-114 131 0 0 114 68 0 0-306-68 0 0 132-131 0 0-132-68 0z m411-72l-61-55-37 43 100 84 61 0 0-306-63 0z"/>
<glyph glyph-name="h2" unicode="&#57380;" d="M4 406l42 0 0-128 159 0 0 128 41 0 0-307-41 0 0 140-159 0 0-140-42 0z m304-263l123 122c4 4 8 9 12 13 5 5 8 10 11 15 4 5 6 11 8 17 2 6 3 12 3 18 0 7-2 14-4 20-3 6-7 12-12 16-4 4-10 7-17 9-6 3-13 4-20 4-15 0-28-4-37-13-10-8-16-20-19-34l-45 4c2 13 6 25 12 35 6 10 13 18 22 25 9 6 19 11 30 15 12 3 24 4 37 4 14 0 26-1 38-5 11-4 22-9 31-16 8-7 15-16 20-27 5-10 8-22 8-37 0-10-2-19-5-28-3-9-7-17-12-25-4-8-10-15-16-22-7-7-13-14-20-20l-101-98 154 0 0-36-201 0z"/>
<glyph glyph-name="h3" unicode="&#57381;" d="M3 409l29 0 0-135 171 0 0 135 29 0 0-306-29 0 0 145-171 0 0-145-29 0z m344-242c6-15 14-26 24-34 10-8 24-12 41-12 11 0 21 1 30 5 9 3 16 8 21 14 6 6 10 13 13 22 3 8 4 16 4 26 0 11-2 20-7 29-4 8-11 14-18 19-8 5-17 9-26 11-10 3-20 4-30 4l-11 0 0 26 13 0c8 0 16 1 25 3 8 2 15 6 22 10 6 5 12 11 16 18 4 8 6 17 6 27 0 16-6 30-16 40-10 11-24 16-41 16-13 0-24-3-34-9-11-7-18-16-24-27l-25 14c8 16 20 28 35 35 14 7 30 11 48 11 11 0 22-2 33-5 10-4 19-9 27-15 8-7 14-15 19-25 4-9 6-21 6-34 0-17-4-32-14-45-9-13-22-21-40-26l0-1c9-2 18-5 26-10 8-5 15-11 21-18 6-6 10-14 13-23 3-9 5-18 5-28 0-12-2-23-6-34-4-11-10-20-18-28-8-8-17-14-29-19-12-4-26-7-42-7-23 0-43 5-59 15-16 10-28 25-36 46z"/>
<glyph glyph-name="italic" unicode="&#57382;" d="M170 141l38 0 54 230-42 0 9 38 122 0-9-38-38 0-54-230 42 0-9-38-122 0z"/>
<glyph glyph-name="underline" unicode="&#57383;" d="M159 246l0 124-28 0 0 39 103 0 0-39-30 0 0-122c0-40 20-61 52-61 34 0 54 19 54 59l0 124-31 0 0 39 102 0 0-39-28 0 0-124c0-67-40-99-97-99-57 0-97 32-97 99z m-38-143l0 19 270 0 0-19z"/>
<glyph glyph-name="numeral-points" unicode="&#57384;" d="M169 381l266 0 0-26-266 0z m0-113l266 0 0-26-266 0z m0-112l266 0 0-26-266 0z m-70 232l-14-12-8 9 22 19 13 0 0-67-13 0z m-20-150l26 23c1 2 2 3 4 4 1 2 2 4 2 6 0 2-1 4-3 5-1 1-3 2-6 2-2 0-4-1-6-3-1-1-2-3-2-6l-14 2c0 3 1 6 2 8 1 3 3 5 5 7 2 1 4 3 7 4 3 0 6 1 9 1 3 0 6-1 9-1 2-1 4-3 6-4 2-2 4-4 5-6 1-3 2-6 2-9 0-2-1-4-1-6-1-2-1-3-2-5-1-1-2-2-3-3-1-2-2-3-3-4l-20-17 29 0 0-13-46 0 0 15z m16-88l4 0c1 0 3 0 4 0 1 0 2 1 3 1 1 1 2 1 3 2 1 1 1 3 1 4 0 2-1 4-3 5-1 1-3 2-5 2-3 0-4-1-6-2-1-1-2-2-3-4l-15 3c1 3 2 5 3 7 2 2 4 4 6 5 2 2 4 2 6 3 3 1 6 1 9 1 2 0 5 0 8-1 3-1 5-2 7-3 2-2 4-4 5-6 1-3 2-5 2-8 0-4-1-7-3-10-2-3-5-4-8-5l0 0c2 0 3-1 5-2 1-1 3-2 4-3 1-2 2-3 2-5 1-2 1-4 1-6 0-3-1-6-2-8-1-3-3-5-5-7-2-1-5-2-8-3-3-1-6-2-9-2-6 0-11 2-15 5-4 2-7 7-9 13l15 3c1-2 2-4 3-6 2-1 4-2 7-2 3 0 5 1 7 3 1 1 2 3 2 6 0 2 0 3-1 4-1 1-2 2-3 3-2 0-3 0-4 0-2 1-4 1-5 1l-3 0 0 12z"/>
<glyph glyph-name="gallery-v2" unicode="&#57385;" d="M296 310c8 0 14-6 14-14l0-80c0-8-6-14-14-14l-80 0c-8 0-14 6-14 14l0 80c0 8 6 14 14 14z m155 0c8 0 15-6 15-14l0-80c0-8-7-14-15-14l-79 0c-8 0-15 6-15 14l0 80c0 8 7 14 15 14z m-311 0c8 0 15-6 15-14l0-80c0-8-7-14-15-14l-79 0c-8 0-15 6-15 14l0 80c0 8 7 14 15 14z m156 156c8 0 14-7 14-15l0-79c0-8-6-15-14-15l-80 0c-8 0-14 7-14 15l0 79c0 8 6 15 14 15z m155 0c8 0 15-7 15-15l0-79c0-8-7-15-15-15l-79 0c-8 0-15 7-15 15l0 79c0 8 7 15 15 15z m-311 0c8 0 15-7 15-15l0-79c0-8-7-15-15-15l-79 0c-8 0-15 7-15 15l0 79c0 8 7 15 15 15z m156-311c8 0 14-7 14-15l0-79c0-8-6-15-14-15l-80 0c-8 0-14 7-14 15l0 79c0 8 6 15 14 15z m155 0c8 0 15-7 15-15l0-79c0-8-7-15-15-15l-79 0c-8 0-15 7-15 15l0 79c0 8 7 15 15 15z m-311 0c8 0 15-7 15-15l0-79c0-8-7-15-15-15l-79 0c-8 0-15 7-15 15l0 79c0 8 7 15 15 15z"/>
<glyph glyph-name="heart" unicode="&#57386;" d="M364 243l-108-108-108 108c-31 31-31 81 0 111 29 30 77 31 108 3 31 28 79 27 108-3 31-30 31-80 0-111z m-24 87c-8 8-19 12-31 12-10 0-21-4-29-11l-24-23-23 23c-8 7-19 11-30 11-11 0-22-4-30-12-8-9-13-20-13-31 0-12 5-23 13-31l83-83 84 83c8 8 13 19 13 31 0 11-5 22-13 31z"/>
<glyph glyph-name="alert-error" unicode="&#57387;" d="M256 467c116 0 211-95 211-211 0-116-95-211-211-211-117 0-211 95-211 211 0 116 94 211 211 211m0 39c-138 0-251-112-251-250 0-138 113-250 251-250 138 0 250 112 250 250 0 138-112 250-250 250z m116-165l-31 31-85-85-86 85-30-31 85-85-85-85 30-31 86 85 85-85 31 31-86 85z"/>
<glyph glyph-name="alert-general" unicode="&#57388;" d="M369 256c-58-40-115-79-174-120 0 18 0 35 1 51 0 3 5 6 8 8 28 20 57 40 87 60-4 3-6 5-9 7-26 19-53 37-79 56-4 2-7 8-8 13 0 14 0 28 0 45 59-40 116-80 174-120z m-113 211c116 0 211-95 211-211 0-116-95-211-211-211-117 0-211 95-211 211 0 116 94 211 211 211m0 39c-138 0-251-112-251-250 0-138 113-250 251-250 138 0 250 112 250 250 0 138-112 250-250 250z"/>
<glyph glyph-name="alert-success" unicode="&#57389;" d="M256 467c116 0 211-95 211-211 0-116-95-211-211-211-117 0-211 95-211 211 0 116 94 211 211 211m0 39c-138 0-251-112-251-250 0-138 113-250 251-250 138 0 250 112 250 250 0 138-112 250-250 250z m-21-362l-110 108 31 31 79-79 141 138 30-31z"/>
<glyph glyph-name="chat" unicode="&#57390;" d="M466 458l-420 0c-21 0-38-17-38-37l0-262c0 0 0-2 0-6 0-20 0-85 0-99 0-7 83 61 101 61l357 0c21 0 38 17 38 38l0 268c0 20-17 37-38 37z m-179-235c0-8-6-14-14-14l-188 0c-8 0-14 6-14 14l0 34c0 8 6 14 14 14l188 0c8 0 14-6 14-14z m155 93c0-7-6-14-14-14l-343 0c-8 0-14 7-14 14l0 34c0 8 6 15 14 15l343 0c8 0 14-7 14-15z"/>
<glyph glyph-name="design" unicode="&#57391;" d="M153 264l21 0 0 20 15 0 0-20 21 0 0-16-21 0 0-20-15 0 0 20-21 0z m-58 102l0-220 322 0 0 220z m307-117l0-88-139 0 0 41-14 0 0-41-139 0 0 190 139 0 0-40 14 0 0 40 139 0 0-88-15 0 0-14z m-139 33l-14 0 0-51 14 0 0 18 14 0 0 14-14 0z m44-19l51 0 0-14-51 0z"/>
<glyph glyph-name="domain" unicode="&#57392;" d="M145 231l-10 34-11-34-14 0-15 50 14 0 9-34 11 34 12 0 10-34 10 34 13 0-15-50-14 0z m122 0l-11 34-10-34-15 0-15 50 14 0 9-34 11 34 12 0 11-34 9 34 14 0-16-50-13 0z m121 0l-11 34-10-34-14 0-15 50 13 0 10-34 10 34 12 0 11-34 9 34 14 0-15-50-14 0z m-221 79c6 10 14 19 23 26 5-3 11-6 16-9-3-6-5-11-7-17l15 0c2 4 3 8 6 11 9-3 19-5 29-6 0 0 0 0 0 0l0-5 14 0 0 5c10 1 20 3 29 6 2-4 4-7 6-11l15 0c-2 5-5 11-7 16 6 2 12 6 17 9 9-7 16-15 22-25l16 0c-16 31-46 54-81 61-6 1-11 2-17 2-2 1-5 1-7 1-2 0-5 0-7-1 0 0 0 0-1 0-42-2-78-27-97-63z m144 34c-4-2-8-5-12-6-5 6-9 12-15 18 10-3 19-7 27-12z m-48 11c8-6 15-14 22-22-7-2-15-4-22-4z m-14 1l0-27c-7 1-15 2-22 4 7 9 14 16 22 23z m-22 0c-5-6-10-11-14-17-4 1-7 3-11 6 8 4 16 8 25 11z m118-154c-6-10-13-18-22-25-5 3-11 7-17 9 2 5 5 11 7 16l-15 0c-2-4-4-7-6-11-9 3-19 5-29 6l0 5-14 0 0-5c0 0 0 0 0 0-10-1-20-3-30-6-2 3-3 7-5 11l-15 0c2-6 4-11 7-17-6-2-11-6-16-9 0 0-1 0-1 1-9 7-16 15-22 25l-16 0c7-13 16-24 27-34 3-3 7-6 11-9 17-12 37-19 60-20 0 0 0 0 0 0 2-1 5-1 7-1 2 0 5 0 7 1 6 0 11 1 17 2 16 3 30 9 43 18 4 3 8 6 11 9 11 10 20 21 27 34l-16 0z m-143-35c4 3 7 5 11 6 4-6 9-12 14-17-9 3-17 7-25 11z m47-11c-3 3-7 6-10 9-4 4-8 9-12 14 7 2 15 3 22 4z m23 9c-3-3-6-6-9-8l0 26c7 0 15-2 22-4-4-5-8-10-13-14z m12-9c6 6 10 12 15 18 4-1 8-4 12-6-8-5-17-9-27-12z"/>
<glyph glyph-name="customizeddesign-features" unicode="&#57393;" d="M468 115l0 282c7 0 12 5 12 12 0 7-5 13-12 13-7 0-12-6-13-12l-398 0c-1 6-6 12-13 12-7 0-12-6-12-13 0-7 5-12 12-12l0-282c-7 0-12-5-12-12 0-7 5-13 12-13 7 0 13 6 13 13l398 0c0-7 6-13 13-13 7 0 12 6 12 13 0 7-5 12-12 12z m-7-2c-2-1-3-2-4-3l-402 0c-1 1-2 2-4 3l0 286c2 1 3 2 4 4l402 0c1-2 2-3 4-4z m-268 91l10 0 0 10 8 0 0-10 10 0 0-7-10 0 0-11-8 0 0 11-10 0z m86 27l0-61-145 0 0 61 145 0m8 7l-160 0 0-76 160 0z m40-34l11 0 0 10 7 0 0-10 10 0 0-7-10 0 0-11-7 0 0 11-11 0z m52 27l0-61-76 0 0 61 76 0m7 7l-90 0 0-76 90 0 0 76z m-157 72l0-31-31 0 0 31 31 0m7 7l-46 0 0-45 46 0z m-51-26l0 32 38 0 0 7-45 0 0-46 7 0z m-51-15l-7 0 0-25 25 0 0 7-18 0z m145 74l-17 0 0-7 17 0 0-18 8 0 0 25z m-51 0l25 0 0-7-25 0z m51-92l-17 0 0-7 25 0 0 25-8 0z m-152 92l0-25 7 0 0 18 18 0 0 7z m34 0l25 0 0-7-25 0z m33 0l25 0 0-7-25 0z m34-92l25 0 0-7-25 0z m-67 0l25 0 0-7-25 0z m33 0l25 0 0-7-25 0z m-67 59l7 0 0-32-7 0z m152 0l8 0 0-32-8 0z m17 33l90 0 0-7-90 0z m0-16l90 0 0-7-90 0z m0-17l90 0 0-7-90 0z m0-18l27 0 0-7-27 0z"/>
<glyph glyph-name="templates" unicode="&#57394;" d="M413 311l-80 0 0 58-198 0 0-58-44 0 0-132 44 0 0-44 198 0 0 44 80 0z m-307-117l0 102 29 0 0-102z m44 102l29 0 0-102-29 0z m168-146l-168 0 0 29 44 0 0 132-44 0 0 44 168 0 0-44-95 0 0-132 95 0z m0 146l0-102-80 0 0 102z m81-102l-66 0 0 102 66 0z"/>
<glyph glyph-name="premiumfonts-features" unicode="&#57395;" d="M490 212l-2-3c-25-28-49-51-64-51-7 0-12 5-4 19l55 96-19 0c1 14-14 34-36 34-18 0-44-14-58-39l-33-56c0 0 0 0 0 0l-2-3c-25-28-48-49-54-49-5 0-6 3-1 17l67 196c-75 25-160-206-247-207-53 0-67 51-40 96 30 50 81 51 97 12l27 11c-26 61-112 56-150-8-40-70-5-140 66-140 47 0 84 38 118 83l46 0-12-35c-9-25-7-48 18-48 14 0 30 10 45 25 1-14 12-25 30-25 14 0 31 9 47 22 2-13 13-22 30-22 28 0 61 30 89 63-3 4-8 10-13 12z m-229 25l-39 0c25 34 49 71 74 96z m141-31c-20-33-41-48-55-48-7 0-11 5-4 19l48 83c18 31 55 23 38-8z"/>
<glyph glyph-name="galleries-features" unicode="&#57396;" d="M95 373l0-234 322 0 0 234z m307-74c-28 0-57 0-85 0 0 20 0 40 0 59l85 0z m-187-73c0 20 0 40 0 60 29 0 59 0 89 0 0-20 0-40 0-60-30 0-60 0-89 0z m89-13c0-20 0-40 0-59l-89 0c0 20 0 39 0 59 29 0 59 0 89 0z m-102 13c-31 0-62 0-92 0l0 60c30 0 61 0 92 0 0-20 0-40 0-60z m13 73c0 20 0 40 0 59l89 0c0-19 0-39 0-59-30 0-60 0-89 0z m102-13c28 0 57 0 85 0l0-60c-28 0-57 0-85 0 0 20 0 40 0 60z m-115 72c0-19 0-39 0-59-31 0-62 0-92 0l0 59z m-92-145c30 0 61 0 92 0 0-20 0-40 0-59l-92 0z m207-59c0 20 0 39 0 59 28 0 57 0 85 0l0-59z"/>
<glyph glyph-name="coverpage-features" unicode="&#57397;" d="M169 309c0 4 0 9 0 13 59 0 118 0 178 0 0-4 0-9 0-13-60 0-119 0-178 0z m-28-136l234 0-70 81-31-22-47 47z m-50 196l0-234 322 0 0 234z m308-219l-293 0 0 205 293 0z"/>
<glyph glyph-name="bullet" unicode="&#57398;" d="M388 256c0-73-59-132-132-132-73 0-132 59-132 132 0 73 59 132 132 132 73 0 132-59 132-132z"/>
<glyph glyph-name="logo-2" unicode="&#57399;" d="M379 443l-216 0 108-187-108-187 216 0 108 187z m-223-187l42 74-65 113-108-187 108-187 65 113z"/>
<glyph glyph-name="galleries" unicode="&#57400;" d="M48 401l0-290 416 0 0 290z m402-92l-120 0 0 77 120 0z m-268-92l-120 0 0 78 120 0z m15 78l118 0 0-78-118 0z m118-92l0-77-118 0 0 77z m-118 106l0 77 118 0 0-77z m133-14l120 0 0-78-120 0z m-148 91l0-77-120 0 0 77z m-120-183l120 0 0-77-120 0z m268-77l0 77 120 0 0-77z"/>
<glyph glyph-name="customizabledesign-features" unicode="&#57401;" d="M424 451c-6 6-12 12-18 18-8 7-14 10-19 10-6 0-12-3-20-11-10-10-20-20-30-30-11-11-22-22-34-33l-60-60c-54-54-108-108-163-162-4-4-7-9-8-13-14-41-27-82-41-126-1-4-1-9-1-10 1 0 2-1 4-1 3 0 5 1 7 1 37 11 82 24 127 38 6 2 13 6 18 11 28 27 56 55 83 82 10 10 20 20 30 30l42 42c42 43 87 87 130 131 4 3 6 7 9 12 1 2 2 4 3 6-1 2-2 3-3 5-3 5-5 8-8 11-16 17-32 33-48 49z m-101-38l17-22-22-22c-14-13-28-27-42-41-13-13-26-26-40-40-35-34-71-70-106-106-6-7-13-10-20-10-4 0-9 1-14 3l-4 2z m-283-369l41 124 33-7 0-3c0-3 0-6 0-9 0-8 0-15-1-22 0-4 1-7 2-8 2-2 5-3 9-2 1 0 2 0 2 0l3 0c30-1 32-2 37-33l1-3z m100 81c-4 0-9 1-13 2l-3 0 0 3c-2 17-2 32 13 47 49 48 99 97 146 145 18 18 36 36 54 54 2 1 4 3 6 5l5 5 35-36-2-3c-7-7-14-14-21-22-15-16-32-33-48-49-18-19-37-37-55-54-26-26-53-52-79-79-12-12-24-18-38-18z m36-36l-2 6c0 1-1 2-1 4-2 4-3 9-4 13-1 4 0 10 4 14 69 68 140 138 209 205l6 6c1 1 2 1 3 2 0 0 1 0 2 0l2 1 14-17z m292 288c-10-10-21-21-31-32l-16-17-89 91 14 15c10 10 21 20 31 31 3 3 6 5 10 5 4 0 7-3 10-5 22-23 45-45 67-67l2-2c2-3 10-10 2-19z m-327 83c18-19 36-38 54-56 10-11 20-21 29-31 3-3 6-5 7-5 0 0 1 0 3 2 0 1-1 7-3 9-28 30-56 59-87 91-6 6-12 9-18 9-6 0-12-3-18-8-25-25-49-48-71-70-11-12-11-25 1-36 32-32 61-61 90-88 1-1 4-1 7-1 0 0 0 0 0 0 0 0 0 1 0 1 0 2 0 5-1 7-4 4-9 9-14 13-2 2-5 4-7 7l-3 2 3 3c2 2 5 4 7 6 5 4 9 8 13 12 1 2 1 5 1 8 0 0 0 0 0 0 0 0 0 0 0 0-3 0-6 0-8-2-4-3-9-7-13-12-2-2-4-4-6-6l-2-2-34 36 14 15c10 10 21 21 31 31 1 1 2 2 3 3 2 2 4 4 4 6 0 1-1 2-1 3-2 1-3 2-4 2-2 0-4-3-6-5-1-1-1-1-2-2-11-11-22-22-33-34l-14-14-7 6c-3 3-5 5-7 7-6 6-11 11-11 16 0 6 5 10 11 17 21 20 41 41 62 61 6 5 10 9 15 9 5 0 9-4 15-10z m137-332c1-1 1-2 2-2 25-26 51-52 76-77l6-7c12-12 28-13 40-1 24 24 46 46 67 68 12 12 12 22 0 34-18 18-36 35-53 53l-24 23c-1 1-2 3-4 4-3 4-6 7-9 9-2 1-4 1-7 2 0 0 0 0 0 0 0-1 0-1 0-1 0-3 0-6 1-8 0-1 2-2 3-3 1-1 2-2 2-2l21-21c21-20 41-41 62-61 4-4 7-7 7-12 0-4-2-7-5-10-13-13-26-26-39-39-10-10-20-20-29-30-8-7-17-7-25 0-3 3-6 7-10 11-1 1-3 3-5 5l-2 3 2 2c2 1 3 2 4 3 2 2 4 3 5 5l9 8c11 11 22 21 32 32 0 1 0 5 0 7 0 0 0 0 0 0-3 0-5 0-7-1-2-1-3-3-5-5 0 0-1-1-2-2-10-11-20-22-30-32l-11-12-39 38 2 2c2 2 4 4 6 6 6 4 10 9 14 14 1 1 1 3 2 6 0 0 0 0 0 0-1 0-1 0-1 0-1 0-2 0-4 0-2 0-2 0-2 0-5-4-10-9-14-15-2-2-4-4-6-7l-2-2-3 2c-3 3-5 5-7 8-5 5-10 10-15 14 0 1-2 1-4 1 0 0-1 0-1 0-1-2-1-5 0-8 0 0 1-2 2-2z"/>
<glyph glyph-name="edit-1" unicode="&#57402;" d="M199 172l-26 26 123 123 26-26z m134 133l-26 26 41 41 26-26z m-192-165l47 21-26 26z m-45 180l147 0 0-14-147 0z m0-45l99 0 0-15-99 0z m0-46l60 0 0-15-60 0z m0-46l31 0 0-14-31 0z m287 138l-14-15 33 0 0-123-156 0-14-14 184 0 0 152z m5-125l-37 43-19-13-21 22-52-52z"/>
<glyph glyph-name="ios-glasses-outline" unicode="&#57403;" d="M465 265c-2 22-12 43-28 58-18 16-40 25-63 25-42 0-77-27-89-67-7 7-18 12-29 12-11 0-22-5-29-12-11 40-47 67-89 67-23 0-45-9-62-25-17-15-27-36-29-58l-15 0 0-18 15 0c2-22 12-43 29-58 17-16 39-25 62-25 51 0 92 41 92 92 0 0 0 0 0 0 0 10 12 22 26 22 14 0 26-12 26-22 0 0 0 0 0 0 0-51 41-92 92-92 23 0 45 9 63 25 16 15 26 36 28 58l15 0 0 18-15 0z m-91-86c-43 0-77 35-77 77 0 42 34 77 77 77 42 0 77-35 77-77 0-43-35-77-77-77z m-236 0c-42 0-77 35-77 77 0 42 35 77 77 77 43 0 77-35 77-77 0-43-34-77-77-77z"/>
<glyph glyph-name="ios-eye-outline" unicode="&#57404;" d="M447 256c-45 52-108 112-191 112-34 0-64-10-97-30-27-17-55-41-94-81l-1-1 7-7c55-56 102-105 185-105 37 0 72 12 108 36 31 21 57 48 79 69l5 6z m-191 96c33 0 65-10 97-31 24-15 48-36 74-66-38-38-96-95-171-95-34 0-64 8-94 28-28 18-52 43-76 68 59 60 108 96 170 96z m0-176c44 0 80 36 80 80 0 44-36 80-80 80-44 0-80-36-80-80 0-44 36-80 80-80z m0 144c35 0 64-29 64-64 0-35-29-64-64-64-35 0-64 29-64 64 0 35 29 64 64 64z m32-64c0-18-14-32-32-32-17 0-32 15-32 33 0 17 16 31 32 31l0 16c-26 0-48-22-48-48 0-27 22-48 48-48 26 0 48 21 48 48l0 0z"/>
<glyph glyph-name="eye-galsses" unicode="&#57405;" d="M446 259l-141 0 18-84 114 0z m-239 0l-141 0 8-84 115 0z m265 24c3-3 4-7 4-11l-13-113c-1-7-7-13-14-13l-137 0c-8 1-13 5-14 12l-22 98c-12 7-28 6-40 1l-22-99c-2-7-7-12-14-12l-138 0c-8 1-13 6-13 13l-13 113c0 4 1 8 4 11l158 82c8 3 15 0 18-7 3-8 1-16-6-20l-100-45 290 0-100 45c-8 4-10 13-7 20 4 7 12 9 19 7z"/>
<glyph glyph-name="add-new-section" unicode="&#57406;" d="M121 402l0-29-82 0 0-81-29 0 0 110z m381 0l0-111-29 0 0 82-81 0 0 29z m0-182l0-110-111 0 0 28 82 0 0 82z m-382-82l0-28-110 0 0 111 29 0 0-83z m204 130l-53 0 0 53-30 0 0-53-53 0 0-30 53 0 0-54 30 0 0 54 53 0z"/>
<glyph glyph-name="unlock-1" unicode="&#57407;" d="M494 347l0-73c0-5-2-9-6-13-3-3-8-5-13-5l-18 0c-5 0-9 2-13 5-3 4-5 8-5 13l0 73c0 21-7 38-22 52-14 14-31 22-51 22-20 0-38-8-52-22-14-14-21-31-21-52l0-54 27 0c8 0 14-3 19-8 6-6 8-12 8-20l0-164c0-8-2-15-8-20-5-5-11-8-19-8l-274 0c-8 0-14 3-20 8-5 5-8 12-8 20l0 164c0 8 3 14 8 20 6 5 12 8 20 8l192 0 0 54c0 36 12 66 37 91 25 25 55 37 91 37 35 0 65-12 90-37 25-25 38-55 38-91z"/>
<glyph glyph-name="lock" unicode="&#57408;" d="M183 293l146 0 0 54c0 21-7 38-21 52-15 14-32 22-52 22-20 0-37-8-52-22-14-14-21-31-21-52z m238-28l0-164c0-8-3-15-8-20-6-5-12-8-20-8l-274 0c-8 0-14 3-20 8-5 5-8 12-8 20l0 164c0 8 3 14 8 20 6 5 12 8 20 8l9 0 0 54c0 35 13 66 38 91 25 25 55 37 90 37 35 0 65-12 90-37 25-25 38-56 38-91l0-54 9 0c8 0 14-3 20-8 5-6 8-12 8-20z"/>
<glyph glyph-name="background-color" unicode="&#57409;" d="M218 229l75 0-37 92z m154 180l-232 0c-21 0-37-16-37-37l0-232c0-21 16-37 37-37l232 0c21 0 37 16 37 37l0 232c0 21-16 37-37 37z m-42-270l-23 56-103 0-22-56-44 0 103 234 33 0 100-234z"/>
<glyph glyph-name="border" unicode="&#57410;" d="M19 273l474 0 0-34-474 0z m102-171l0 20 270 0 0-20z m0 66l0 19 270 0 0-19z m0 157l0 19 270 0 0-19z m0 65l0 20 270 0 0-20z"/>
<glyph glyph-name="link" unicode="&#57411;" d="M103 183c1 5 2 11 4 16 3 9 8 17 15 23 21 22 42 43 63 64 10 10 22 17 36 20 15 3 30 1 45-5 7-3 14-8 20-14 4-4 7-9 10-13 3-5 0-12-3-15-5-4-12-4-16 0-4 3-7 7-10 10-7 6-15 10-24 12-12 1-23-1-33-8-2-1-4-3-5-5-21-21-43-42-64-63-7-7-11-16-12-25-2-14 2-25 11-36 7-9 17-13 29-15 12-2 23 2 32 9 3 2 5 4 7 6 14 15 29 29 44 44 5 5 10 5 15 3 9-4 10-15 4-21-16-16-33-33-50-49-9-10-22-15-35-18-13-1-22 0-22 0-9 1-16 4-24 8-8 4-15 10-20 16-7 9-12 17-15 28-1 3-1 7-2 10 0 6 0 12 0 18z m306 146c-1-5-2-10-4-16-3-9-8-17-15-23-21-22-42-43-63-64-10-10-22-17-36-20-15-3-30-1-45 5-7 3-13 7-19 13-4 4-8 8-10 13-2 6 0 12 5 15 5 3 10 3 15-1 3-2 6-5 9-8 6-6 14-10 23-12 12-1 23 1 33 8 2 2 4 3 5 5 21 21 43 42 64 63 7 7 11 16 12 26 2 12-2 23-9 32-7 11-18 16-30 18-16 2-28-3-39-14-15-15-30-30-45-45-6-6-18-5-21 4-2 5-2 9 3 14 16 17 32 33 49 49 7 8 16 12 26 15 11 4 24 3 31 3 9-1 16-4 24-8 8-4 15-9 21-16 6-8 11-17 14-28 1-3 2-6 2-10 0-6 0-12 0-18z"/>
<glyph glyph-name="remove-formating" unicode="&#57412;" d="M127 192l46 222-82 0 6 28 197 0-6-28-82 0-46-222z m-33-59l0 19 179 0 0-19z m179-63l54 83-49 76 38 0 32-51 31 51 37 0-49-77 54-82-39 0-35 55-36-55z"/>
<glyph glyph-name="text-color" unicode="&#57413;" d="M123 131l271 0 0-35-271 0z m83 92l104 0 23-56 44 0-101 235-33 0-103-235 44 0z m52 126l38-91-76 0z"/>
<glyph glyph-name="text-style" unicode="&#57414;" d="M466 409l-306 0 0-61 122 0 0-245 62 0 0 245 122 0z m-420-168l69 0 0-138 29 0 0 138 69 0 0 26-167 0z"/>
<glyph glyph-name="pdf" unicode="&#57415;" d="M19 410l0-308 320 0 154 169 0 139z m22-22l430 0 0-107-147 0 0-157-283 0z m412-129l-107-117 0 117z m-339 50l150 0 0-22-150 0z m0-79l150 0 0-22-150 0z"/>
<glyph glyph-name="picture" unicode="&#57416;" d="M434 305c0 5-1 9-2 13-1 10-7 18-14 25-9 9-20 12-33 12 0 0-1 0-1 0-3 0-6 0-10 0-5 0-10 0-14 0-4 0-8 0-12 0 0 0 0 0 0 0-2 0-4 1-4 3-3 7-5 21-8 27-5 15-19 25-35 25-17 0-34 0-51 0-13 0-26 0-40 0-14 0-28-9-33-23-3-7-6-21-8-28-1-3-3-4-5-4 0 0 0 0 0 0-7 0-13 0-19 0-6 0-12 0-18 0-9 0-18-2-25-6-14-9-23-22-23-38-1-58-1-107 0-165 0-5 1-10 3-14 9-20 24-30 45-30 18 0 36 0 54 0 25 0 50 0 75 0 19 0 37 0 56 0 24 0 48 0 73 0 4 0 9 1 14 2 19 5 35 24 35 46 0 54 0 101 0 155z m-41-180c-2-1-5-1-8-1-25 0-49 0-73 0l-28 0-28 0-38 0-37 0c-18 0-36 0-54 0-12 0-20 5-25 17-1 2-2 4-2 5l0 5c0 56 0 104 1 159 0 5 1 13 12 20 4 2 8 3 14 3l1 0c6 0 11 0 17 0 6 0 12 0 19 0 12 0 21 7 25 18 2 5 3 10 5 15 1 5 2 11 3 13 2 5 8 9 13 9l40 0 31 0 20 0c7 0 12-4 15-10 0-2 2-7 3-11 1-6 2-12 4-16 4-11 13-18 25-18 0 0 0 0 0 0 4 0 8 0 12 0l7 0 7 0c4 0 7 0 11 0 8 0 13-2 18-6 6-6 7-10 8-13 0-3 1-6 1-9 0-22 0-42 0-63 0-30 0-60 0-92 0-13-10-23-19-25z m-137 204l0-22c16 0 33-8 47-22 13-13 22-31 22-47 0-34-35-68-69-68-34 0-69 35-69 68 0 34 35 69 69 69l0 22c0 0 0 0 0 0-47 0-91-45-90-91 0-45 44-90 90-90 46 0 90 45 91 90 0 46-45 91-91 91z m-25-91c0-14 11-25 25-25 14 0 25 11 25 25 1 15-12 26-25 26-13 0-26-11-25-26z"/>
<glyph glyph-name="add-1" unicode="&#57417;" d="M299 299l0 213-86 0 0-213-213 0 0-86 213 0 0-213 86 0 0 213 213 0 0 86z"/>
<glyph glyph-name="cross-directions-1" unicode="&#57419;" d="M256 512l-82-81 22-22 45 45 0-183-183 0 45 45-21 22-82-82 81-82 22 22-45 45 183 0 0-183-45 45-22-21 82-82 82 81-22 22-45-45 0 183 183 0-45-45 21-22 82 82-81 82-22-22 45-45-183 0 0 183 45-45 22 21z"/>
<glyph glyph-name="dot-close-1" unicode="&#57421;" d="M512 256c0-141-115-256-256-256-141 0-256 115-256 256 0 141 115 256 256 256 141 0 256-115 256-256z"/>
<glyph glyph-name="full-view-1" unicode="&#57422;" d="M224 261c0 14 12 26 27 26l0-13c-8 0-14-6-14-13z m123 6c-5 34-47 60-95 60-1 0-1 0-1 0-50 0-92-27-95-60l-14 1c5 41 51 72 108 72 1 0 1 0 2 0 55 0 103-31 108-72z m-96-86c-56 0-104 32-109 72l14 2c4-34 46-60 96-60 49 0 91 27 95 60l13-1c-4-41-51-72-108-73-1 0-1 0-1 0z m0 120c-23-1-41-18-41-40 0-22 19-40 41-40l0-6 0 6c23 0 41 18 41 40 0 22-18 40-41 40z m0-93c-30 0-54 23-54 52-1 30 24 54 54 54 30 0 54-24 55-53 0-29-24-53-54-53z m-237 95l-14 0 0 67c0 15 12 27 28 27l71 0 0-13-71 0c-8 0-14-6-14-14z m466 94c16 0 28-12 28-27l0-67-14 0 0 67c0 8-6 14-14 14l-71 0 0 13z m14-183l14 0 0-68c0-14-12-26-28-26l-71 0 0 13 71 0c8 0 14 6 14 13z m-395-81l0 0 0-13-71 0c-16 0-28 12-28 26l0 68 14 0 0-68c0-7 6-13 14-13z"/>
<glyph glyph-name="layout-2" unicode="&#57423;" d="M109 410l292 0 0-72-292 0z m120-118l172 0 0-180-172 0z m-120 2l75 0 0-183-75 0z m-89 198l0-472 472 0 0 472z m438-438l-404 0 0 404 404 0z"/>
<glyph glyph-name="logo-1-1" unicode="&#57424;" d="M200 296l29 84 21-8-29-83z m-12-35l21-7-4-12 44 0 0-22-75 0z m77 251l0-22 17 0 21-53 20 9-26 66z m52-109l32-82 21 8-33 82z m46-116l32-82 21 8-33 82z m-99-130l81 0 0 22-81 0z m145 13l32-82 21 8-33 82z m-58-37l33-82 21 8-34 82z m104-79l4-11-44 0 0-23 77 0-17 42z m-164 235l-29 83 21 8 29-84z m47-69l-75 0 0 22 44 0-4 12 21 7z m-123 292l-26-66 20-9 21 53 17 0 0 22z m-73-183l21-8 32 82-20 8z m-46-116l21-8 32 82-20 8z m71-56l81 0 0 22-81 0z m-117-61l21-8 32 82-20 8z m57-37l21-8 33 82-20 8z m-87-39l77 0 0 23-44 0 4 11-20 8z"/>
<glyph glyph-name="menu-2" unicode="&#57425;" d="M20 349l0 40 127 0 0-40z m0-226l0 40 472 0 0-40z m0 113l0 40 472 0 0-40z m345 113l0 40 127 0 0-40z m-172 0l0 40 126 0 0-40z"/>
<glyph glyph-name="minimize-1" unicode="&#57426;" d="M0 396l254-137-254-137z m254 0l255-137-255-137z"/>
<glyph glyph-name="pages-1" unicode="&#57427;" d="M20 451l0-338 28 0 0 308 395 0 0 30z m49-52l0-338 276 0 147 170 0 168z m28-29l367 0 0-125-137 0 0-154-230 0z m258-154l86 0-86-99z"/>
<glyph glyph-name="settings-2" unicode="&#57428;" d="M254 125c-74 0-133 60-133 133 0 74 59 133 133 133 73 0 133-59 133-133 0-73-60-133-133-133z m254 111l0 45-70 26c-4 17-11 32-19 47l30 68-32 32-67-31c-15 9-31 15-47 20l-27 69-45 0-26-69c-17-5-32-11-47-20l-68 31-32-32 31-68c-9-15-15-30-20-47l-69-26 0-45 69-27c5-16 11-32 20-47l-31-67 32-32 68 30c15-8 30-15 47-19l26-70 45 0 27 70c16 4 32 11 47 19l67-30 32 32-30 67c8 15 15 31 19 47z"/>
<glyph glyph-name="subtract" unicode="&#57429;" d="M0 299l512 0 0-86-512 0z"/>
<glyph glyph-name="tools-1" unicode="&#57430;" d="M253 222l28-30 32 34c-2 16 3 32 15 45 12 12 28 17 44 16l140 144-78 81-140-145c1-16-4-32-16-45-12-12-28-17-43-16l-32-33 28-29-138-143-5 6-27-22-45-73 12-12 70 46 22 28-5 5z m199-188l-26-7-21 21 7 27 26 7 21-21z m-126 207c-1-4-1-9-1-14l1-6-4-4-32-33-9-10-28 30-18-19 163-169c10-10 23-15 36-15 13 0 27 5 37 15 20 21 20 55 0 76z m-183 39c0-1 0-1 1-1l51-53 18 18-19 21-9 9 45 46 6-1c1 0 3 0 4 0 4 0 7 0 10 1l-34 34c0 1-1 2-2 2 11 38 1 81-28 110-28 30-69 40-105 30l61-64-16-63-60-17-62 64c-10-38-1-79 28-109 30-31 73-40 111-27z"/>
<glyph glyph-name="billing-2" unicode="&#57420;" d="M270 296c-1-2-3-4-5-6-2-1-4-2-6-3-2-1-5-1-7-1l0 34c7-2 12-4 15-7 3-2 4-5 4-10 0-3 0-5-1-7z m-28 52c-6 1-10 3-12 5-3 2-4 5-4 9 0 3 0 5 1 7 1 2 2 3 4 4 1 2 3 3 5 3 2 1 4 1 6 1z m50-24c-2 3-6 7-10 10-5 4-12 7-21 9-1 1-3 1-4 2-2 0-3 0-5 1l0 31c4 0 8-2 11-5 2-3 4-7 4-12l25 0c0 6-1 12-4 16-2 5-5 8-8 11-4 3-8 6-13 7-4 2-9 3-15 4l0 14-10 0 0-14c-6 0-11-2-16-3-5-2-9-4-13-8-4-3-7-7-9-11-2-5-3-10-3-16 0-6 1-11 3-15 2-4 4-7 8-10 3-3 7-5 11-6 4-2 9-3 13-5 1 0 2 0 3 0 1-1 2-1 3-1l0-37c-6 1-10 3-14 7-4 4-5 9-5 16l-25 0c1-14 5-24 13-32 7-7 17-11 31-12l0-15 10 0 0 15c9 1 16 2 22 5 6 3 10 7 14 10 3 4 5 8 7 12 1 4 2 7 2 10 0 3 0 6-1 10 0 4-2 8-4 12z m66 168l0-16-20 0 0 16-30 0 0-16-20 0 0 16-29 0 0-16-20 0 0 16-30 0 0-16-20 0 0 16-29 0 0-16-20 0 0 16-29 0 0-16-9 0 0-430 9 0 0-15 29 0 0 15 20 0 0-15 29 0 0 15 20 0 0-15 30 0 0 15 20 0 0-15 29 0 0 15 20 0 0-15 30 0 0 15 20 0 0-15 29 0 0 15 8 0 0 430-8 0 0 16z m-225-47l232 0 0-226-7 0 0-19 7 0 0-123-232 0 0 123 7 0 0 19-7 0z m175-245l0 19 30 0 0-19z m-148 0l0 19 29 0 0-19z m49 0l0 19 30 0 0-19z m50 0l0 19 29 0 0-19z m-80-74l0 25 139 0 0-25z"/>
<glyph glyph-name="check-1" unicode="&#57431;" d="M457 427l-263-258-152 150-42-42 194-192 305 299z"/>
<glyph glyph-name="marketing-1" unicode="&#57432;" d="M213 20l66 0 0 20-66 0z m-26 39l117 0 0 34-117 0z m165 290c-1-13-5-26-12-38-6-9-58-97-59-160l0-1-17 0 0 61-37 0 0-61-16 0 0 1c-1 47-30 109-55 154l0 0-4 6c-7 12-11 25-13 38l0 11c0 26 11 50 31 69 20 18 47 29 76 29 10 0 20-2 30-4 17-5 33-13 45-25 20-19 31-43 32-69z m-5 104c-17 15-38 27-61 33-13 4-26 6-40 6-39 0-75-14-102-39-27-25-42-59-42-94l1-12c2-18 8-36 17-52 0-1 54-90 54-146l2-16c3-11 9-17 18-17l104 0c9 0 15 6 18 17l1 16c0 56 54 145 55 146 9 16 15 34 16 52l1 12c0 35-15 69-42 94z"/>
<glyph glyph-name="log-out-1" unicode="&#57433;" d="M253 257c-13 0-23 10-23 23l0 209c0 13 10 23 23 23 13 0 23-10 23-23l0-209c0-13-10-23-23-23z m85 192c82-34 139-114 139-208 0-124-100-224-224-224-124 0-225 100-225 224 0 94 58 174 140 208l0 0c2 1 5 1 7 1 13 0 24-10 24-23 0-10-7-19-16-22l0 0c-63-27-108-90-108-164 0-98 80-178 178-178 98 0 178 80 178 178 0 74-45 137-109 164l0 0c-9 3-15 12-15 22 0 13 10 23 23 23 3 0 6 0 8-1z"/>
<glyph glyph-name="communication-1" unicode="&#57434;" d="M449 471l-195 0c-23 0-42-19-42-42l0-78 28 0 0 78c0 8 6 14 14 14l195 0c8 0 14-6 14-14l0-136c0-7-6-14-14-14l-67 0c2-9 5-18 8-28 2-8 4-16 6-25-3 1-4 3-6 4-7 7-14 14-22 21-9 9-17 18-26 27-1 0-2 1-3 1l-25 0 0-28 20 0c4-1 8-3 13-7 24-21 48-41 73-61 1-1 3-2 6-4-6 25-12 48-18 72l41 0c24 0 43 19 43 42l0 136c0 23-19 42-43 42z m-191-134l-195 0c-24 0-43-19-43-42l0-135c0-24 19-43 43-43l24 0c-5-24-11-48-17-73 3 2 4 3 5 4 26 21 51 43 77 64 3 3 7 5 11 5l95 0c23 0 42 19 42 43l0 135c0 23-19 42-42 42z m14-177c0-8-6-15-14-15l-100 0c-3-1-5-3-8-5-7-8-15-15-22-23-8-7-16-15-24-22-1-2-2-2-5-5 2 10 5 19 7 27 3 10 5 19 8 28l-51 0c-8 0-14 7-14 15l0 135c0 8 6 14 14 14l195 0c8 0 14-6 14-14z"/>
<glyph glyph-name="customize-1" unicode="&#57436;" d="M454 299l0 0c-20 0-41-25-41-3l0 114-104 0c-25 0 4-26 4-52l0 0c0-25-20-46-45-46-24 0-44 21-44 46l0 0c0 25 30 52 5 52l-114 0 0-109c0-26-26 6-50 6l0 0c-25 0-45-21-45-46 0-25 20-46 45-46l0 0c25 0 50 30 50 4l0-117 120 0c20 0-4 22-4 43l0 0c0 21 17 38 37 38 21 0 37-17 37-38l0 0c0-21-25-43-5-43l113 0 0 126c0 21 21-5 41-5l0 0c21 0 38 17 38 38 0 21-17 38-38 38"/>
<glyph glyph-name="delete-1" unicode="&#57437;" d="M439 293l0-256c0-21-17-37-37-37l-292 0c-20 0-37 16-37 37l0 329 366 0z m-242 219l118 0 0-47 160 0 0-51-438 0 0 51 160 0z"/>
<glyph glyph-name="e-commerce-1" unicode="&#57438;" d="M83 215l66 0 0-18-66 0z m79 0l87 0 0-18-87 0z m-79-27l179 0 0-18-179 0z m390 201l-439 0c-7 0-14-6-14-14l0-251c0-8 7-14 14-14l439 0c7 0 14 6 14 14l0 251c0 8-7 14-14 14z m-14-251l-411 0 0 109 411 0z m0 193l-411 0 0 30 411 0z"/>
<glyph glyph-name="general-settings-1" unicode="&#57439;" d="M416 323c-35-15-75 2-89 37-14 35 3 75 38 89 35 14 75-2 89-38 14-35-3-74-38-88m51 72l22 21-7 17-30-1c-4 6-9 11-14 15l1 30-17 7-21-22c-6 1-13 1-20 0l-20 22-17-6 0-30c-5-4-10-9-14-15l-30 2-7-17 21-21c-1-7-1-14 0-21l-22-20 7-17 30 1c4-6 9-11 14-15l-1-30 17-7 20 22c7-1 14-1 21-1l20-22 17 7 0 30c5 4 10 9 14 15l30-2 7 17-21 21c1 7 1 14 0 20m-266-319c-67 0-120 54-120 120 0 67 53 121 120 121 66 0 120-54 120-121 0-66-54-120-120-120m117 188l22 48-23 23-48-21c-10 6-22 10-33 13l-19 50-32 0-19-50c-12-3-23-7-33-13l-48 21-23-23 22-48c-6-10-11-21-14-33l-50-19 0-32 50-18c3-12 8-23 14-34l-22-48 23-23 48 22c10-6 21-11 33-14l19-49 32 0 19 49c11 3 23 8 33 14l48-22 23 23-22 48c6 11 11 22 14 34l49 18 0 32-49 19c-3 12-8 23-14 33"/>
<glyph glyph-name="social-media-1" unicode="&#57435;" d="M381 209c-17 0-32-8-42-20l-134 67c1 3 1 7 1 12 0 4 0 8-1 11l134 67c10-12 25-20 42-20 30 0 54 25 54 55 0 30-24 55-54 55-31 0-55-25-55-55 0-4 0-8 1-12l-134-66c-10 12-25 19-42 19-30 0-54-24-54-54 0-31 24-55 54-55 17 0 32 7 42 19l134-66c-1-4-1-8-1-12 0-30 24-55 55-55 30 0 54 25 54 55 0 30-24 55-54 55"/>
<glyph glyph-name="alert-error-1" unicode="&#57440;" d="M367 337l-30 30-81-80-81 80-30-30 80-81-80-81 30-30 81 80 81-80 30 30-80 81z m-111 111c106 0 192-86 192-192 0-106-86-192-192-192-106 0-192 86-192 192 0 106 86 192 192 192m0 38c-127 0-230-103-230-230 0-127 103-230 230-230 127 0 230 103 230 230 0 127-103 230-230 230z"/>
<glyph glyph-name="alert-general-1" unicode="&#57441;" d="M256 448c106 0 192-86 192-192 0-106-86-192-192-192-106 0-192 86-192 192 0 106 86 192 192 192m0 38c-127 0-230-103-230-230 0-127 103-230 230-230 127 0 230 103 230 230 0 127-103 230-230 230z m100-228c-50-34-98-68-149-102 0 16 0 30 1 44 0 2 4 5 7 6 24 17 48 34 74 52-3 2-5 4-7 6-23 15-46 31-68 47-4 2-6 7-6 11-1 12-1 24-1 39 50-35 99-68 149-103"/>
<glyph glyph-name="alert-success-1" unicode="&#57442;" d="M256 448c106 0 192-86 192-192 0-106-86-192-192-192-106 0-192 86-192 192 0 106 86 192 192 192m0 38c-127 0-230-103-230-230 0-127 103-230 230-230 127 0 230 103 230 230 0 127-103 230-230 230z m-23-317l-91 84 29 27 62-58 108 99 29-27z"/>
<glyph glyph-name="lock-1" unicode="&#57443;" d="M424 256l-36 0 0 102 0 0c0 0 0 0 0 0 0 73-59 132-132 132-73 0-132-59-132-132l0-102-36 0c-12 0-22-10-22-22l0-190c0-12 10-22 22-22l336 0c12 0 22 10 22 22l0 190c0 12-10 22-22 22z m-146-126l0-42c0-12-10-22-22-22-12 0-22 10-22 22l0 42c-13 8-22 22-22 38 0 24 20 44 44 44 24 0 44-20 44-44 0-16-9-30-22-38z m-110 126l0 102c0 49 40 88 88 88 48 0 88-39 88-88 0 0 0 0 0 0l0 0 0-102z"/>
<glyph glyph-name="apostrophe" unicode="&#57444;" d="M220 364l30-33c-36-17-72-50-83-82 1 1 6 1 8 1 23 0 42-17 42-44 0-32-28-58-58-58-29 0-52 19-52 57 0 62 53 128 113 159z m156 0l29-33c-35-17-70-50-82-82 2 1 6 1 9 1 21 0 41-17 41-44 0-32-28-58-59-58-28 0-52 19-52 57 0 62 53 128 114 159z"/>
<glyph glyph-name="design-1" unicode="&#57445;" d="M502 414l0 88-88 0 0-31-316 0 0 31-88 0 0-88 31 0 0-158 25 0 0 158 32 0 0 32 316 0 0-32 32 0 0-316-32 0 0-32-158 0 0-25 158 0 0-31 88 0 0 88-31 0 0 316z m-469-304l4-85 85-4 246 245-5 5-80 80-4 4z m33-56l-2 44 175 174 46-46-175-174z"/>
<glyph glyph-name="drag-and-drop" unicode="&#57446;" d="M403 217c-4 0-8-4-8-8l0-69-73 73c3 6 5 12 5 19l0 224c0 26-21 46-47 46l-224 0c-26 0-46-20-46-46l0-224c0-26 20-46 46-46l130 0 0-8 15 0 0 8 57 0-15 15-187 0c-17 0-31 14-31 31l0 224c0 17 14 31 31 31l224 0c17 0 31-14 31-31l0-224c0-2 0-5-1-7l-124 124c-3 4-9 4-12 0-3-3-3-8 0-11l210-209-69 0c-4 0-8-4-8-8 0-4 4-8 8-8l88 0c4 0 7 4 7 8l0 88c0 4-3 8-7 8z m-60-192l47 0 0-16-47 0z m-130 6l-9-12c1-1 2-1 3-2 0 0 0 0 0 0 0 0 0 0 0 0l0 0c0 0 0 0 0 0l0 0c0 0 0 0 0 0 0 0 0 0 0 0 0 0 0 0 0 0 0 0 0 0 0 0 0 0 0 0 0 0 0 0 0 0 0 0 0 0 0 0 0 0 0 0 0 0 0 0 0 0 0 0 0 0 0 0 0 0 0 0 0 0 0 0 0 0l0 0c0-1 0-1 0-1 0 0 0 0 0 0 0 0 1 0 1 0 0 0 0 0 0 0 0 0 0 0 0 0 0 0 0 0 0 0 0 0 0 0 0 0l0 0c0 0 0 0 0 0 0 0 0 0 0 0 0 0 0 0 0 0 0 0 0 0 0 0 0 0 0 0 0 0 0 0 0 0 0 0 0 0 0 0 0 0 0 0 0 0 0 0 0 0 0 0 0 0 0 0 0 0 0 0 0 0 0 0 0 0 0 0 0 0 0 0 0 0 0 0 0 0 0 0 0 0 0 0 0 0 0 0 0 0 0 0 0 0 0 0 0 0 0 0 0 0 0 0 0 0 0 0 0 0 0 0 0 0 0 0 0 0 0 0 0 0 0 0 0 0 0 0 0 0 0 0 0 0 0 0 0 0 0 0 0 0 0 0 0 0 0 0 0 0 0 0 0 0 0 0 0 0 0 0 0 0 0 0 0 0 0 0 0 0 0 0 0 0 0 0 0 0 0 0 0 0 0 0 0 0 0 0 0 0 0 0 0 0 0 0 0 0 0 0 0 0 0 0 0 0 0 0 0 0 0 0 0 0 1 0 0 0 0 0 0 0 0 0 0 0 0 0l0 0c0 0 0 0 0 0 0 0 0 0 0 0 0 0 0 0 0 0 0 0 0 0 0 0 0 0 0 0 0 0 0 0 0 0 0 0 0 0 0 0 0 0 0 0 0 0 0 0 0 0 0 0 0 0 0 0 0 0 0 0 0 0 0 0 0 0 0 0 0 0 0 0 0 0 0 0 0 0 0 0 0 0 0 0 0 0 0 0 0-1 0 0 0 0 0 0 0 0 0 0 0 0 0 0 0 0 0 0 0 0 0 0 0 0l0 0c0 0 0 0 0 0 0 0 0 0 0 0 0 0 0 0 0 0 0 0 0 0 0 0 0 0 0 0 0 0 0 0 0 0 0 0 0 0 0 0 0 0 0 0 0 0 0 0 0 0 0 0 0 0 0 0 0 0 0 0 0 0 0 0 0 0 0 0 0 0 0 0 0 0 0 0 0 0 0 0 0 0 0 0 0 0 0 0 0 0 0 0 0 0 0 0 0 0 0 0 0 0 0 0 0 0 0 0 0 0 0 0 0 0 1 0 1 0 1 0 0 0 0 0 0 0 0 0 0 0 0 0 0 0 0 0 0 0 0 0 0 0 0 0 0 0 0 0 0 0 0 0 0 0 0 0 0 0 0 0 0 0 0 0 0 0 0 0 0 0 0 0 0 0 0 0 0 0 0 0 0 0 0 0 0 0 0 0 0 0 0 0 0 0 0 0 0 0 0 0 0 0 0 0 0 0 0 0 0 0 0 0 0 0 0 0 0 0 0 0 0 0 0 0 0 0 0 0 0 0 0 0 0 0 0 0 0 0 0 0 0 0 0 0 0 0 0 0 0 0 0 0 0 0 0 0 0 0 0 0 0 0 0 0 0 0 0 0 0 0 0 0 0 0 0 0 0 0 0 0 0 0 0 0 0 0 0 0 0 0 0 0 0 0 0 0 0 0 0 0 0 0 0 0 0 0 0 0 0 0 0 0 0 0 0 0 0 0 0 0 0 0 0 0 0 0 0 0 0 0 0 0 0 0 0 0 0 0 0 0 0 0 0 0 0 0 0 0 0 0 0 0 0 0 0 0 0 0 1 0 0 0 0 0 0 0 0 0 0 0 0 0 0 0 0 0 0 0 0 0 0 0 0 0 0 0 0 0 0-1 0 0 0 0 0 0 0 0 0 0 0 0 0 0 0 0 0 0 0 0 0 0 0 0 0 0 0 0 0 0 0 0 0 0 0 0 0 0 0 0 0 0 0 0 0 0 0 0 0 0 0 0 0 0 0 0 0 0 0 0 0 0 0 0 0 0 0 0 0 0 0 0 0 0 0 0 0 0 0 0 0 0 0 0 0 0 0 0 0 0 0 0 0 0 0 0 0 0 0 0 0 0 0 0 0 0 0 0 0 0 0 0 0 0 0 0 0 0 0 0 0 0 0 0 0 0 0 0 0 0 0 0 0 0 0 0 0 0 0 0 0 0 0 0 0 0 0 0 0 0 0 0 0 0 0 0 0 0 0 0 0 0 0 0 0 0 0 0 0 0 0 0 0 0 0 0 0 0 0 0 0 0 0 0 0 0 0 0 0 0 0 0 0 0 0 0 0 0 0 0 0 0 0 0 0 0 0 0 1 0 0 0 0 0 0 0 0 0 0 0 0 0 0 0 0 0 0 0 0 0 0 0 0 0 0 0 0 0 0 0 0 0 0 0 0 0 0 0 0 0 0 0 0 0 0 0 0 0 0 0 0 0 0 0 0 0 0 0 0 0 0 0 0 0 0 0 0 0 0 0 0 0 0 0 0 0 0 0 0 0 0 0 0 0 0 0 0 0 0 0 0 0 0 0 0 0 0 0 0 0 0 0 0 0 0 0 0 0 0 0 0 0 0 0 0 0 0 0 0 0 0 0 0 0 0 0 0 0 0 0 0 0 0 0 0 0 0 0 0 0 0 0 0 0 0 0 0 0 0 0 0 0 0 0 0 0 0 0 0 0 0 0 0 0 0 0 0 0 0 0 0 0 0 0 0 0 0 0 0 0 0 0 0 0 0 0 0 0 0 0 0 0 0 0 0 0 0 0 0 0 0 0 0 0 0 0 0 0 0 0 0 0 0 0 0 0 0 0 0 0 0 0 0 0 0 0 0 0 0 0 0 0 0 0 0 0 0 0 1 0 0 0 0 0 0-1 0 0 0 0 0 0 0 0 0 0 0 0 0 0 0 0 0 0 0 0 0 0 0 0 0 0 0 0 0 0 0 0 0 0 0 0 0 0 0 0 0 0 0 0 0 0 0 0 0 0 0 0 0 0 0 0 0 0 0 0 0 0 0 0 0 0 0 0 0 0 0 0 0 0 0 0 0 0 0 0 0 0 0 0 0 0 0 0 0 0 0 0 0 0 0 0 0 0 0 0 0 0 0 0 0 0 0 0 0 0 0 0 0 0 0 0 0 0 0 0 0 0 0 0 0 0 0 0 0 0 0 0 0 0 0 0 0 0 0 0 0 0 0 0 0 0 0 0 0 0 0 0 0 0 0 0 0 0 0 0 0 0 0 0 0 0 0 0 0 0 0 0 0 0 0 0 0 0 0 0 0 0 1 0 1 0 0 0 0 0 0 0 0 0 0 0 0 0 0 0 0 0 0 0 0 0 0 0 0 0 0 0 0 0 0 0 0 0 0 0 0 0 0 0 0 0 0 0 0 0 0 0 0 0 0 0 0 0 0 0 0 0 0 0 0 0 0 0 0 0 0 0 0 0 0 0 0 0 0 0 0 0 0 0 0 0 0 0 0 0 0 0 0 0 0 0 0 0 0 0 0 0 0 0 0 0 0 0 0 0 0 0 0 0 0 0 0 0 0 0 0 0 0 0 0 0 0 0 0 0 0 0 0 0 0 0 0 0 0 0 0 0 0 0 0 0 0 0 0 0 0 0 0 0 0 0 0 0 0 0 0 0 0 0 0 0 0 0 0 0 0 0 0 0 0 0 0 0 0 0 0 0 0 0 0 0 0 0 0 0 0 0 0 0 0 0 0 0 0 0 0 0 0 0 0 0 0 0 0 0 0 0 0 0 0 0 0 0 0 0 0 0 0 0 0 0 0 0 0 0 1 0 1 0 0 0 0 0 0 0 0 0 0 0 0 0 0 0 0 0 0 0 0 0 0 0 0 0 0 0 0 0 0 0 0 0 0 0 0 0 0 0 0 0 0 0 0 0 0 0 0-1 0 0 0 0 0 0 0 0 0 0 0 0 0 0 0 0 0 0 0 0 0 0 0 0 0 0 0 0 0 0 0 0 0 0 0 0 0 0 0 0 0 0 0 0 0 0 0 0 0 0 0 0 0 0 0 0 0 0 0 0 0 0 0 0 0 0 0 0 0 0 0 0 0 0 0 0 0 0 0 0 0 0 0 0 0 0 0 0 0 0 0 0 0 0 0 0 0 0 0 0 0 0 0 0 0 0 0 0 0 0 0 0 0 0 0 0 0 0 0 0 0 0 0 0 0 0 0 0 0 0 0 0 0 0 0 0 0 0 0 0 0 0 0 0 0 0 0 0 0 0 0 0 0 0 1 0 0 0 0 0 0 0 0 0 0 0 0 0 0 0 0 0 0 0 0 0 0 0 0 0 0 0 0 0 0 0 0 0 0 0 0 0 0 0 0 0 0 0 0 0 0 0 0 0 0 0 0 0 0 0 0 0 0 0 0 0 0 0 0 0 0 0 0 0 0 0 0 0 0 0 0 0 0 0 0 0 0 0 0 0 0 0 0 0 0 0 0 0 0 0 0 0 0 0 0 0 0 0 0 0 0 0 0 0 0 0 0 0 0 0 0 0 0 0 0 0 0 0 0 0 0 0 0 0 0 0 0 0 0 0 0 0 0 0 0 0 0 0 0 0 0 0 0 0 0 0 0 0 0 0 0 0 0 0 0 0 0 0 0 0 0 0 0 0 0 0 0 0 0 0 0 0 0 0 0 0 0 0 0 0 0 0 0 0 0 0 0 0 0 0 0 0 0 0l0 0c0 0 1 0 1 0 0 0 0 0 0 0 0 0 0 0 0 0 0 0 0 0 0 0 0 0 0 0 0 0 0 0 0 0 0 0 0 0 0 0 0 0 0 0 0 0 0 0 0 0 0 0 0 0l0 0c0 0 0 0 0 0 0 0 0 0 0 0 0 0 0 0 0 0 0 0 0 0 0 0 0 0 0 0 0 0l0 0c0 0 0 0 0 0 0 0 0 0 0 0 0 0 0 0 0 0 0 0 0 0 0 0 0 0 0 0 0 0 0 0 0 0 0 0 0 0 0 0 0 0 0 0 0 0 0 0 0 0 0 0 0 0 0 0 0 0 0 0 0 0 0 0 0 0 0 0 0 0 0 0 0 0 0 0 0 0 0 0 0 0 0 0 0 0 0-1 0-1 0 0 0 0 0 0 0 0 0 0 0 0 0 0 0 0 0 0 0 0 1 0 1 0 0 0 0 0 0 0 0 0 0 0 0 0 0 0 0 0 0 0 0 0 0 0 0 0 0 0 0 0 0 0 0 0 0 0 0 0 0 0 0 0 0 0 0 0 0 0 0 0 0 0 0 0 0 0 0 0 0 0 0 0 0 0 0 0 0 0 0 0 0 0 0 0 0 0 0 0 0 0 0 0 0 0 0 0 0 0 0 0 0 0 0 0 0 0 0 0 0 0 0 0 0 0 0 0 0 0 0 0 0 0 0 0 0 0 0 0 0 0 0 0 0 0 0 0 0 0 0 0 0 0 0 0 0 0 0 0 0 0 0 0 0 0 0 0 0 0 0 0 0 0 0 0 0 0 0 0 0 0 0 0 0 0 0 0 0 0 0 0 0 0 0 0 0 0 0 0 0 0 0 0 0 0 0 0 0 0 0 0 0 0 0 0 0 0 0 0 0 0 0 0 0 0 0 0 0 0 0 0 0 0 0 0 0 0 1 0 0 0 0 0 0 0 0 0 0 0 0 0 0 0 0 0 0 0 0 0 0 0 0 0 0 0 0 0 0 0 0 0 0 0 0 0 0 0 0 0 0 0 0 0 0 0 0 0 0 0 0 0 0 0 0 0 0 0 0 0 0 0 0 0 0 0 0 0 0 0 0 0 0 0 0 0 0 0 0 0 0 0 0 0 0 0 0 0 0 0 0 0 0 0 0 0 0 0 0 0 0 0 0 0 0 0 0 0 0 0 0 0 0 0 0 0 0 0 0 0 0 0 0 0 0 0 0 0 0 0 0 0 0 0 0 0 0 0 0 0 0 0 0 0 0 0 0 0 0 0 0 0 0 0 0 0 0 0 0 0 0 0 0 0 0 0 0 0 0 0 0 0 0 0 0 0 0 0 0 0 0 0 0 0 0 0 0 0 0 0 0 0 0 0 0 0 0 0 0 0 0 0 0 0 0 0 0 0 0 0 0 0 1 0 1 0 0 0 0 0 0 0 0 0 0 0 0 0 0 0 0 0 0 0 0 0 0 0 0 0 0 0 0 0 0 0 0 0 0 0 0 0 0 0 0 0 0 0 0 0 0 0 0 0 0 0 0 0 0 0 0 0 0 0 0 0 0 0 0 0 0 0 0 0 0 0 0 0 0 0 0 0 0 0 0 0 0 0 0 0 0 0 0 0 0 0 0 0 0 0 0 0 0 0 0 0 0 0 0 0 0 0 0 0 0 0 0 0 0 0 0 0 0 0 0 0 0 0 0 0 0 0 0 0 0 0 0 0 0 0 0 0 0 0 0 0 0 0 0 0 0 0 0 0 0 0 0 0 0 0 0 0 0 0 0 0 0 0 0 0 0 0 0 0 0 0 0 0 0 0 0 0 0 0 0 0 0 0 0 0 0 0 0 0 0 0 0 0 0 0 0 0 0 0 0 0 0 0 0 0 0 0 0 0 1 0 0 0 0 0 0 0 0 0 0 0 0 0 0 0 0 0 0 0 0 0 0 0 0 0 0 0 0 0 0 0 0 0 0 0 0 0 0 0 0 0 0 0 0 0 0 0 0 0 0 0 0 0 0 0 0 0 0-1 0-1 0 0 0 0 0 0 0 0 0 0 0 0 0 0 0 0 0 0 0 0 0 0 0 0 0 0 0 0 0 0 0 0 0 0 0 0 0 0 0 0 0 0 0 0 0 0 0 0 0 0 0 0 0 0 0 0 0 0 0 0 0 0 0 0 0 0 0 0 0 0 0 0 0 0 0 0 0 0 0 0 0 0 0 0 0 0 0 0 0 0 0 0 0 0 0 0 0 0 0 0 0 0 0 0 0 0 0 0 0 0 0 0 0 0 0 0 0 0 0 0 0 0 0 0 0 0 0 0 0 0 0 0 0 0 0 0 0 0 0 0 0 0 0 0 0 0 0 0 0 0 1 0 1 0 1 0 0 0 0 0 0 0 0 0 0 0 0 0 0 0 0 0 0 0 0 0 0 0 0 0 0 0 0 0 0 0 0 0 0 0 0 0 0 0 0 0 0 0 0 0 0 0 0 0 0 0 0 0 0 0 0 0 0 0 0 0 0 0 0 0 0 0 0 0 0 0 0 0 0 0 0 0 0 0 0 0 0 0 0 0 0 0 0 0 0 0 0 0 0 0 0 0 0 0 0 0 0 0 0 0 0 0 0 0 0 0 0 0 0 0 0 0 0 0 0 0 0 0 0 0 0 0 0 0 0 0 0 0 0 0 0 0 0 0 0 0 0 0 0 0 0 0 0 0 0 0 0 0 0 0 0 0 0 0 0 0 0 0 0 0 0 0 0 0 0 0 0 0 0 0 0 0 0 0 0 0 0 0 0 0 0 0 0 0 0 0 0 0l0 0c0 0 0 0 0 0 0 0 0 0 0 0 0 0 1 0 1 0 0 0 0 0 0 0 0 0 0 0 0 0 0 0 0 0 0 0 0 0 0 0 0 0 0 0 0 0 0 0 0 0 0 0 0 0 0 0 0 0 0 0 0 0 0 0 0 0 0 0 0 0 0 0 0 0 0 0 0 0 0 0 0 0 0 0 0 0 0 0 0 0 0 0 0 0 0 0 0 0 0 0 0 0 0 0 0 0 0 0 0 0 0 0 0 0 0 0 0 0 0 0 0 0 0 0 0 0 0 0 0 0 0 0 0 0 0 0 0 0 0 0 0 0 0 0 0 0 0 0 0 0 0 0 0 0 0 0 0 0 0 0 0 0 0 0 0 0 0 0 0 0 0 0 0 0 0 0 0 0 0 0 0 0 0 0 0 0 0 0 0 0 0 0 0 0 0 0 0 0 0 0 0 0 0 0 0 0 0 0 0 0 0 0 0 0 0 0 0 0 0 0 0 0 0 0 0 0 0 0 0 0 1 0 1 0 0 0 0 0 0 0 0 0 0 0 0 0 0 0 0 0 0 0 0 0 0 0 0 0 0 0 0 0 0 0 0 0 0 0 0 0 0 0 0 0 0 0 0 0 0 0 0 0 0 0 0 0 0 0 0 0 0 0 0 0 0 0 0 0 0 0 0 0 0 0 0 0 0 0 0 0 0 0 0 0 0 0 0 0 0 0 0 0 0 0 0 0 0 0 0 0 0 0 0 0 0 0 0 0 0 0 0 0 0 0 0 0 0 0 0 0 0 0 0 0 0 0 0 0 0 0 0 0 0 0 0 0l0 0c0 0 0 0 0 0 0 0 0 0 0 0 0 0 0 0 0 0 0 0 0 0 0 0 0 0 0 0 0 0 0 0 0 0 0 0 0 0 0 0 0 0 0 0 0 0 0 0 0 0 0 0 0 0 0 0 0 0 0 0 0 0 0 0 0 0 0 0 0 0 0 0 1 0 1 0 1 0 0 0 0 0 0 0 0 0 0 0 0 0 0 0 0 0 0 0 0 0 0 0 0 0 0 0 0 0 0 0 0 0 0 0 0 0 0 0 0 0 0 0 0 0 0 0 0 0 0 0 0 0 0 0 0 0 0 0 0 0 0 0 0 0 0 0 0 0 0 0 0 0 0 0 0 0 0 0 0 0 0 0 0 0 0 0 0 0 0 0 0 0 0 0 0 0 0 0 0 0 0 0 0 0 0 0 0 0 0 0 0 0 0 0 0 0 0 0 0 0l0 0c0 0 0 0 0 0l0 0c0 0 0 0 0 0l0 0c0 0 0 0 0 0 0 0 0 0 0 0 0 0 0 0 0 0 0 0 0 0 0 0 0 0 0 0 0 0 0 0 0 0 0 0 0 0 0 0 0 0 0 0 0 0 0 0 0 0 0 0 1 0 0 0 0 0 0 0 0 0 0 0 0 0 0 0 0 0 0 0 0 0 0 0 0 0 0 0 0 0 0 0 0 0 0 0 0 0 0 0 0 0 0 0 0 0 0 0 0 0 0 0 0 0 0 0 0 0 0 0 0 0 0 0 0 0 0 0 0 0 0 0 0 0 0 0 0 0 0 0 0 0 0 0 0 0 0 0 0 0 0 0 0 0 0 0 0 0 0 0 0 0 0 0 0 0 0 0 0 0 0 0 0 0 0 0 0 0 0 0 0 0 0 0 0 0 0 0 0 0 0 0 0 0 0-1 0-1 0-1 0 0 0 0 0 0 0 0 0 0 0 0 0 0 0 0 0 0 0 0 0 0 0 0 0 0 0 0 0 0 0 0 0 0 0 0 0 0 0 0 0 0 0 0 0 0 0 0 0 0 0 0 0 0 0 0 0 0 0 0 0 0 0 0 0 0l0 0c1 0 1 0 1 0 0 0 0 0 0 0 0 0 0 0 0 0 0 0 0 0 0 0 0 0 0 0 0 0 0 0 0 0 0 0 0 0 0 0 0 0 0 0 0 0 0 0 0 0 0 0 0 0 0 0 0 0 0 0 0 0 0 0 0 0 0 0 0 0 0 0 0 0 0 0 0 0 0 0 0 0 0 0 0 0 0 0 0 0 0 0 0 0 0 0 0 0 0 0 0 0 0 0 0 0 0 0 0 0 0 0 0 0 0 0 0 0 0 0 0 0 0 0 0 0 0 0 0 0 0 0 0 0 0 0 0 0 0 0 0 0 0 0 0 0 0 0 0 0 0 0 0 0 0 0 0 0 0 0 0 0l0 0c0 0 0 0 0 0 0 0 0 0 0 0 0 0 1 0 1 0 0 0 0 0 0 0 0 0 0 0 0 0l0 0c0 0 0 0 0 0 0 0 0 0 0 0 0 0 0 0 0 0 0 0 0 0 0 0 0 0 0 0 0 0 0 0 0 0 0 0 0 0 0 0 0 0 0 0 0 0 0 0 0 0 0 0 0 0 0 0 0 0 0 0 0 0 0 0 0 0 0 0 0 0 0 0 0 0 0 0 0 0 0 0 0 0 0 0 0 0 0 0 0 0 0 0 0 0 0 0 0 0 0 0 0 0 0 0 0 0 0 0 0 0 0 0 0 0 0 0 0 0 0 0 0 0 0 0 0 0 0 0 0 0 0 0 0 0 0 0 0 0 0 0 0 0 0 0 0 0 0 0 0 0 0 0 0 0 0 0 0 0 0 0 0 0 0 0 0 0 0 0 0 0 1 0 1 0 0 0 0 0 0 0 0 0 0 0 0 0 0 0 0 0 0 0 0 0 0 0 0 0 0 0 0 0 0 0 0 0 0 0 0 0 0 0 0 0 0 0 0 0 0 0 0 0 0 0 0 0 0 0 0 0 0 0 0 0l0 0c0 0 0 0 0 0 0 0 0 0 0 0 0 0 0 0 0 0 0 0 0 0 0 0 0 0 0 0 0 0 0 0 0 0 0 0 0 0 0 0 0 0 0 0 0 0 0 0 0 0 0 0 0 0 0 0 0 0 0 0 0 0 0 0 0 0 0 0 0 0 0 0 0 0 0 0 0 0 0 0 0 0 0 0 0 0 0 0 0 0 0 0 0 0 0 0 0 0 1 0 1 0 0 0 0 0 0 0 0 0 0 0 0 0 0 0 0 0 0 0 0 0 0 0 0 0 0 0 0 0 0 0 0 0 0 0 0 0 0 0 0 0 0 0 0 0 0 0 0 0 0 0 0 0 0 0 0 0 0 0 0 0 0 0 0 0 0 0l0 0c0 0 0 0 0 0 0 0 0 0 0 0 0 0 0 0 0 0 0 0 0 0 0 0 0 0 0 0 0 0 0 0 0 0 0 0 0 0 0 0 0 0 0 0 0 0 0 0 0 0 0 0 0 0 0 0 0 0 0 0 0 0 0 0 0 0 0 0 0 0 0 0 0 0 0 0 0 0 0 0 0 0 0 0 0 0 0 0 1 0 0 0 0 0 0 0 0 0 0 0 0 0 0 0 0 0 0 0 0 0 0 0 0 0 0 0 0 0 0 0 0 0 0 0 0 0l0 0c0 0 0 0 0 0 0 0 0 0 0 0 0 0 0 0 0 0 0 0 0 0 0 0 0 0 0 0 0 0 0 0 0 0 0 0 0 0 0 0 0 0 0 0 0 0 0 0l17 0 0 15-17 0c-6 1-12 3-18 7z m126 295l47 0 0-15-47 0z m-67-301l47 0 0-16-47 0z m-71 59l-15 0 0-28c0 0 0 0 0 0l0 0c0 0 0 0 0 0 0 0 0 0 0 0 0 0 0 0 0 0 0 0 0 0 0 0 0 0 0 0 0 0 0 0 0 0 0 0 0 0 0 0 0 0 0 0 0 0 0 0 0 0 0 0 0 0 0 0 0 0 0 0 0 0 0 0 0 0 0 0 0 0 0 0 0 0 0 0 0 0 0 0 0 0 0 0 0 0 0 0 0 0 0 0 0 0 0 0 0 0 0 0 0 0 0 0 0 0 0 0 0 0 0 0 0 0 0 0 0 0 0 0 0 0 0 0 0 0 0 0 0 0 0 0 0-1 0-1 0-1 0 0 0 0 0 0 0 0 0 0 0 0 0 0 0 0 0 0 0 0 0 0 0 0 0 0 0 0 0 0 0 0 0 0 0 0 0 0 0 0 0 0 0 0 0 0 0 0 0 0 0 0 0 0 0 0 0 0 0 0 0 0 0 0 0 0 0 0 0 0 0 0 0 0 0 0 0 0l0 0c0 0 0 0 0 0 0 0 0 0 0 0 0 0 0 0 0 0 0 0 0 0 0 0l0 0c0 0 0 0 0 0 0 0 0 0 0 0 0 0 0 0 0 0 0 0 0 0 0 0 0 0 0 0 0 0 0 0 0 0 0 0 0 0 0 0 0 0 0 0 0 0 0 0 0 0 0 0 0 0 0 0 0 0 0 0 0 0 0 0 0 0 0 0 0 0 0 0 0 0 0 0 0 0l0 0c0 0 0 0 0 0 0 0 0 0 0 0 0 0 0 0 0 0 0 0 0 0 0 0l0 0c0 0 0 0 0 0 0 0 0 0 0 0 0 0 0 0 0 0 0 0 0 0 0 0 0 0 0 0 0-1 0 0 0 0 0 0 0 0 0 0 0 0 0 0 0 0 0 0 0 0 0 0 0 0 0 0 0 0 0 0 0 0 0 0 0 0 0 0 0 0 0 0 0 0 0 0 0 0 0 0 0 0 0 0 0 0 0 0 0 0 0 0 0 0 0 0 0 0 0 0 0 0 0 0 0 0 0 0 0 0 0 0 0 0 0 0 0 0 0 0 0 0 0 0 0 0 0 0 0 0 0 0 0 0 0 0 0 0 0 0 0 0 0 0 0 0 0 0 0 0 0 0 0 0 0 0 0 0 0 0 0 0 0 0 0 0 0 0 0 0 0 0 0 0 0 0 0 0 0 0 0 0 0 0 0 0l0 0c0 0 0 0 0 0 0 0 0 0 0 0 0 0 0 0 0 0 0 0 0 0 0 0 0 0 0 0 0 0 0 0 0 0 0 0l0 0c0 0 0 0 0 0 0 0 0 0 0 0 0 0 0 0 0 0 0 0 0 0 0 0 0 0 0 0 0 0 0 0 0 0 0 0 0 0 0 0 0 0 0 0 0 0 0 0 0 0 0 0 0 0 0 0 0 0 0 0 0 0 0-1 0-1 0 0 0 0 0 0 0 0 0 0 0 0 0 0 0 0 0 0 0 0 0 0 0 0 0 0 0 0 0 0 0 0 0 0 0 0 0 0 0 0 0 0l0 0c0 0 0 0 0 0 0 0 0 0 0 0l0 0c0 0 0 0 0 0 0 0 0 0 0 0l0 0c0 0 0 0 0 0 0 0 0 0 0 0 0 0 0 0 0 0 0 0 0 0 0 0 0 0 0 0 0 0 0 0 0 0 0 0 0 0 0 0 0 0 0 0 0 0 0 0 0 0 0 0 0 0 0 0 0 0 0 0 0 0 0 0 0 0l0 0c0 0 0 0 0 0 0 0 0 0 0 0 0 0 0 0 0 0 0 0 0 0 0 0 0 0 0 0 0-1 0 0 0 0 0 0 0 0 0 0 0 0 0 0 0 0 0 0 0 0 0 0 0 0l0 0c0 0 0 0 0 0 0 0 0 0 0 0 0 0 0 0 0 0l0 0c0 0 0 0 0 0 0 0 0 0 0 0 0 0 0 0 0 0 0 0 0 0 0 0 0 0 0 0 0 0 0 0 0 0 0 0 0 0 0 0 0 0l0 0c0 0 0 0 0 0 0 0 0 0 0 0 0 0 0 0 0 0 0 0 0 0 0 0 0 0 0 0 0 0l0 0c0 0 0 0 0 0 0 0 0 0 0 0 0 0 0 0 0 0 0 0 0 0 0 0l0 0c0 0 0-1 0-1 0 0 0 0 0 0 0-5 2-10 3-14l14 6c-1 4-2 9-2 13l0 28z m-15 70l15 0 0-47-15 0z m301 115l16 0 0-47-16 0z m0-141l16 0 0-47-16 0z m0 70l16 0 0-47-16 0z m0-142c0-10-5-20-14-26l9-13c2 2 4 3 6 5 0 0 0 0 0 0 0 0 0 0 0 0 0 0 0 0 0 0 0 0 0 1 0 1 1 0 1 0 1 0 0 0 0 0 0 0 0 0 0 0 0 0 0 0 0 0 0 0 0 0 0 0 0 0 0 0 0 0 0 0 0 0 0 0 0 0l0 0c0 0 0 0 0 0 0 0 0 0 0 0 0 0 0 0 0 0 0 0 0 0 0 0 0 0 0 0 0 0 0 0 0 0 0 0 0 0 0 0 0 0 0 0 0 0 0 0 0 0 0 0 0 0 0 0 0 0 0 0 0 0 0 0 0 0 0 0 0 0 0 0 0 0 0 0 0 0 0 0 0 0 0 0 0 0 0 0 0 0 0 0 0 0 0 0 0 0 0 0 0 0 0 0 0 0 0 0l0 0c0 0 0 0 0 0 0 0 0 0 0 0 0 0 0 0 0 0 0 0 0 0 0 0 0 0 0 0 0 0 0 0 0 0 0 0 0 0 0 0 0 0 0 0 0 0 0 0l0 0c0 0 0 0 0 0 0 0 0 0 0 0 0 0 0 0 0 0 0 0 0 0 0 0 0 0 0 0 0 0 0 0 0 0 0 0 0 0 0 0 0 0 0 0 0 0 0 0l0 0c0 0 0 0 0 0 0 0 0 0 0 0 0 0 0 0 0 0 0 0 0 0 0 0 0 0 0 0 0 0 0 0 0 0 0 0 0 0 0 0 0 0 0 0 0 0 0 0 0 0 0 0 0 0 0 0 0 1 0 1 0 0 0 0 0 0 0 0 0 0 0 0 0 0 0 0 0 0 0 0 0 0 1 0 0 0 0 0 0 0 0 0 0 0 0 0 0 0 0 0 0 0 0 0 0 0 0 0 0 0 0 0 0 0 0 0 0 0 0 0 0 0 0 0 0 0 0 0 0 0 0 0 0 0 0 0 0 0 0 0 0 0 0 0 0 0 0 0 0 0 0 0 0 0 0 0 0 0 0 0 0 0 0 0 0 0 0 0 0 0 0 0 0 0 0 0 0 0 0 0 0 0 0 0 0 0 0 0 0 0 0 0 0 0 0 0 0 0 0 0 0 0 0 0 0 0 0 0 0 0 0 0 0 0 0 0l0 0c0 0 0 0 0 0 0 0 0 0 0 0 0 0 0 0 0 0 0 0 0 0 0 0 0 0 0 0 0 0 0 0 0 0 0 0 0 0 0 0 0 0 0 0 0 0 0 0 0 0 0 0 0 0 0 0 0 0 0 0 0 0 0 0 0 0 0 0 0 0 0 0 0 0 0 0 0 0 0 0 0 0 0 0l0 0c0 0 0 0 0 0 0 0 0 0 0 0 0 0 0 0 0 0 0 0 0 0 0 0 0 0 0 0 0 0l0 0c0 0 0 0 0 0 0 0 0 0 0 0 0 0 0 0 0 0 0 0 0 0 0 0 0 0 0 0 0 0 0 0 0 0 0 1 0 0 0 0 0 0 0 0 0 0 0 0 0 0 0 0 0 0 0 0 0 0 0 0 0 0 0 0 0 0 0 0 0 0 1 0 0 0 0 0 0 0 0 0 0 0 0 0 0 0 0 0 0 0 0 0 0 0 0 0 0 0 0 0 0 0 0 0 0 0 0 0 0 0 0 0 0 0 0 0 0 0 0 0 0 0 0 0 0 0 0 0 0 0 0 0l0 0c0 0 0 0 0 0 0 0 0 0 0 0 0 0 0 0 0 0 0 0 0 0 0 0l0 0c0 0 0 0 0 0 0 0 0 0 0 0 0 0 0 0 0 0 0 0 0 0 0 0 0 0 0 0 0 0 0 0 0 0 0 0 0 0 0 0 0 0 0 0 0 0 0 0 0 0 0 0 0 0 0 0 0 0 0 0 0 0 0 0 0 0 0 0 0 0 0 0 0 0 0 0 0 0 0 0 0 0 0 0 0 0 0 0 0 0 0 0 0 0 0 0 0 0 0 0 0 0 0 0 0 0 0 0 0 0 0 1 0 1 0 0 0 0 0 0 0 0 0 0 0 0 0 0 0 0 0 0 0 0 0 0 0 0 0 0 0 0 0 0l0 0c0 0 0 0 0 0 0 0 0 0 0 0 0 0 0 0 0 0 0 0 0 0 0 0 0 0 0 0 0 0 1 0 1 0 1 0 0 0 0 0 0 0 0 0 0 0 0 0 0 0 0 0 0 0 0 0 0 0 0 0 0 0 0 0 0 0 0 0 0 0 0 0 0 0 0 0 0 0 0 0 0 0 0 0 0 0 0 0 0 0 0 0 0 0 0 0l0 0c0 0 0 0 0 0 0 0 0 0 0 0 0 0 0 0 0 0 0 0 0 0 0 0 0 0 0 0 0 1 0 0 0 0 0 0 0 0 0 0 0 0 0 0 0 0 0 0 0 0 0 0 0 0 0 0 0 0 0 0 0 0 1 0 1 0 0 0 0 0 0 0 0 0 0 0 0 0l0 0c0 1 0 1 0 1 0 0 1 0 1 1 0 0 0 0 0 0 0 0 0 0 0 0 0 0 0 0 0 0 0 0 0 0 0 0 1 1 1 1 1 1l0 0c0 0 0 0 0 0 0 0 0 1 0 1 0 0 0 0 0 0 0 0 1 0 1 0l0 0c0 0 0 0 0 0 0 0 0 0 0 0 0 0 0 0 0 1l0 0c0 0 0 0 0 0 0 0 0 0 0 0 0 0 0 0 0 0 0 0 0 0 0 0 0 0 0 0 0 0 0 0 0 0 0 0 0 0 0 0 0 0 0 0 0 0 0 0 0 0 0 0 0 0 0 0 0 0 0 0 0 0 0 0 0 1 0 0 0 0 0 0 0 0 0 0 0 0l0 0c0 0 0 0 0 0 0 0 0 0 0 0 0 0 0 0 1 0 0 0 0 0 0 0 0 0 0 0 0 0 0 0 0 0 0 0 0 0 0 0 0 0 0 0 0 0 0 0 0 0 0 0 0 0 0 0 0 0 0 0 0 0 0 0 0 0 0 0 0 0 0 0 0 0 0 0 0 0 0 1 0 1 0 1 0 0 0 0 0 0 0 0 0 0 0 0l0 0c0 0 0 0 0 0 0 0 0 0 0 0 0 0 0 0 0 0 0 0 0 0 0 0 0 0 0 0 0 0 0 0 0 0 0 0 0 0 0 0 0 0 0 0 0 0 0 0 0 0 0 0 0 0 0 0 0 0 0 0 0 0 0 0 0 0 0 0 0 0 0 0 0 0 0 0 0 0 0 0 0 0 0 0 0 0 0 0 0 0 0 0 0 0 0 0 0 0 0 0 0 0 0 0 0 0 0 0 0 0 0 0 0 1 0 0 0 0 0 0 0 0 0 0 0 0 0 0 0 0 0 0l0 0c0 0 1 0 1 0 0 0 0 0 0 0 0 0 0 0 0 0 0 0 0 0 0 0 0 0 0 0 0 0l0 0c0 0 0 0 0 0 0 0 0 0 0 0 0 0 0 0 0 0 0 0 0 0 0 0 0 0 0 0 0 0 0 0 0 0 0 0 0 0 0 0 0 0 0 0 0 0 0 0 0 0 0 0 0 0 0 0 0 0 0 0 0 0 0 0 0 0 0 0 0 0 0 0 0 0 0 0 0 0 0 0 0 0 0 0 0 0 0 0 0 0 0 0 0 0 0 0 0 0 0 0 0 1 0 0 0 0 0 0 0 0 0 0 0 0l0 0c0 0 0 0 0 0 0 0 0 0 0 0l0 0c0 0 0 0 0 0 0 0 0 0 0 0 0 0 0 0 0 0 0 0 0 0 0 0 0 0 0 0 0 0l0 0c0 0 0 0 0 0 0 0 0 0 0 0 0 0 0 0 0 0 0 0 0 0 0 0 0 0 0 0 0 0 0 0 0 0 0 0l0 0c0 0 0 0 0 0 0 0 0 0 0 0 0 0 0 0 0 0 0 0 0 0 0 0 0 0 0 0 0 0 0 0 0 0 0 0 0 0 0 0 0 0 0 0 0 0 0 0 0 0 0 0 0 0l0 0c0 0 0 0 0 0 0 0 0 0 0 0l0 0c0 0 0 0 0 0 0 0 0 0 0 0 0 0 0 0 0 0 0 0 0 0 0 0 0 0 0 0 0 0 0 0 0 0 0 0 0 0 0 0 0 1l0 0c0 0 0 0 0 0 0 0 0 0 0 0 0 0 0 0 0 0 0 0 0 0 0 0 0 0 0 0 0 0 0 0 0 0 0 0 0 0 1 0 1 0 0 0 0 0 0 0 0 0 0 0 0 0 0 0 0 0 0 0 0 0 0 0 0 0 0 0 0 0 0 0 0 0 0 0 0 0l0 0c0 0 0 0 0 0 0 0 0 0 0 0 0 0 0 0 0 0 0 0 0 0 0 0 0 0 0 0 0 0 0 0 0 0 0 0 0 0 0 0 0 0 0 0 0 0 0 0 0 0 0 0 0 0 0 0 0 0 0 0 0 0 0 0 0 0 0 0 0 0 0 0l0 0c0 0 0 0 0 0l0 0c0 0 0 0 0 1 0 0 0 0 0 0 0 0 0 0 0 0 0 0 0 0 0 0l0 0c0 0 0 0 0 0 0 0 0 0 0 0 0 0 0 0 0 0 0 0 0 0 0 0 0 0 0 0 0 0 0 0 0 0 0 0 0 0 0 0 0 0 0 0 0 0 0 0 0 0 0 0 0 0 0 0 0 0 0 0 0 0 0 0 0 0l0 0c0 0 0 0 0 0l0 0c0 0 0 0 0 0 0 0 0 0 0 0 0 0 0 0 0 0 0 0 0 0 0 0 0 0 0 0 0 0 0 0 0 0 0 0 0 0 0 0 0 0 0 0 0 0 0 0 0 0 0 0 0 0 0 0 0 0 0 0l0 0c0 0 0 0 0 0 0 0 0 0 0 0l0 0c0 0 0 0 0 0 0 0 0 0 0 0 0 0 0 0 0 0 0 0 0 0 0 1 0 0 0 0 0 0 0 0 0 0 0 0 0 0 0 0 0 0 0 0 0 0 0 0 0 0 0 0 0 0 0 0 0 0 0 0 0 0 0 0 0 0 0 0 0 0 0 0l0 0c0 0 0 0 0 0 0 0 0 0 0 0 0 0 0 0 0 0 0 0 0 0 0 0 0 0 0 0 0 0 0 0 0 0 0 0 0 0 0 0 0 0 0 0 0 0 0 0 0 0 0 0 0 0 0 0 0 0 0 0 0 0 0 0 0 0 0 0 0 0 0 0 0 0 0 0 0 0 1 0 1 0 1 0l0 0c0 0 0 0 0 0 0 0 0 0 0 0 0 0 0 0 0 0 0 0 0 0 0 0 0 0 0 0 0 0 0 0 0 0 0 0 0 0 0 0 0 0l0 0c0 0 0 0 0 0l0 0c0 0 0 0 0 0 0 0 0 0 0 0 0 0 0 0 0 0 0 0 0 0 0 0 0 0 0 0 0 0 0 0 0 0 0 0 0 0 0 0 0 0 0 0 0 0 0 0 0 0 0 0 0 0 0 0 0 0 0 0 0 0 0 0 0 0 0 0 0 0 0 0l0 0c0 0 0 0 0 0 0 0 0 0 0 0 0 0 0 0 0 0 0 0 0 0 0 0 0 0 0 0 0 0 0 0 0 0 0 0 0 0 0 0 0 0l0 0c0 0 0 0 0 0 0 0 0 0 0 0 0 0 0 1 0 1l0 0c0 0 0 0 0 0 0 0 0 0 0 0 0 0 0 0 0 0 0 0 0 0 0 0 0 0 0 0 0 0 0 0 0 0 0 0 0 0 0 0 0 0 0 0 0 0 0 0 0 0 0 0 0 0 0 0 0 0 0 0 0 0 0 0 0 0 0 0 0 0 0 0 0 0 0 0 0 0 0 0 0 0 0 0l0 0c0 0 0 0 0 0 0 0 0 0 0 0l0 0c0 0 0 0 0 0 0 0 0 0 0 0 0 0 0 0 0 0 0 0 0 0 0 0 0 0 0 0 0 0 0 0 0 0 0 0l0 0c0 0 0 0 0 0 0 0 0 0 0 0 0 0 0 0 0 0 0 0 0 0 0 0l0 0c0 0 0 0 0 0 0 0 0 0 0 0 0 0 0 0 0 0 0 0 0 0 0 0 0 0 0 0 0 0 0 0 0 0 0 0 0 0 0 0 0 0 0 0 0 0 0 0 0 0 0 0 0 0 0 0 0 0 0 0 0 0 0 0 0 0l0 0c0 0 0 0 0 0 0 0 0 0 0 1 0 0 0 0 0 0 0 0 0 0 0 0 0 0 0 0 0 0 0 0 0 0 0 0l0 0c0 0 0 0 0 0 0 0 0 0 0 0l0 0c0 0 0 0 0 0 0 0 0 0 0 0 0 0 0 0 0 0 0 0 0 0 0 0l0 0c0 0 0 0 0 0 0 0 0 0 0 0 0 0 0 0 0 0 0 0 0 0 0 0 0 0 0 0 0 0 0 0 0 0 0 0 0 0 0 0 0 0l0 0c0 0 0 0 0 0 0 0 0 0 0 0 0 0 0 0 0 0 0 0 0 0 0 0 0 0 0 0 0 0 0 0 0 0 0 0 0 0 0 0 0 0 0 0 0 0 0 0 0 0 0 0 0 0 0 0 0 0 0 0 0 0 0 0 0 0 0 0 0 0 0 0 0 0 0 0 0 0 0 0 0 0 0 0 0 0 0 0 0 0 0 0 0 0 0 0 0 0 0 0 0 0 0 0 0 0 0 0 0 0 0 0 0 0 0 0 0 0 0 0 0 0 0 0 0 0 1 0 1 0 1 1 0 0 0 0 0 0 0 0 0 0 0 0 0 0 0 0 0 0 0 0 0 0 0 0 0 0 0 0 0 0 0 0 0 0 0 0 0 0 0 0 0 0 0 0 0 0 0 0 0 0 0 0 0 0 0 0 0 0 0 0 0 0 0 0 0 0 0 0 0 0 0 0 0 0 0 0 0 0 0 0 0 0 0 0l0 0c0 0 0 0 0 0 0 0 0 0 0 0 0 0 0 0 0 0 0 0 0 0 0 0 0 0 0 0 0 0 0 0 0 0 0 0 0 0 0 0 0 0 0 0 0 0 0 0 0 0 0 0 0 0l0 0c0 0 0 0 0 0 0 0 0 0 0 0 0 0 0 0 0 0 0 0 0 0 0 0 0 0 0 0 0 0 0 0 0 0 0 0 0 0 0 0 0 0 0 0 0 0 0 0 0 0 0 0 0 0 0 0 0 0 0 0 0 0 0 0 0 0 0 0 0 0 0 0 0 0 0 0 0 0 0 0 0 0 0 0 0 0 0 0 0 0l0 0c0 0 0 0 0 0 0 0 0 0 0 0 0 0 0 0 0 0 0 0 0 0 0 0 0 0 0 1 0 1 0 0 0 0 0 0 0 0 0 0 0 0 0 0 0 0 0 0 0 0 0 0 0 0 0 0 0 0 0 0 0 0 0 0 0 0 0 0 0 0 0 0 0 0 0 0 0 0 0 0 0 0 0 0 0 0 0 0 0 0 0 0 0 0 0 0 0 0 0 0 0 0 0 0 0 0 0 0l0 0c0 0 0 0 0 0l0 0c0 0 0 0 0 0 0 0 0 0 0 0 0 0 0 0 0 0 0 0 0 0 0 0 0 0 0 0 0 0 0 0 0 0 0 0 0 0 0 0 0 0 0 0 0 0 0 0 0 0 0 0 0 0 0 0 0 0 0 0 0 0 0 0 0 0 0 0 0 0 0 0 0 0 0 0 0 0 0 0 0 0 0 0 0 0 0 0 0 0 0 0 0 0 0 0 0 0 0 0 0 0 0 0 0 0 0 0l0 0c0 0 0 0 0 0 0 0 0 0 0 0 0 0 0 0 0 0 0 0 0 0 0 0 0 0 0 0 0 0 0 0 0 0 0 0 0 0 0 0 0 0 0 0 0 0 0 0 0 0 0 0 0 0 0 0 0 0 0 0 0 1 0 1 0 1 0 0 0 0 0 0l0 0c0 0 0 0 0 0 0 0 0 0 0 0 0 0 0 0 0 0l0 0c0 0 0 0 0 0 0 0 0 0 0 0 0 0 0 0 0 0 0 0 0 0 0 0l0 0c0 0 0 0 0 0 0 0 0 0 0 0 0 0 0 0 0 0 0 0 0 0 0 0 0 0 0 0 0 0 0 0 0 0 0 0 0 0 0 0 0 0l0 0c0 0 0 0 0 0 0 0 0 0 0 0 0 0 0 0 0 0 0 0 0 0 0 0 0 0 0 0 0 0l0 0c0 0 0 0 0 0 0 0 0 0 0 0 0 0 0 0 0 0 0 0 0 0 0 0 0 0 0 0 0 0 0 0 0 0 0 0 0 0 0 0 0 0 0 0 0 0 0 0 0 0 0 0 0 0 0 0 0 0 0 0 0 0 0 0 0 0 0 0 0 0 0 0 0 0 0 0 0 0 0 0 0 0 0 0 0 0 0 0 0 0 0 0 0 1 0 1 0 0 0 0 0 0 0 0 0 0 0 0 0 0 0 0 0 0 0 0 0 0 0 0 0 0 0 0 0 0 0 0 0 0 0 0 0 0 0 0 0 0 0 0 0 0 0 0l0 0c0 0 0 0 0 0 0 0 0 0 0 0 0 0 0 0 0 0 0 0 0 0 0 0 0 0 0 0 0 0 0 0 0 0 0 0 0 0 0 0 0 0l0 0c0 0 0 0 0 0 0 0 0 0 0 0 0 0 0 0 0 0 0 0 0 0 0 0 0 0 0 0 0 0 0 0 0 0 0 0 0 0 0 0 0 0 0 0 0 0 0 0 0 0 0 0 0 0 0 0 0 0 0 0 0 0 0 0 0 0 0 0 0 0 0 0 0 0 0 0 0 0 0 0 0 0 0 0 0 0 0 0 0 0l0 0c0 0 0 0 0 0 0 0 0 0 0 0 0 0 0 0 0 0 0 0 0 0 0 0 0 0 0 0 0 0 0 0 0 0 0 0 0 0 0 0 0 0 0 0 0 0 0 0 0 0 0 0 0 0 0 0 0 0 0 0 0 1 0 1 0 1 0 0 0 0 0 0 0 0 0 0 0 0 0 0 0 0 0 0 0 0 0 0 0 0 0 0 0 0 0 0 0 0 0 0 0 0 0 0 0 0 0 0 0 0 0 0 0 0 0 0 0 0 0 0 0 0 0 0 0 0l0 0c0 0 0 0 0 0 0 0 1 0 1 0 0 0 0 0 0 0 0 0 0 0 0 0 0 0 0 0 0 0 0 0 0 0 0 0 0 0 0 0 0 0 0 0 0 0 0 0 0 0 0 0 0 0 0 0 0 0 0 0 0 0 0 0 0 0 0 0 0 0 0 0 0 0 0 0 0 0 0 0 0 0 0 0 0 0 0 0 0 0 0 0 0 0 0 0 0 0 0 0 0 0 0 0 0 0 0 0 0 0 0 0 0 0 0 0 0 0 0 0 0 0 0 0 0 0 0 0 0 0 0 0 0 0 0 0 0 0 0 0 0 0 0 0 0 0 0 0 0 0 0 0 0 0 0 0l0 0c0 0 0 0 0 0 0 0 0 0 0 0 0 0 0 0 0 0 0 0 0 1 0 1 0 0 0 0 0 0l0 0c0 0 0 0 0 0 0 0 0 0 0 0 0 0 0 0 0 0 0 0 0 0 0 0 0 0 0 0 0 0l0 0c0 0 0 0 0 0 0 0 0 0 0 0 0 0 0 0 0 0 0 0 0 0 0 0 0 0 0 0 0 0 0 0 0 0 0 0 0 0 0 0 0 0 0 0 0 0 0 0 0 0 0 0 0 0 0 0 0 0 0 0 0 0 0 0 0 0 0 0 0 0 0 0 0 0 0 0 0 0 0 0 0 0 0 0 0 0 0 0 0 0 0 0 0 0 0 0 0 0 0 0 0 0 0 0 0 0 0 0 0 0 0 0 0 0 0 0 0 0 0 0 0 0 0 0 0 0 0 0 0 0 0 0 0 0 0 0 0 0 0 0 0 0 0 0 0 0 0 0 0 0 0 0 0 0 0 0 0 0 0 0 0 0 0 0 0 0 0 0 0 0 0 0 0 0 0 0 0 0 0 0 0 0 0 0 0 0 0 0 0 0 0 0 0 0 0 0 0 0 0 0 0 0 0 0 0 0 0 0 0 0 0 0 0 0 0 0 0 1 0 1 0 1 0 0 0 0 0 0 0 0 0 0 0 0 0 0 0 0 0 0 0 0 0 0 0 0 0 0 0 0 0 0 0 0 0 0 0 0 0 0 0 0 0 0 0 0 0 0 0 0 0 0 0 0 0 0 0 0 0 0 0 0 0 0 0 0 0 0 0 0 0 0 0 0 0 0 0 0 0 0 0 0 0 0 0 0 0 0 0 0 0 0 0 0 0 0 0 0 0 0 0 0 0 0 0 0 0 0 0 0 0 0 0 0 0 0 0 0 0 0 0 0 0 0 0 0 0 0 0 0 0 0 0 0 0 0 0 0 0 0 0 0 0 0 0 0 0 0 0 0 0 0 0 0 0 0 0 0 0 0 0 0 0 0 0 0 0 0 0 0 0 0 0 0 0 0l0 0c0 0 0 0 0 0 0 0 0 0 0 0 0 0 0 0 0 0 0 0 0 0 0 0 0 0 0 0 0 0l0 0c0 0 0 0 0 0 0 0 0 0 0 0 0 0 0 0 0 0 0 0 0 0 0 0 0 0 0 0 0 0 0 0 0 0 0 0 0 0 0 0 0 0l0 0c0 0 0 0 0 1 0 0 0 0 0 0 0 0 0 0 0 0 0 0 0 0 0 0 0 0 0 0 0 0 0 0 0 0 0 0 0 0 0 0 0 0 0 0 0 0 0 0 0 0 0 0 0 0 0 0 0 0 0 0 0 0 0 0 0 0 0 0 0 0 0 0 0 0 0 0 0 0 0 0 0 0 0 0l0 0c0 0 0 0 0 0 0 0 0 0 0 0 0 0 0 0 0 0 0 0 0 0 0 0 0 0 0 0 0 0 0 0 0 0 0 0 0 0 0 0 0 0 0 0 0 0 0 0 0 0 0 0 0 0 0 0 0 0 0 0 0 0 0 0 0 0 0 0 0 0 0 0 0 0 0 0 0 0 0 0 0 0 0 0 0 0 0 0 0 0 0 0 0 0 0 0 0 0 0 0 0 0 0 0 0 0 0 0 0 0 0 0 0 0 0 0 0 0 0 0 0 0 0 0 0 0 0 0 0 0 0 0 0 0 0 0 0 0 0 0 0 0 0 0 0 0 0 0 0 0 0 0 0 0 0 0 0 0 0 0 0 0 0 0 0 0 0 0 0 0 0 0 0 1 0 0 0 0 0 0 0 0 0 0 0 0 0 0 0 0 0 0 0 0 0 0 0 0 0 0 0 0 0 0 0 0 0 0 0 0 0 0 0 0 0 0 0 0 0 0 0 0 0 0 0 0 0 0 0 0 0 0 0 0 0 0 0 0 0 0 0 0 0 0 0 0 0 0 0 0 0 0 0 0 0 0 0 0 0 0 0 0 0 0 0 0 0 0 0 0 0 0 0 0 0 0 0 0 0 0 0 0 0 0 0 0 0 0 0 0 0 0 0 0 0 0 0 0 0 0 0 0 0 0 0 0 0 0 0 0 0 0 0 0 0 0 0 0 0 0 0 0 0 0 0 0 0 0 0 0 0 0 0 0 0 0 0 0 0 0 0 0 0 0 0 0 0 0 0 0 0 0 0 0 0 0 0 0 0 0 0 0 0 0 0 0 0 0 0 0 0 0 0 0 0 0 0 0 0 0 0 0 0 0 0 0 0 0 0 0 0 0 0 0 0 0 0 0 0 0 0 0 0 0 0 0 0 0 0 0 0 0 0 0 0 0 0 0 0 0 0 0 0 0 0 0 0 0 0 1 0 1 0 0 0 0 0 0 0 0 0 0 0 0 0 0 0 0 0 0 0 0 0 0 0 0 0 0 0 0 0 0 0 0 0 0 0 0 0 0 0 0 0 0 0 0 0 0 0 0 0 0 0 0 0 0 0 0 0 0 0 0 0 0 0 0 0 0 0 0 0 0 0 0 0 0 0 0 0 0 0 0 0 0 0 0 0 0 0 0 0 0 0 0 0 0 0 0 0 0 0 0 0 0 0 0 0 0 0 0 0 0 0 0 0 0 0 0 0 0 0 0 0 0 0 0 0 0 0 0 0 0 0 0 0 0 0 0 0 0 0 0 0 0 0 0 0 0 0 0 0 0 0 0 0 0 0 0 0 0 0 0 0 0 0 0 0 0 0 0 0 0 0 0 0 0 0 0 0 0 0 0 0 0 0 0 0 0 0 0 0 0 0 0 0 0 0 0 0 0 0 0 0 0 0 0 0 0 0 0 0 0 0 0 0 0 0 0 0 0 0 0 0 0 0 0 0 0 0 0 0 0 0 0 0 1 0 0 0 0 0 0 0 0 0 0 0 0 0 0 0 0 0 0 0 0 0 0 0 0 0 0 0 0 0 0 0 0 0 0 0 0 0 0 0 0 0 0 0 0 0 0 0 0 0 0 0 0 0 0 0 0 0 0 0 0 0 0 0 0 0 0 0 0 0 0 0 0 0 0 0 0 0 0 0 0 0 0 0 0 0 0 0 0 0 0 0 0 0 0 0 0 0 0 0 0 0 0 0 0 0 0 0 0 0 0 0 0 0 0 0 0 0 0 0 0 0 0 0 0 0 0 0 0 0 0 0 0 0 0 0 0 0 0 0 0 0 0 0 0 0 0 0 0 0 0 0 0 0 0 0 0 0 0 0 0 0 0 0 0 0 0 0 0 0 0 0 0 0 0 0 0 0 0 0 0l0 0c0 0 0 0 0 0 0 0 0 0 0 0 0 0 0 0 0 0 0 0 0 0 0 0 0 0 0 0 0 0 0 0 0 0 0 0 0 0 0 0 0 0 0 0 0 0 0 0 0 0 0 0 0 0 0 0 0 1 0 1 0 0 0 0 0 0 0 0 0 0 0 0 0 0 0 0 0 0l0 0c0 0 0 0 0 0 0 0 0 0 0 0 0 0 0 0 0 0 0 0 0 0 0 0 0 0 0 0 0 0 1 0 1 0 1 0l0 0c0 0 0 0 0 0 0 0 0 0 0 0l0 0c0 0 0 0 0 0 0 0 0 0 0 0 0 0 0 0 0 0 0 0 0 0 0 0l0 0 0 0c0 0 0 0 0 0 0 0 0 0 0 0l0 0c0 0 0 0 0 0 0 0 0 0 0 0 0 0 0 0 0 0 0 0 0 0 0 0 0 0 0 0 0 0 0 0 0 0 0 0 0 0 0 0 0 0 0 0 0 0 0 0 0 0 0 0 0 0 0 0 0 0 0 0 0 0 0 0 0 0 0 0 0 0 0 0 0 0 0 0 0 0 0 0 0 0 0 0 0 0 0 0 0 0 0 0 0 0 0 0 0 0 0 0 0 0 0 0 0 0 0 0 0 0 0 0 0 0 0 0 0 0 0 0 0 0 0 0 0 0 0 0 0 0 0 1 0 0 0 0 0 0 0 0 0 0 0 0 0 0 0 0 0 0 0 0 0 0 0 0 0 0 0 0 0 0 0 0 0 0 0 0 0 0 0 0 0 0 0 0 0 0 0 0 0 0 0 0 0 0 0 0 0 0 0 0 0 0 0 0 0 0l0 0c0 0 0 0 0 0 0 0 0 0 0 0 0 0 0 0 0 0 0 0 0 0 0 0 0 0 0 0 0 0 0 0 0 0 0 0 0 0 0 0 0 0 0 0 0 0 0 0 0 0 0 0 0 0 0 0 0 0 0 0 0 0 0 0 0 0 0 0 0 0 0 0 0 0 0 0 0 0 0 0 0 0 0 0 0 0 0 0 0 0 0 0 0 0 0 0l0 0c0 0 0 0 0 0l0 0c0 0 0 0 0 0l0 0c0 0 0 0 0 0 0 0 0 0 0 0 0 0 0 0 0 0 0 0 0 0 0 0l0 0c0 0 0 0 0 0 0 0 0 0 0 0 0 0 0 0 0 0 0 1 0 1 0 1 0 0 0 0 0 0 0 0 0 0 0 0 0 0 0 0 0 0 0 0 0 0 0 0 0 0 0 0 0 0 0 0 0 0 0 0 0 0 0 0 0 0 0 0 0 0 0 0 0 0 0 0 0 0 0 0 0 0 0 0 0 0 0 0 0 0 0 0 0 0 0 0l0 0c0 0 0 0 0 0l0 0c0 0 0 0 0 0 0 0 0 0 0 0 0 0 0 0 0 0 0 0 0 0 0 0 0 0 0 0 0 0 0 0 0 0 0 0l0 0c0 0 0 0 0 0l0 0c0 0 0 0 0 0l0 0c0 0 0 0 0 0 0 0 0 0 0 0 0 0 0 0 0 0 0 0 0 0 0 0l0 0c0 0 0 0 0 0l0 0c0 0 0 0 0 0 0 0 0 0 0 0 0 1 0 1 0 1 0 0 0 0 0 0 0 0 0 0 0 0 0 0 0 0 0 0 0 0 0 0 0 0 0 0 0 0 0 0 0 0 0 0 0 0 0 0 0 0 0 0 0 0 0 0 0 0 0 0 0 0 0 0 0 0 0 0 0 0 0 0 0 0 0 0 0 0 0 0 0 0 0 0 0 0 0 0 0 0 0 0 0 0 0 0 0 0 0 0l0 0c0 0 0 0 0 0l0 1-16 0 0-1z m-31-31l-43 0 0-16 43 0c0 0 0 0 0 0 0 0 0 0 0 0 0 0 0 0 0 0l0 0c0 0 0 0 0 0 0 0 0 0 0 0l0 0c0 0 0 0 0 0 0 0 0 0 0 0 0 0 0 0 0 0l0 0c0 0 0 0 0 0 0 0 1 0 1 0 0 0 0 0 0 0 0 0 0 0 0 0l0 0c0 0 0 0 0 0 0 0 0 0 0 0 0 0 0 0 0 0 0 0 0 0 0 0 0 0 0 0 0 0 0 0 0 0 0 0 0 0 0 0 0 0l0 0c0 0 0 0 0 0 0 0 0 0 0 0 0 0 0 0 0 0 0 0 0 0 0 0 0 0 0 0 0 0 0 0 0 0 0 0 0 0 0 0 0 0l0 0c0 0 0 0 0 0 0 0 0 0 0 0 0 0 0 0 0 0 0 0 0 0 0 0l0 0c0 0 0 0 0 0 0 0 0 0 0 0 0 0 0 0 0 0 1 0 1 0 1 0l0 0c0 0 0 0 0 0 0 0 0 0 0 0 1 0 1 0 1 0 0 0 0 0 0 0 0 0 0 0 0 0 0 0 0 0 0 0 0 0 0 0 0 0 0 0 0 0 0 0 0 0 0 0 0 0 0 0 0 0 0 0 0 0 0 0 0 0 0 0 0 0 0 0 0 0 0 0 0 0 0 0 0 0 0 0 0 0 0 0 0 0 0 0 1 1 1 1l-1 15c-1 0-2 0-3 0z m30 263l15 4c0 0 0 0 0 0 0 0 0 0 0 0 0 0 0 0 0 0l0 0c0 0 0 0 0 0 0 0 0 0 0 0 0 0 0 0 0 0 0 0 0 0 0 0 0 0 0 0 0 0 0 0 0 0 0 0 0 0 0 0 0 0 0 0 0 0 0 0 0 0 0 1 0 1 0 0 0 0 0 0 0 0 0 0 0 0 0 0 0 0 0 0 0 0 0 0 0 0l0 0c0 0 0 0 0 0 0 0 0 0 0 0 0 0 0 0 0 0 0 0 0 0 0 0-3 7-6 13-11 19 0 0 0 0 0 0 0 0 0 0 0 0 0 0 0 0 0 0 0 0 0 0 0 0 0 0 0 0 0 0-1 0-1 0-1 0 0 0 0 0 0 0 0 0 0 0 0 0 0 0 0 0 0 0 0 0 0 0 0 0 0 0 0 0 0 0 0 0 0 0 0 0 0 1 0 1 0 1l0 0c0 0 0 0 0 0 0 0 0 0 0 0 0 0 0 0 0 0 0 0 0 0 0 0 0 0 0 0 0 0 0 0 0 0 0 0 0 0 0 0 0 0 0 0 0 0 0 0l0 0c0 0 0 0 0 0 0 0 0 0 0 0 0 0 0 0 0 0 0 0 0 0 0 0l0 0c0 0 0 0 0 0l0 0c0 0 0 0 0 0l0 0c0 0 0 0 0 0 0 0 0 0 0 0 0 0 0 0 0 0l0 0c0 0-1 0-1 0 0 0 0 0 0 0 0 0 0 0 0 0 0 0 0 0 0 0 0 0 0 0 0 0l0 0c0 0 0 0 0 0 0 0 0 0 0 0 0 0 0 0 0 0 0 0 0 0 0 0 0 0 0 0 0 0 0 0 0 0 0 0 0 0 0 0 0 0 0 0 0 0 0 0 0 0 0 0 0 0 0 0 0 0 0 0 0 0 0 0 0 0 0 0 0 0 0 0 0 0 0 0 0 0 0 0 0 0 0 0 0 0 0 0 0 0 0 0 0 0 0 0 0 0 0 0 0 0 0 0 0 1 0 1 0 0 0 0 0 0 0 0 0 0 0 0 0 0 0 0 0 0 0 0 0 0 0 0 0 0 0 0 0 0 0 0 0 0 0 0 0 0 0 0 0 0 0 0 0 0 0 0 0 0 0 0 0 0 0 0 0 0 0 0 0 0 0 0 0 0 0 0 0 0 0 0 0 0 0 0 0 0 0 0 0 0 0 0 0 0 0 0 0 0 0 0 0 0 0 0 0 0 0 0 0 0 0 0 0 0 0 0 0 0 0 0 0 0 0 0 0 0 0 0 0 0 0 0 0 0 0 0 0 0 0 0 0 0 0 0 0 0 0 0 0 0 0 0 0 0 0 0 0 0 0 0 0 0 0 0 0 0 0 0 0 0 0 0 0 0 0 0l0 0c0 0-1 0-1 0 0 0 0 0 0 0 0 0 0 0 0 0 0 0 0 0 0 0 0 0 0 0 0 0 0 0 0 0 0 0 0 0 0 0 0 0 0 0 0 0 0 0 0 0 0 0 0 0 0 0 0 0 0 0 0 0 0 0 0 0 0 0 0 0 0 0 0 0 0 0 0 0 0 0 0 0 0 0 0 0 0 0 0 0 0 0 0 0 0 0 0 0 0 0 0 0 0 0 0 0 0 0 0 0 0 0 0 0 0 0 0 0 0 0 0 1 0 1 0 1-5 4-11 7-17 9l-5-14c10-3 19-12 21-22z m-77 38l47 0 0-15-47 0z"/>
<glyph glyph-name="menu-2-1" unicode="&#57447;" d="M502 93l-492 0 0 38 492 0z m0 144l-492 0 0 38 492 0z m0 144l-492 0 0 38 492 0z"/>
<glyph glyph-name="menu-template" unicode="&#57448;" d="M475 475l0-438-438 0 0 438 438 0m27 27l-492 0 0-492 492 0z m-278-257l0-107-107 0 0 107 107 0m21 22l-150 0 0-150 150 0 0 150z m-150 128l86 0 0-43-86 0z m236 0l86 0 0-43-86 0z m-42-128l128 0 0-22-128 0z m0-43l128 0 0-22-128 0z m0-43l128 0 0-21-128 0z m0-43l128 0 0-21-128 0z m-87 257l108 0 0-43-108 0z"/>
<glyph glyph-name="start-page" unicode="&#57449;" d="M149 319l20 23 77-86-77-86-20 22 42 48-182 0 0 32 182 0z m216-78l87 0-87-101z m-292 187l0-64 29 0 0 34 374 0 0-127-140 0 0-157-234 0 0 40-29 0 0-70 282 0 149 173 0 171z"/>
<glyph glyph-name="portfolio" unicode="&#57450;" d="M423 94l-334 0-33 135 400 0z m-44 301l6 23-259 0 7-23z m25-52l5 24-306 0 5-24z m-288-87l-4 31 287 0-4-31 26 0 8 54-346 0 8-54z"/>
<glyph glyph-name="android-textsms" unicode="&#57451;" d="M408 448l-312 0c-22 0-32-18-32-40l0-344 64 64 280 0c22 0 40 18 40 40l0 240c0 22-18 40-40 40z m-210-178l-38 0 0 40 38 0z m77 0l-38 0 0 40 38 0z m77 0l-38 0 0 40 38 0z"/>
</font>
</defs>
</svg>
